{
.appVersion = "1352";
DisplayStrings = (
abcdefghijklmnopqrstuvwxyz,
ABCDEFGHIJKLMNOPQRSTUVWXYZ
);
copyright = "Copyright 2015-2021 The Luxurious Project Authors (https://github.com/googlefonts/luxurious-roman)";
customParameters = (
{
name = licenseURL;
value = "https://scripts.sil.org/OFL";
},
{
name = license;
value = "This Font Software is licensed under the SIL Open Font License, Version 1.1. This license is available with a FAQ at: https://scripts.sil.org/OFL";
},
{
name = vendorID;
value = GOOG;
},
{
name = "Disable Subroutines";
value = 1;
},
{
name = glyphOrder;
value = (
.notdef,
CR,
.null,
space,
nbspace
);
},
{
name = fsType;
value = (
);
},
{
name = "Use Typo Metrics";
value = 1;
}
);
date = "2021-11-03 22:20:54 +0000";
designer = "Robert E. Leuschke";
designerURL = www.typesetit.com;
familyName = "Luxurious Roman";
featurePrefixes = (
{
automatic = 1;
code = "languagesystem DFLT dflt;\012\012languagesystem latn dflt;\012languagesystem latn AZE;\012languagesystem latn CRT;\012languagesystem latn KAZ;\012languagesystem latn TAT;\012languagesystem latn TRK;\012languagesystem latn ROM;\012languagesystem latn MOL;\012languagesystem latn CAT;\012";
name = Languagesystems;
}
);
features = (
{
automatic = 1;
code = "feature locl;\012feature sups;\012feature frac;\012feature ordn;\012";
name = aalt;
},
{
automatic = 1;

glyphs = (
{
glyphname = .notdef;
lastChange = "2021-11-03 23:13:36 +0000";
layers = (
{
layerId = "24D0D9E8-BA2F-4B13-8DB9-88CA40D3CAFC";
paths = (
{
closed = 1;
nodes = (
"501 0 LINE",
"501 800 LINE",
"63 800 LINE",
"63 0 LINE"
);
},
{
closed = 1;
nodes = (
"280 374 LINE",
"434 63 LINE",
"125 63 LINE"
);
},
{
closed = 1;
nodes = (
"125 684 LINE",
"266 401 LINE",
"125 119 LINE"
);
},
{
closed = 1;
nodes = (
"438 110 LINE",
"293 401 LINE",
"438 693 LINE"
);
},
{
closed = 1;
nodes = (
"126 738 LINE",
"433 738 LINE",
"280 429 LINE"
);
}
);
width = 568;
}
);
note = .notdef;
},
{
glyphname = A;
lastChange = "2021-11-03 23:51:19 +0000";
layers = (
{
background = {
paths = (
{
closed = 1;
nodes = (
"16 -3 OFFCURVE",
"53 -2 OFFCURVE",
"101 -2 CURVE SMOOTH",
"148 -2 OFFCURVE",
"184 -3 OFFCURVE",
"211 -7 CURVE",
"227 23 LINE",
"171 22 OFFCURVE",
"143 31 OFFCURVE",
"143 46 CURVE SMOOTH",
"143 49 OFFCURVE",
"144 49 OFFCURVE",
"143 48 CURVE SMOOTH",
"145 50 LINE",
"150 71 OFFCURVE",
"175 126 OFFCURVE",
"217 215 CURVE SMOOTH",
"219 219 OFFCURVE",
"221 220 OFFCURVE",
"222 220 CURVE SMOOTH",
"452 220 LINE SMOOTH",
"455 220 OFFCURVE",
"457 219 OFFCURVE",
"457 215 CURVE",
"484 108 OFFCURVE",
"496 53 OFFCURVE",
"496 51 CURVE SMOOTH",
"496 31 OFFCURVE",
"472 22 OFFCURVE",
"422 22 CURVE",
"411 -2 LINE",
"415 -7 LINE",
"480 -4 LINE SMOOTH",
"519 -2 OFFCURVE",
"544 -2 OFFCURVE",
"554 -2 CURVE SMOOTH",
"564 -2 OFFCURVE",
"608 -3 OFFCURVE",
"685 -7 CURVE",
"701 23 LINE",
"690 23 OFFCURVE",
"680 24 OFFCURVE",
"670 25 CURVE SMOOTH",
"661 26 OFFCURVE",
"653 26 OFFCURVE",
"645 27 CURVE",
"621 33 OFFCURVE",
"604 44 OFFCURVE",
"596 62 CURVE SMOOTH",
"579 97 OFFCURVE",
"555 170 OFFCURVE",
"523 284 CURVE SMOOTH",
"491 391 LINE SMOOTH",
"470 466 OFFCURVE",
"445 562 OFFCURVE",
"415 680 CURVE",
"409 682 LINE",
"389 669 OFFCURVE",
"369 654 OFFCURVE",
"347 636 CURVE SMOOTH",
"344 633 OFFCURVE",
"341 629 OFFCURVE",
"339 624 CURVE SMOOTH",
"338 621 OFFCURVE",
"338 617 OFFCURVE",
"339 613 CURVE SMOOTH",
"340 602 LINE",
"339 587 OFFCURVE",
"333 566 OFFCURVE",
"320 539 CURVE SMOOTH",
"115 95 LINE SMOOTH",
"100 65 OFFCURVE",
"86 47 OFFCURVE",
"72 38 CURVE SMOOTH",
"61 32 OFFCURVE",
"39 27 OFFCURVE",
"1 22 CURVE",
"-14 -8 LINE"
);
},
{
closed = 1;
nodes = (
"238 261 OFFCURVE",
"237 260 OFFCURVE",
"239 264 CURVE SMOOTH",
"364 535 LINE SMOOTH",
"366 539 OFFCURVE",
"367 542 OFFCURVE",
"367 544 CURVE SMOOTH",
"367 545 OFFCURVE",
"366 546 OFFCURVE",
"366 546 CURVE",
"364 546 OFFCURVE",
"362 543 OFFCURVE",
"364 535 CURVE SMOOTH",
"443 263 LINE",
"444 261 OFFCURVE",
"444 261 OFFCURVE",
"441 261 CURVE SMOOTH",
"239 261 LINE SMOOTH"
);
}
);
};
layerId = "24D0D9E8-BA2F-4B13-8DB9-88CA40D3CAFC";
paths = (
{
closed = 1;
nodes = (
"16 -3 OFFCURVE",
"53 -2 OFFCURVE",
"101 -2 CURVE SMOOTH",
"148 -2 OFFCURVE",
"184 -3 OFFCURVE",
"211 -7 CURVE",
"227 23 LINE",
"171 22 OFFCURVE",
"143 31 OFFCURVE",
"143 45 CURVE SMOOTH",
"143 51 OFFCURVE",
"150 66 OFFCURVE",
"155 79 CURVE SMOOTH",
"167 108 OFFCURVE",
"188 153 OFFCURVE",
"217 215 CURVE SMOOTH",
"219 219 OFFCURVE",
"221 220 OFFCURVE",
"226 220 CURVE SMOOTH",
"450 220 LINE SMOOTH",
"453 220 OFFCURVE",
"457 217 OFFCURVE",
"459 210 CURVE SMOOTH",
"484 105 OFFCURVE",
"496 62 OFFCURVE",
"496 51 CURVE SMOOTH",
"496 31 OFFCURVE",
"472 22 OFFCURVE",
"422 22 CURVE",
"411 -2 LINE",
"415 -7 LINE",
"480 -4 LINE SMOOTH",
"519 -2 OFFCURVE",
"544 -2 OFFCURVE",
"554 -2 CURVE SMOOTH",
"564 -2 OFFCURVE",
"608 -3 OFFCURVE",
"685 -7 CURVE",
"701 23 LINE",
"690 23 OFFCURVE",
"680 23 OFFCURVE",
"670 24 CURVE SMOOTH",
"631 29 OFFCURVE",
"608 36 OFFCURVE",
"596 62 CURVE SMOOTH",
"579 97 OFFCURVE",
"557 171 OFFCURVE",
"523 284 CURVE SMOOTH",
"491 391 LINE SMOOTH",
"469 466 OFFCURVE",
"445 562 OFFCURVE",
"415 680 CURVE",
"409 682 LINE",
"389 669 OFFCURVE",
"369 654 OFFCURVE",
"350 638 CURVE SMOOTH",
"344 633 OFFCURVE",
"338 627 OFFCURVE",
"338 621 CURVE SMOOTH",
"338 614 OFFCURVE",
"340 608 OFFCURVE",
"340 602 CURVE SMOOTH",
"340 587 OFFCURVE",
"333 566 OFFCURVE",
"320 539 CURVE SMOOTH",
"115 95 LINE SMOOTH",
"101 65 OFFCURVE",
"86 47 OFFCURVE",
"72 38 CURVE SMOOTH",
"61 32 OFFCURVE",
"39 27 OFFCURVE",
"1 22 CURVE",
"-14 -8 LINE"
);
},
{
closed = 1;
nodes = (
"239 261 OFFCURVE",
"238 262 OFFCURVE",
"239 264 CURVE SMOOTH",
"306 408 OFFCURVE",
"330 462 OFFCURVE",
"364 535 CURVE",
"390 445 OFFCURVE",
"417 353 OFFCURVE",
"443 264 CURVE SMOOTH",
"444 262 OFFCURVE",
"443 261 OFFCURVE",
"441 261 CURVE SMOOTH",
"241 261 LINE SMOOTH"
);
}
);
width = 745;
}
);
leftKerningGroup = A;
note = A;
rightKerningGroup = A;
unicode = 0041;
},
{
glyphname = AE;
lastChange = "2021-11-03 23:13:38 +0000";
layers = (
{
layerId = "24D0D9E8-BA2F-4B13-8DB9-88CA40D3CAFC";
paths = (
{
closed = 1;
nodes = (
"806 -11 OFFCURVE",
"818 -7 OFFCURVE",
"828 2 CURVE SMOOTH",
"835 9 OFFCURVE",
"840 22 OFFCURVE",
"845 42 CURVE SMOOTH",
"853 79 OFFCURVE",
"865 111 OFFCURVE",
"880 140 CURVE",
"858 148 LINE",
"857 138 OFFCURVE",
"848 119 OFFCURVE",
"833 97 CURVE SMOOTH",
"820 76 OFFCURVE",
"807 62 OFFCURVE",
"796 54 CURVE SMOOTH",
"774 39 OFFCURVE",
"729 31 OFFCURVE",
"662 31 CURVE SMOOTH",
"645 31 OFFCURVE",
"629 32 OFFCURVE",
"614 34 CURVE SMOOTH",
"584 38 OFFCURVE",
"561 42 OFFCURVE",
"553 45 CURVE SMOOTH",
"545 48 OFFCURVE",
"540 55 OFFCURVE",
"538 67 CURVE SMOOTH",
"537 78 OFFCURVE",
"536 95 OFFCURVE",
"536 118 CURVE SMOOTH",
"536 164 OFFCURVE",
"539 234 OFFCURVE",
"545 329 CURVE",
"556 330 OFFCURVE",
"568 330 OFFCURVE",
"582 330 CURVE SMOOTH",
"608 330 OFFCURVE",
"640 329 OFFCURVE",
"678 327 CURVE SMOOTH",
"716 326 OFFCURVE",
"735 312 OFFCURVE",
"732 287 CURVE",
"726 266 LINE",
"730 261 LINE",
"754 267 LINE",
"754 282 OFFCURVE",
"754 291 OFFCURVE",
"755 294 CURVE",
"755 301 OFFCURVE",
"758 311 OFFCURVE",
"762 325 CURVE SMOOTH",
"766 339 OFFCURVE",
"768 349 OFFCURVE",
"769 354 CURVE",
"769 364 OFFCURVE",
"765 370 OFFCURVE",
"756 370 CURVE SMOOTH",
"548 368 LINE",
"557 498 OFFCURVE",
"568 583 OFFCURVE",
"580 620 CURVE",
"600 622 OFFCURVE",
"633 623 OFFCURVE",
"683 623 CURVE SMOOTH",
"705 623 OFFCURVE",
"721 622 OFFCURVE",
"733 621 CURVE SMOOTH",
"770 616 OFFCURVE",
"787 605 OFFCURVE",
"787 587 CURVE SMOOTH",
"787 581 OFFCURVE",
"782 566 OFFCURVE",
"766 527 CURVE",
"793 520 LINE",
"809 583 LINE SMOOTH",
"809 584 OFFCURVE",
"809 585 OFFCURVE",
"810 586 CURVE",
"811 591 OFFCURVE",
"815 601 OFFCURVE",
"819 616 CURVE SMOOTH",
"826 636 OFFCURVE",
"827 645 OFFCURVE",
"827 653 CURVE SMOOTH",
"827 662 OFFCURVE",
"824 667 OFFCURVE",
"815 668 CURVE",
"530 665 LINE SMOOTH",
"472 666 OFFCURVE",
"427 669 OFFCURVE",
"393 674 CURVE",
"378 646 LINE",
"385 647 OFFCURVE",
"392 647 OFFCURVE",
"399 647 CURVE SMOOTH",
"429 647 OFFCURVE",
"456 639 OFFCURVE",
"470 623 CURVE",
"475 614 OFFCURVE",
"477 621 OFFCURVE",
"477 631 CURVE SMOOTH",
"477 637 LINE SMOOTH",
"476 650 OFFCURVE",
"471 657 OFFCURVE",
"469 657 CURVE SMOOTH",
"468 657 OFFCURVE",
"467 656 OFFCURVE",
"467 653 CURVE SMOOTH",
"467 651 OFFCURVE",
"468 647 OFFCURVE",
"469 642 CURVE",
"455 624 OFFCURVE",
"423 577 OFFCURVE",
"113 105 CURVE SMOOTH",
"94 77 OFFCURVE",
"69 47 OFFCURVE",
"55 38 CURVE SMOOTH",
"44 32 OFFCURVE",
"22 27 OFFCURVE",
"-16 22 CURVE",
"-31 -8 LINE",
"-6 -3 OFFCURVE",
"55 -2 OFFCURVE",
"102 -2 CURVE SMOOTH",
"150 -2 OFFCURVE",
"186 -3 OFFCURVE",
"212 -7 CURVE",
"228 23 LINE",
"172 22 OFFCURVE",
"144 31 OFFCURVE",
"144 46 CURVE",
"145 48 LINE",
"145 49 OFFCURVE",
"146 50 OFFCURVE",
"146 51 CURVE SMOOTH",
"151 71 OFFCURVE",
"188 136 OFFCURVE",
"250 226 CURVE",
"255 231 OFFCURVE",
"257 232 OFFCURVE",
"258 232 CURVE SMOOTH",
"457 232 LINE",
"450 146 OFFCURVE",
"443 87 OFFCURVE",
"437 67 CURVE SMOOTH",
"432 51 OFFCURVE",
"419 39 OFFCURVE",
"397 31 CURVE SMOOTH",
"380 24 OFFCURVE",
"361 20 OFFCURVE",
"341 20 CURVE SMOOTH",
"334 20 OFFCURVE",
"327 22 OFFCURVE",
"323 23 CURVE",
"310 -8 LINE",
"397 0 OFFCURVE",
"449 3 OFFCURVE",
"466 4 CURVE SMOOTH",
"483 5 OFFCURVE",
"502 6 OFFCURVE",
"521 6 CURVE SMOOTH",
"541 6 OFFCURVE",
"625 1 OFFCURVE",
"774 -10 CURVE",
"779 -11 OFFCURVE",
"783 -11 OFFCURVE",
"787 -11 CURVE SMOOTH"
);
},
{
closed = 1;
nodes = (
"278 273 OFFCURVE",
"283 273 OFFCURVE",
"287 279 CURVE SMOOTH",
"476 579 LINE",
"478 553 OFFCURVE",
"476 520 OFFCURVE",
"475 489 CURVE SMOOTH",
"474 479 OFFCURVE",
"474 470 OFFCURVE",
"473 462 CURVE SMOOTH",
"461 292 LINE",
"460 277 LINE",
"286 277 LINE SMOOTH",
"280 277 OFFCURVE",
"278 276 OFFCURVE",
"278 275 CURVE SMOOTH"
);
}
);
width = 902;
}
);
note = AE;
unicode = 00C6;
},
{
glyphname = B;
lastChange = "2021-11-03 23:51:53 +0000";
layers = (
{
background = {
paths = (
{
closed = 1;
nodes = (
"50 -2 OFFCURVE",
"96 0 OFFCURVE",
"126 1 CURVE SMOOTH",
"216 1 LINE",
"257 -2 OFFCURVE",
"289 -4 OFFCURVE",
"314 -4 CURVE SMOOTH",
"390 -4 OFFCURVE",
"453 14 OFFCURVE",
"502 49 CURVE SMOOTH",
"553 87 OFFCURVE",
"582 140 OFFCURVE",
"587 209 CURVE SMOOTH",
"590 258 OFFCURVE",
"582 295 OFFCURVE",
"564 320 CURVE SMOOTH",
"535 361 OFFCURVE",
"482 384 OFFCURVE",
"403 389 CURVE",
"404 381 LINE",
"439 395 OFFCURVE",
"466 415 OFFCURVE",
"486 442 CURVE SMOOTH",
"510 472 OFFCURVE",
"522 506 OFFCURVE",
"522 546 CURVE SMOOTH",
"522 584 OFFCURVE",
"509 613 OFFCURVE",
"481 633 CURVE SMOOTH",
"447 657 OFFCURVE",
"397 669 OFFCURVE",
"330 669 CURVE SMOOTH",
"314 669 OFFCURVE",
"296 668 OFFCURVE",
"277 667 CURVE SMOOTH",
"249 665 OFFCURVE",
"221 664 OFFCURVE",
"193 664 CURVE SMOOTH",
"150 664 OFFCURVE",
"105 666 OFFCURVE",
"59 671 CURVE",
"43 641 LINE",
"58 645 OFFCURVE",
"72 647 OFFCURVE",
"84 647 CURVE SMOOTH",
"104 647 OFFCURVE",
"119 642 OFFCURVE",
"131 632 CURVE",
"136 626 OFFCURVE",
"139 598 OFFCURVE",
"139 549 CURVE SMOOTH",
"139 490 OFFCURVE",
"135 401 OFFCURVE",
"127 283 CURVE SMOOTH",
"119 164 OFFCURVE",
"109 91 OFFCURVE",
"100 64 CURVE SMOOTH",
"89 36 OFFCURVE",
"58 22 OFFCURVE",
"0 22 CURVE",
"-16 -8 LINE"
);
},
{
closed = 1;
nodes = (
"271 25 OFFCURVE",
"244 26 OFFCURVE",
"235 28 CURVE SMOOTH",
"212 34 OFFCURVE",
"201 45 OFFCURVE",
"200 64 CURVE SMOOTH",
"199 78 OFFCURVE",
"199 94 OFFCURVE",
"199 111 CURVE SMOOTH",
"199 151 OFFCURVE",
"201 200 OFFCURVE",
"205 259 CURVE SMOOTH",
"215 403 LINE SMOOTH",
"221 492 OFFCURVE",
"228 559 OFFCURVE",
"236 602 CURVE SMOOTH",
"239 615 OFFCURVE",
"248 622 OFFCURVE",
"267 626 CURVE SMOOTH",
"275 628 OFFCURVE",
"297 629 OFFCURVE",
"328 629 CURVE SMOOTH",
"367 629 OFFCURVE",
"398 618 OFFCURVE",
"422 594 CURVE SMOOTH",
"441 574 OFFCURVE",
"450 550 OFFCURVE",
"450 522 CURVE SMOOTH",
"450 497 OFFCURVE",
"443 474 OFFCURVE",
"426 448 CURVE SMOOTH",
"415 434 OFFCURVE",
"399 420 OFFCURVE",
"376 409 CURVE SMOOTH",
"351 396 OFFCURVE",
"329 390 OFFCURVE",
"306 390 CURVE SMOOTH",
"286 390 LINE",
"265 360 LINE",
"355 360 LINE SMOOTH",
"403 360 OFFCURVE",
"439 347 OFFCURVE",
"465 320 CURVE SMOOTH",
"492 294 OFFCURVE",
"505 256 OFFCURVE",
"503 209 CURVE SMOOTH",
"501 152 OFFCURVE",
"481 106 OFFCURVE",
"444 73 CURVE SMOOTH",
"409 41 OFFCURVE",
"365 25 OFFCURVE",
"312 25 CURVE SMOOTH"
);
}
);
};
layerId = "24D0D9E8-BA2F-4B13-8DB9-88CA40D3CAFC";
paths = (
{
closed = 1;
nodes = (
"50 -2 OFFCURVE",
"96 0 OFFCURVE",
"126 1 CURVE SMOOTH",
"216 1 LINE",
"257 -2 OFFCURVE",
"289 -4 OFFCURVE",
"314 -4 CURVE SMOOTH",
"390 -4 OFFCURVE",
"453 14 OFFCURVE",
"502 49 CURVE SMOOTH",
"553 87 OFFCURVE",
"582 140 OFFCURVE",
"587 209 CURVE SMOOTH",
"590 258 OFFCURVE",
"582 295 OFFCURVE",
"564 320 CURVE SMOOTH",
"535 361 OFFCURVE",
"482 384 OFFCURVE",
"403 389 CURVE",
"404 381 LINE",
"439 395 OFFCURVE",
"466 415 OFFCURVE",
"486 442 CURVE SMOOTH",
"510 472 OFFCURVE",
"522 506 OFFCURVE",
"522 546 CURVE SMOOTH",
"522 584 OFFCURVE",
"509 613 OFFCURVE",
"481 633 CURVE SMOOTH",
"447 657 OFFCURVE",
"397 669 OFFCURVE",
"330 669 CURVE SMOOTH",
"314 669 OFFCURVE",
"296 668 OFFCURVE",
"277 667 CURVE SMOOTH",
"249 665 OFFCURVE",
"221 664 OFFCURVE",
"193 664 CURVE SMOOTH",
"150 664 OFFCURVE",
"105 666 OFFCURVE",
"59 671 CURVE",
"43 641 LINE",
"58 645 OFFCURVE",
"72 647 OFFCURVE",
"84 647 CURVE SMOOTH",
"104 647 OFFCURVE",
"119 642 OFFCURVE",
"131 632 CURVE",
"136 626 OFFCURVE",
"139 598 OFFCURVE",
"139 549 CURVE SMOOTH",
"139 490 OFFCURVE",
"135 401 OFFCURVE",
"127 283 CURVE SMOOTH",
"119 164 OFFCURVE",
"109 91 OFFCURVE",
"100 64 CURVE SMOOTH",
"89 36 OFFCURVE",
"58 22 OFFCURVE",
"0 22 CURVE",
"-16 -8 LINE"
);
},
{
closed = 1;
nodes = (
"271 25 OFFCURVE",
"244 26 OFFCURVE",
"235 28 CURVE SMOOTH",
"212 34 OFFCURVE",
"201 45 OFFCURVE",
"200 64 CURVE SMOOTH",
"197 99 OFFCURVE",
"201 200 OFFCURVE",
"205 259 CURVE SMOOTH",
"215 403 LINE SMOOTH",
"221 492 OFFCURVE",
"228 559 OFFCURVE",
"236 602 CURVE SMOOTH",
"239 615 OFFCURVE",
"248 622 OFFCURVE",
"267 626 CURVE SMOOTH",
"275 628 OFFCURVE",
"297 629 OFFCURVE",
"328 629 CURVE SMOOTH",
"397 629 OFFCURVE",
"450 589 OFFCURVE",
"450 522 CURVE SMOOTH",
"450 475 OFFCURVE",
"426 433 OFFCURVE",
"376 409 CURVE SMOOTH",
"351 396 OFFCURVE",
"329 390 OFFCURVE",
"306 390 CURVE SMOOTH",
"286 390 LINE",
"265 360 LINE",
"355 360 LINE SMOOTH",
"403 360 OFFCURVE",
"439 347 OFFCURVE",
"465 320 CURVE SMOOTH",
"492 294 OFFCURVE",
"505 256 OFFCURVE",
"503 209 CURVE SMOOTH",
"501 152 OFFCURVE",
"481 106 OFFCURVE",
"444 73 CURVE SMOOTH",
"409 41 OFFCURVE",
"365 25 OFFCURVE",
"312 25 CURVE SMOOTH"
);
}
);
width = 653;
}
);
note = B;
unicode = 0042;
},
{
glyphname = C;
lastChange = "2021-11-03 23:18:53 +0000";
layers = (
{
background = {
paths = (
{
closed = 1;
nodes = (
"446 -16 OFFCURVE",
"502 -4 OFFCURVE",
"556 18 CURVE SMOOTH",
"568 23 OFFCURVE",
"601 42 OFFCURVE",
"658 74 CURVE",
"660 101 LINE",
"560 56 OFFCURVE",
"470 36 OFFCURVE",
"390 36 CURVE SMOOTH",
"303 36 OFFCURVE",
"234 68 OFFCURVE",
"184 132 CURVE SMOOTH",
"141 188 OFFCURVE",
"120 258 OFFCURVE",
"120 340 CURVE SMOOTH",
"120 352 OFFCURVE",
"120 364 OFFCURVE",
"121 376 CURVE SMOOTH",
"127 460 OFFCURVE",
"155 524 OFFCURVE",
"205 566 CURVE SMOOTH",
"254 607 OFFCURVE",
"321 628 OFFCURVE",
"404 628 CURVE SMOOTH",
"465 628 OFFCURVE",
"516 619 OFFCURVE",
"556 602 CURVE SMOOTH",
"590 588 OFFCURVE",
"611 573 OFFCURVE",
"622 557 CURVE SMOOTH",
"633 541 OFFCURVE",
"637 520 OFFCURVE",
"636 493 CURVE SMOOTH",
"635 485 OFFCURVE",
"634 476 OFFCURVE",
"632 466 CURVE",
"654 461 LINE",
"655 469 OFFCURVE",
"655 468 OFFCURVE",
"655 473 CURVE SMOOTH",
"657 495 OFFCURVE",
"663 524 OFFCURVE",
"673 558 CURVE SMOOTH",
"686 600 OFFCURVE",
"698 618 OFFCURVE",
"706 614 CURVE",
"713 628 LINE",
"631 660 OFFCURVE",
"541 676 OFFCURVE",
"442 676 CURVE SMOOTH",
"432 676 OFFCURVE",
"422 676 OFFCURVE",
"412 675 CURVE SMOOTH",
"306 672 OFFCURVE",
"217 643 OFFCURVE",
"147 588 CURVE SMOOTH",
"71 528 OFFCURVE",
"28 447 OFFCURVE",
"21 346 CURVE SMOOTH",
"20 327 OFFCURVE",
"21 309 OFFCURVE",
"21 290 CURVE",
"29 175 OFFCURVE",
"75 92 OFFCURVE",
"160 41 CURVE SMOOTH",
"223 3 OFFCURVE",
"300 -16 OFFCURVE",
"390 -16 CURVE SMOOTH"
);
}
);
};
layerId = "24D0D9E8-BA2F-4B13-8DB9-88CA40D3CAFC";
paths = (
{
closed = 1;
nodes = (
"446 -16 OFFCURVE",
"502 -4 OFFCURVE",
"556 18 CURVE SMOOTH",
"568 23 OFFCURVE",
"601 42 OFFCURVE",
"658 74 CURVE",
"660 101 LINE",
"560 56 OFFCURVE",
"470 36 OFFCURVE",
"390 36 CURVE SMOOTH",
"303 36 OFFCURVE",
"234 68 OFFCURVE",
"184 132 CURVE SMOOTH",
"141 188 OFFCURVE",
"120 258 OFFCURVE",
"120 340 CURVE SMOOTH",
"120 352 OFFCURVE",
"120 364 OFFCURVE",
"121 376 CURVE SMOOTH",
"127 460 OFFCURVE",
"155 524 OFFCURVE",
"205 566 CURVE SMOOTH",
"254 607 OFFCURVE",
"321 628 OFFCURVE",
"404 628 CURVE SMOOTH",
"465 628 OFFCURVE",
"516 619 OFFCURVE",
"556 602 CURVE SMOOTH",
"590 588 OFFCURVE",
"611 573 OFFCURVE",
"622 557 CURVE SMOOTH",
"633 541 OFFCURVE",
"637 520 OFFCURVE",
"636 493 CURVE SMOOTH",
"635 485 OFFCURVE",
"634 476 OFFCURVE",
"632 466 CURVE",
"654 461 LINE",
"655 469 OFFCURVE",
"655 468 OFFCURVE",
"655 473 CURVE SMOOTH",
"657 495 OFFCURVE",
"663 524 OFFCURVE",
"673 558 CURVE SMOOTH",
"686 600 OFFCURVE",
"698 618 OFFCURVE",
"706 614 CURVE",
"713 628 LINE",
"631 660 OFFCURVE",
"541 676 OFFCURVE",
"442 676 CURVE SMOOTH",
"432 676 OFFCURVE",
"422 676 OFFCURVE",
"412 675 CURVE SMOOTH",
"306 672 OFFCURVE",
"217 643 OFFCURVE",
"147 588 CURVE SMOOTH",
"71 528 OFFCURVE",
"28 447 OFFCURVE",
"21 346 CURVE SMOOTH",
"20 327 OFFCURVE",
"21 309 OFFCURVE",
"21 290 CURVE",
"29 175 OFFCURVE",
"75 92 OFFCURVE",
"160 41 CURVE SMOOTH",
"223 3 OFFCURVE",
"300 -16 OFFCURVE",
"390 -16 CURVE SMOOTH"
);
}
);
width = 719;
}
);
leftKerningGroup = C;
note = C;
rightKerningGroup = C;
unicode = 0043;
},
{
glyphname = D;
lastChange = "2021-11-03 23:18:53 +0000";
layers = (
{
background = {
paths = (
{
closed = 1;
nodes = (
"50 -1 OFFCURVE",
"114 2 OFFCURVE",
"166 2 CURVE SMOOTH",
"193 2 OFFCURVE",
"217 1 OFFCURVE",
"238 -1 CURVE SMOOTH",
"262 -4 OFFCURVE",
"287 -5 OFFCURVE",
"310 -5 CURVE SMOOTH",
"418 -5 OFFCURVE",
"509 22 OFFCURVE",
"586 77 CURVE SMOOTH",
"618 100 OFFCURVE",
"645 135 OFFCURVE",
"669 181 CURVE SMOOTH",
"698 240 OFFCURVE",
"714 302 OFFCURVE",
"714 366 CURVE SMOOTH",
"714 422 OFFCURVE",
"702 473 OFFCURVE",
"678 517 CURVE SMOOTH",
"623 619 OFFCURVE",
"515 669 OFFCURVE",
"355 669 CURVE SMOOTH",
"319 669 OFFCURVE",
"278 667 OFFCURVE",
"234 662 CURVE SMOOTH",
"220 661 OFFCURVE",
"204 660 OFFCURVE",
"186 660 CURVE SMOOTH",
"151 660 OFFCURVE",
"108 663 OFFCURVE",
"59 668 CURVE",
"44 637 LINE",
"59 641 OFFCURVE",
"73 643 OFFCURVE",
"85 643 CURVE SMOOTH",
"104 643 OFFCURVE",
"119 638 OFFCURVE",
"129 628 CURVE SMOOTH",
"134 622 OFFCURVE",
"137 594 OFFCURVE",
"137 547 CURVE SMOOTH",
"137 487 OFFCURVE",
"133 397 OFFCURVE",
"124 276 CURVE SMOOTH",
"116 161 OFFCURVE",
"108 91 OFFCURVE",
"101 65 CURVE SMOOTH",
"96 50 OFFCURVE",
"83 38 OFFCURVE",
"62 30 CURVE SMOOTH",
"46 23 OFFCURVE",
"28 20 OFFCURVE",
"7 20 CURVE SMOOTH",
"0 20 OFFCURVE",
"-6 20 OFFCURVE",
"-9 22 CURVE",
"-26 -8 LINE"
);
},
{
closed = 1;
nodes = (
"251 28 OFFCURVE",
"211 44 OFFCURVE",
"198 77 CURVE",
"201 174 OFFCURVE",
"204 256 OFFCURVE",
"209 324 CURVE SMOOTH",
"218 496 OFFCURVE",
"230 597 OFFCURVE",
"243 621 CURVE",
"250 629 OFFCURVE",
"280 634 OFFCURVE",
"330 634 CURVE SMOOTH",
"350 634 OFFCURVE",
"371 632 OFFCURVE",
"392 629 CURVE SMOOTH",
"456 620 OFFCURVE",
"509 591 OFFCURVE",
"551 541 CURVE SMOOTH",
"597 486 OFFCURVE",
"617 421 OFFCURVE",
"613 344 CURVE SMOOTH",
"608 231 OFFCURVE",
"577 147 OFFCURVE",
"520 96 CURVE SMOOTH",
"483 62 OFFCURVE",
"430 41 OFFCURVE",
"363 31 CURVE SMOOTH",
"350 29 OFFCURVE",
"337 28 OFFCURVE",
"322 28 CURVE SMOOTH"
);
}
);
};
layerId = "24D0D9E8-BA2F-4B13-8DB9-88CA40D3CAFC";
paths = (
{
closed = 1;
nodes = (
"50 -1 OFFCURVE",
"114 2 OFFCURVE",
"166 2 CURVE SMOOTH",
"193 2 OFFCURVE",
"217 1 OFFCURVE",
"238 -1 CURVE SMOOTH",
"262 -4 OFFCURVE",
"287 -5 OFFCURVE",
"310 -5 CURVE SMOOTH",
"418 -5 OFFCURVE",
"509 22 OFFCURVE",
"586 77 CURVE SMOOTH",
"618 100 OFFCURVE",
"645 135 OFFCURVE",
"669 181 CURVE SMOOTH",
"698 240 OFFCURVE",
"714 302 OFFCURVE",
"714 366 CURVE SMOOTH",
"714 422 OFFCURVE",
"702 473 OFFCURVE",
"678 517 CURVE SMOOTH",
"623 619 OFFCURVE",
"515 669 OFFCURVE",
"355 669 CURVE SMOOTH",
"319 669 OFFCURVE",
"278 667 OFFCURVE",
"234 662 CURVE SMOOTH",
"220 661 OFFCURVE",
"204 660 OFFCURVE",
"186 660 CURVE SMOOTH",
"151 660 OFFCURVE",
"108 663 OFFCURVE",
"59 668 CURVE",
"44 637 LINE",
"59 641 OFFCURVE",
"73 643 OFFCURVE",
"85 643 CURVE SMOOTH",
"104 643 OFFCURVE",
"119 638 OFFCURVE",
"129 628 CURVE SMOOTH",
"134 622 OFFCURVE",
"137 594 OFFCURVE",
"137 547 CURVE SMOOTH",
"137 487 OFFCURVE",
"133 397 OFFCURVE",
"124 276 CURVE SMOOTH",
"116 161 OFFCURVE",
"108 91 OFFCURVE",
"101 65 CURVE SMOOTH",
"96 50 OFFCURVE",
"83 38 OFFCURVE",
"62 30 CURVE SMOOTH",
"46 23 OFFCURVE",
"28 20 OFFCURVE",
"7 20 CURVE SMOOTH",
"0 20 OFFCURVE",
"-6 20 OFFCURVE",
"-9 22 CURVE",
"-26 -8 LINE"
);
},
{
closed = 1;
nodes = (
"251 28 OFFCURVE",
"211 44 OFFCURVE",
"198 77 CURVE",
"201 174 OFFCURVE",
"204 256 OFFCURVE",
"209 324 CURVE SMOOTH",
"218 496 OFFCURVE",
"230 597 OFFCURVE",
"243 621 CURVE",
"250 629 OFFCURVE",
"280 634 OFFCURVE",
"330 634 CURVE SMOOTH",
"350 634 OFFCURVE",
"371 632 OFFCURVE",
"392 629 CURVE SMOOTH",
"456 620 OFFCURVE",
"509 591 OFFCURVE",
"551 541 CURVE SMOOTH",
"597 486 OFFCURVE",
"617 421 OFFCURVE",
"613 344 CURVE SMOOTH",
"608 231 OFFCURVE",
"577 147 OFFCURVE",
"520 96 CURVE SMOOTH",
"483 62 OFFCURVE",
"430 41 OFFCURVE",
"363 31 CURVE SMOOTH",
"350 29 OFFCURVE",
"337 28 OFFCURVE",
"322 28 CURVE SMOOTH"
);
}
);
width = 761;
}
);
leftKerningGroup = D;
note = D;
rightKerningGroup = D;
unicode = 0044;
},
{
glyphname = Eth;
lastChange = "2021-11-03 23:13:38 +0000";
layers = (
{
layerId = "24D0D9E8-BA2F-4B13-8DB9-88CA40D3CAFC";
paths = (
{
closed = 1;
nodes = (
"82 -1 OFFCURVE",
"146 2 OFFCURVE",
"198 2 CURVE SMOOTH",
"225 2 OFFCURVE",
"249 1 OFFCURVE",
"270 -1 CURVE SMOOTH",
"295 -4 OFFCURVE",
"319 -5 OFFCURVE",
"342 -5 CURVE SMOOTH",
"450 -5 OFFCURVE",
"540 22 OFFCURVE",
"612 77 CURVE SMOOTH",
"643 100 OFFCURVE",
"668 135 OFFCURVE",
"689 181 CURVE SMOOTH",
"710 232 OFFCURVE",
"721 285 OFFCURVE",
"721 340 CURVE SMOOTH",
"721 407 OFFCURVE",
"705 466 OFFCURVE",
"673 517 CURVE SMOOTH",
"611 619 OFFCURVE",
"500 669 OFFCURVE",
"340 669 CURVE SMOOTH",
"304 669 OFFCURVE",
"263 667 OFFCURVE",
"220 662 CURVE SMOOTH",
"206 661 OFFCURVE",
"190 660 OFFCURVE",
"172 660 CURVE SMOOTH",
"136 660 OFFCURVE",
"94 663 OFFCURVE",
"44 668 CURVE",
"31 637 LINE",
"46 641 OFFCURVE",
"60 643 OFFCURVE",
"72 643 CURVE SMOOTH",
"91 643 OFFCURVE",
"107 638 OFFCURVE",
"117 628 CURVE SMOOTH",
"130 614 OFFCURVE",
"137 494 OFFCURVE",
"137 276 CURVE SMOOTH",
"137 161 OFFCURVE",
"134 91 OFFCURVE",
"128 65 CURVE SMOOTH",
"124 50 OFFCURVE",
"112 38 OFFCURVE",
"91 30 CURVE SMOOTH",
"76 23 OFFCURVE",
"59 20 OFFCURVE",
"38 20 CURVE SMOOTH",
"30 20 OFFCURVE",
"25 20 OFFCURVE",
"21 22 CURVE",
"6 -8 LINE"
);
},
{
closed = 1;
nodes = (
"316 284 OFFCURVE",
"324 294 OFFCURVE",
"332 310 CURVE SMOOTH",
"340 329 OFFCURVE",
"342 336 OFFCURVE",
"342 342 CURVE",
"338 342 LINE",
"338 344 OFFCURVE",
"338 344 OFFCURVE",
"337 345 CURVE",
"336 349 LINE",
"334 348 OFFCURVE",
"329 348 OFFCURVE",
"310 347 CURVE SMOOTH",
"273 344 LINE SMOOTH",
"245 342 OFFCURVE",
"222 340 OFFCURVE",
"202 340 CURVE SMOOTH",
"145 340 OFFCURVE",
"104 344 OFFCURVE",
"78 350 CURVE",
"70 353 OFFCURVE",
"63 343 OFFCURVE",
"55 327 CURVE SMOOTH",
"49 313 OFFCURVE",
"45 301 OFFCURVE",
"45 294 CURVE SMOOTH",
"45 290 OFFCURVE",
"47 288 OFFCURVE",
"50 288 CURVE SMOOTH",
"106 294 OFFCURVE",
"154 297 OFFCURVE",
"192 297 CURVE SMOOTH",
"246 297 OFFCURVE",
"284 293 OFFCURVE",
"309 286 CURVE SMOOTH"
);
},
{
closed = 1;
nodes = (
"281 28 OFFCURVE",
"239 44 OFFCURVE",
"225 77 CURVE",
"221 174 OFFCURVE",
"218 256 OFFCURVE",
"218 324 CURVE SMOOTH",
"217 357 OFFCURVE",
"217 387 OFFCURVE",
"217 415 CURVE SMOOTH",
"217 532 OFFCURVE",
"222 602 OFFCURVE",
"231 621 CURVE",
"238 629 OFFCURVE",
"267 634 OFFCURVE",
"318 634 CURVE SMOOTH",
"338 634 OFFCURVE",
"359 632 OFFCURVE",
"380 629 CURVE SMOOTH",
"445 620 OFFCURVE",
"499 591 OFFCURVE",
"545 541 CURVE SMOOTH",
"595 486 OFFCURVE",
"620 421 OFFCURVE",
"621 344 CURVE SMOOTH",
"624 231 OFFCURVE",
"599 147 OFFCURVE",
"545 96 CURVE SMOOTH",
"511 62 OFFCURVE",
"459 41 OFFCURVE",
"392 31 CURVE SMOOTH",
"380 29 OFFCURVE",
"367 28 OFFCURVE",
"352 28 CURVE SMOOTH"
);
}
);
width = 761;
}
);
note = Eth;
rightKerningGroup = D;
unicode = 00D0;
},
{
glyphname = E;
lastChange = "2021-11-03 23:18:53 +0000";
layers = (
{
background = {
paths = (
{
closed = 1;
nodes = (
"469 -11 OFFCURVE",
"482 -6 OFFCURVE",
"490 2 CURVE SMOOTH",
"498 9 OFFCURVE",
"504 24 OFFCURVE",
"508 42 CURVE SMOOTH",
"516 78 OFFCURVE",
"526 111 OFFCURVE",
"542 140 CURVE",
"519 149 LINE",
"520 139 OFFCURVE",
"511 119 OFFCURVE",
"496 97 CURVE SMOOTH",
"481 75 OFFCURVE",
"468 62 OFFCURVE",
"458 54 CURVE SMOOTH",
"436 39 OFFCURVE",
"392 31 OFFCURVE",
"325 31 CURVE SMOOTH",
"307 31 OFFCURVE",
"291 32 OFFCURVE",
"277 34 CURVE SMOOTH",
"247 38 OFFCURVE",
"224 42 OFFCURVE",
"216 45 CURVE SMOOTH",
"207 48 OFFCURVE",
"202 55 OFFCURVE",
"201 67 CURVE SMOOTH",
"199 79 OFFCURVE",
"199 96 OFFCURVE",
"199 119 CURVE SMOOTH",
"199 167 OFFCURVE",
"202 238 OFFCURVE",
"208 329 CURVE",
"218 330 OFFCURVE",
"231 330 OFFCURVE",
"245 330 CURVE SMOOTH",
"271 330 OFFCURVE",
"303 329 OFFCURVE",
"341 327 CURVE SMOOTH",
"378 326 OFFCURVE",
"397 312 OFFCURVE",
"395 287 CURVE",
"393 281 OFFCURVE",
"392 276 OFFCURVE",
"391 273 CURVE SMOOTH",
"389 266 LINE",
"393 261 LINE",
"417 267 LINE",
"417 282 OFFCURVE",
"417 291 OFFCURVE",
"418 294 CURVE",
"418 301 OFFCURVE",
"420 311 OFFCURVE",
"424 325 CURVE SMOOTH",
"429 340 OFFCURVE",
"431 349 OFFCURVE",
"432 354 CURVE",
"432 364 OFFCURVE",
"428 370 OFFCURVE",
"419 370 CURVE SMOOTH",
"211 368 LINE",
"220 495 OFFCURVE",
"230 582 OFFCURVE",
"242 619 CURVE",
"263 623 OFFCURVE",
"296 623 OFFCURVE",
"345 623 CURVE SMOOTH",
"367 623 OFFCURVE",
"384 622 OFFCURVE",
"396 621 CURVE SMOOTH",
"432 616 OFFCURVE",
"449 605 OFFCURVE",
"449 587 CURVE SMOOTH",
"449 580 OFFCURVE",
"441 557 OFFCURVE",
"428 527 CURVE",
"456 520 LINE",
"472 584 LINE",
"472 587 OFFCURVE",
"474 594 OFFCURVE",
"482 616 CURVE SMOOTH",
"489 636 OFFCURVE",
"490 645 OFFCURVE",
"490 652 CURVE SMOOTH",
"490 661 OFFCURVE",
"486 667 OFFCURVE",
"477 668 CURVE",
"193 665 LINE SMOOTH",
"135 666 OFFCURVE",
"90 669 OFFCURVE",
"56 674 CURVE",
"41 646 LINE",
"52 647 OFFCURVE",
"61 648 OFFCURVE",
"70 648 CURVE SMOOTH",
"99 648 OFFCURVE",
"117 642 OFFCURVE",
"127 630 CURVE SMOOTH",
"134 623 OFFCURVE",
"138 593 OFFCURVE",
"138 539 CURVE SMOOTH",
"138 517 OFFCURVE",
"137 491 OFFCURVE",
"136 462 CURVE SMOOTH",
"123 276 LINE SMOOTH",
"115 163 OFFCURVE",
"108 94 OFFCURVE",
"100 67 CURVE SMOOTH",
"94 51 OFFCURVE",
"81 39 OFFCURVE",
"60 31 CURVE SMOOTH",
"40 23 OFFCURVE",
"22 20 OFFCURVE",
"3 20 CURVE SMOOTH",
"-4 20 OFFCURVE",
"-9 22 OFFCURVE",
"-14 23 CURVE",
"-29 -8 LINE",
"60 0 OFFCURVE",
"111 3 OFFCURVE",
"129 4 CURVE SMOOTH",
"145 5 OFFCURVE",
"164 6 OFFCURVE",
"184 6 CURVE SMOOTH",
"203 6 OFFCURVE",
"287 1 OFFCURVE",
"436 -10 CURVE",
"441 -11 OFFCURVE",
"446 -11 OFFCURVE",
"450 -11 CURVE SMOOTH"
);
}
);
};
layerId = "24D0D9E8-BA2F-4B13-8DB9-88CA40D3CAFC";
paths = (
{
closed = 1;
nodes = (
"469 -11 OFFCURVE",
"482 -6 OFFCURVE",
"490 2 CURVE SMOOTH",
"498 9 OFFCURVE",
"504 24 OFFCURVE",
"508 42 CURVE SMOOTH",
"516 78 OFFCURVE",
"526 111 OFFCURVE",
"542 140 CURVE",
"519 149 LINE",
"520 139 OFFCURVE",
"511 119 OFFCURVE",
"496 97 CURVE SMOOTH",
"481 75 OFFCURVE",
"468 62 OFFCURVE",
"458 54 CURVE SMOOTH",
"436 39 OFFCURVE",
"392 31 OFFCURVE",
"325 31 CURVE SMOOTH",
"307 31 OFFCURVE",
"291 32 OFFCURVE",
"277 34 CURVE SMOOTH",
"247 38 OFFCURVE",
"224 42 OFFCURVE",
"216 45 CURVE SMOOTH",
"207 48 OFFCURVE",
"202 55 OFFCURVE",
"201 67 CURVE SMOOTH",
"199 79 OFFCURVE",
"199 96 OFFCURVE",
"199 119 CURVE SMOOTH",
"199 167 OFFCURVE",
"202 238 OFFCURVE",
"208 329 CURVE",
"218 330 OFFCURVE",
"231 330 OFFCURVE",
"245 330 CURVE SMOOTH",
"271 330 OFFCURVE",
"303 329 OFFCURVE",
"341 327 CURVE SMOOTH",
"378 326 OFFCURVE",
"397 312 OFFCURVE",
"395 287 CURVE",
"393 281 OFFCURVE",
"392 276 OFFCURVE",
"391 273 CURVE SMOOTH",
"389 266 LINE",
"393 261 LINE",
"417 267 LINE",
"417 282 OFFCURVE",
"417 291 OFFCURVE",
"418 294 CURVE",
"418 301 OFFCURVE",
"420 311 OFFCURVE",
"424 325 CURVE SMOOTH",
"429 340 OFFCURVE",
"431 349 OFFCURVE",
"432 354 CURVE",
"432 364 OFFCURVE",
"428 370 OFFCURVE",
"419 370 CURVE SMOOTH",
"211 368 LINE",
"220 495 OFFCURVE",
"230 582 OFFCURVE",
"242 619 CURVE",
"263 623 OFFCURVE",
"296 623 OFFCURVE",
"345 623 CURVE SMOOTH",
"367 623 OFFCURVE",
"384 622 OFFCURVE",
"396 621 CURVE SMOOTH",
"432 616 OFFCURVE",
"449 605 OFFCURVE",
"449 587 CURVE SMOOTH",
"449 580 OFFCURVE",
"441 557 OFFCURVE",
"428 527 CURVE",
"456 520 LINE",
"472 584 LINE",
"472 587 OFFCURVE",
"474 594 OFFCURVE",
"482 616 CURVE SMOOTH",
"489 636 OFFCURVE",
"490 645 OFFCURVE",
"490 652 CURVE SMOOTH",
"490 661 OFFCURVE",
"486 667 OFFCURVE",
"477 668 CURVE",
"193 665 LINE SMOOTH",
"135 666 OFFCURVE",
"90 669 OFFCURVE",
"56 674 CURVE",
"41 646 LINE",
"52 647 OFFCURVE",
"61 648 OFFCURVE",
"70 648 CURVE SMOOTH",
"99 648 OFFCURVE",
"117 642 OFFCURVE",
"127 630 CURVE SMOOTH",
"134 623 OFFCURVE",
"138 593 OFFCURVE",
"138 539 CURVE SMOOTH",
"138 517 OFFCURVE",
"137 491 OFFCURVE",
"136 462 CURVE SMOOTH",
"123 276 LINE SMOOTH",
"115 163 OFFCURVE",
"108 94 OFFCURVE",
"100 67 CURVE SMOOTH",
"94 51 OFFCURVE",
"81 39 OFFCURVE",
"60 31 CURVE SMOOTH",
"40 23 OFFCURVE",
"22 20 OFFCURVE",
"3 20 CURVE SMOOTH",
"-4 20 OFFCURVE",
"-9 22 OFFCURVE",
"-14 23 CURVE",
"-29 -8 LINE",
"60 0 OFFCURVE",
"111 3 OFFCURVE",
"129 4 CURVE SMOOTH",
"145 5 OFFCURVE",
"164 6 OFFCURVE",
"184 6 CURVE SMOOTH",
"203 6 OFFCURVE",
"287 1 OFFCURVE",
"436 -10 CURVE",
"441 -11 OFFCURVE",
"446 -11 OFFCURVE",
"450 -11 CURVE SMOOTH"
);
}
);
width = 593;
}
);
leftKerningGroup = E;
note = E;
rightKerningGroup = E;
unicode = 0045;
},
{
glyphname = F;
lastChange = "2021-11-03 23:18:53 +0000";
layers = (
{
background = {
paths = (
{
closed = 1;
nodes = (
"57 0 OFFCURVE",
"115 3 OFFCURVE",
"142 3 CURVE SMOOTH",
"224 4 OFFCURVE",
"275 1 OFFCURVE",
"297 -8 CURVE",
"315 25 LINE",
"308 24 OFFCURVE",
"300 23 OFFCURVE",
"291 23 CURVE SMOOTH",
"277 23 OFFCURVE",
"261 25 OFFCURVE",
"243 30 CURVE SMOOTH",
"216 39 OFFCURVE",
"203 51 OFFCURVE",
"202 67 CURVE SMOOTH",
"200 89 OFFCURVE",
"198 113 OFFCURVE",
"198 141 CURVE SMOOTH",
"198 152 OFFCURVE",
"198 163 OFFCURVE",
"199 175 CURVE SMOOTH",
"205 284 LINE",
"207 329 LINE",
"218 329 OFFCURVE",
"231 330 OFFCURVE",
"246 330 CURVE SMOOTH",
"272 330 OFFCURVE",
"304 329 OFFCURVE",
"341 327 CURVE SMOOTH",
"383 324 OFFCURVE",
"402 312 OFFCURVE",
"399 291 CURVE",
"399 286 OFFCURVE",
"396 279 OFFCURVE",
"391 269 CURVE",
"420 264 LINE",
"422 277 OFFCURVE",
"422 286 OFFCURVE",
"422 290 CURVE SMOOTH",
"422 293 LINE SMOOTH",
"422 300 OFFCURVE",
"425 310 OFFCURVE",
"429 324 CURVE SMOOTH",
"433 335 OFFCURVE",
"435 347 OFFCURVE",
"436 353 CURVE",
"436 363 OFFCURVE",
"432 369 OFFCURVE",
"423 369 CURVE SMOOTH",
"210 367 LINE",
"220 497 OFFCURVE",
"231 582 OFFCURVE",
"241 618 CURVE",
"259 620 OFFCURVE",
"294 622 OFFCURVE",
"347 623 CURVE SMOOTH",
"401 623 OFFCURVE",
"435 622 OFFCURVE",
"451 620 CURVE SMOOTH",
"483 616 OFFCURVE",
"499 605 OFFCURVE",
"498 586 CURVE SMOOTH",
"498 583 LINE",
"495 570 OFFCURVE",
"488 551 OFFCURVE",
"478 527 CURVE",
"506 520 LINE",
"521 583 LINE SMOOTH",
"522 588 OFFCURVE",
"526 599 OFFCURVE",
"533 617 CURVE SMOOTH",
"539 634 OFFCURVE",
"542 646 OFFCURVE",
"542 653 CURVE SMOOTH",
"542 661 OFFCURVE",
"538 666 OFFCURVE",
"530 668 CURVE",
"413 667 OFFCURVE",
"300 666 OFFCURVE",
"192 664 CURVE SMOOTH",
"150 665 OFFCURVE",
"104 668 OFFCURVE",
"56 673 CURVE",
"40 643 LINE",
"46 645 OFFCURVE",
"54 646 OFFCURVE",
"66 646 CURVE SMOOTH",
"72 646 OFFCURVE",
"79 646 OFFCURVE",
"87 645 CURVE SMOOTH",
"108 642 OFFCURVE",
"120 637 OFFCURVE",
"128 629 CURVE SMOOTH",
"135 621 OFFCURVE",
"139 592 OFFCURVE",
"139 541 CURVE SMOOTH",
"139 496 OFFCURVE",
"136 434 OFFCURVE",
"130 355 CURVE SMOOTH",
"121 241 LINE SMOOTH",
"115 158 OFFCURVE",
"107 97 OFFCURVE",
"98 67 CURVE SMOOTH",
"92 50 OFFCURVE",
"79 39 OFFCURVE",
"59 31 CURVE SMOOTH",
"40 23 OFFCURVE",
"22 20 OFFCURVE",
"4 20 CURVE SMOOTH",
"-3 20 OFFCURVE",
"-8 21 OFFCURVE",
"-14 23 CURVE",
"-30 -8 LINE"
);
}
);
};
layerId = "24D0D9E8-BA2F-4B13-8DB9-88CA40D3CAFC";
paths = (
{
closed = 1;
nodes = (
"57 0 OFFCURVE",
"115 3 OFFCURVE",
"142 3 CURVE SMOOTH",
"224 4 OFFCURVE",
"275 1 OFFCURVE",
"297 -8 CURVE",
"315 25 LINE",
"308 24 OFFCURVE",
"300 23 OFFCURVE",
"291 23 CURVE SMOOTH",
"277 23 OFFCURVE",
"261 25 OFFCURVE",
"243 30 CURVE SMOOTH",
"216 39 OFFCURVE",
"203 51 OFFCURVE",
"202 67 CURVE SMOOTH",
"200 89 OFFCURVE",
"198 113 OFFCURVE",
"198 141 CURVE SMOOTH",
"198 152 OFFCURVE",
"198 163 OFFCURVE",
"199 175 CURVE SMOOTH",
"205 284 LINE",
"207 329 LINE",
"218 329 OFFCURVE",
"231 330 OFFCURVE",
"246 330 CURVE SMOOTH",
"272 330 OFFCURVE",
"304 329 OFFCURVE",
"341 327 CURVE SMOOTH",
"383 324 OFFCURVE",
"402 312 OFFCURVE",
"399 291 CURVE",
"399 286 OFFCURVE",
"396 279 OFFCURVE",
"391 269 CURVE",
"420 264 LINE",
"422 277 OFFCURVE",
"422 286 OFFCURVE",
"422 290 CURVE SMOOTH",
"422 293 LINE SMOOTH",
"422 300 OFFCURVE",
"425 310 OFFCURVE",
"429 324 CURVE SMOOTH",
"433 335 OFFCURVE",
"435 347 OFFCURVE",
"436 353 CURVE",
"436 363 OFFCURVE",
"432 369 OFFCURVE",
"423 369 CURVE SMOOTH",
"210 367 LINE",
"220 497 OFFCURVE",
"231 582 OFFCURVE",
"241 618 CURVE",
"259 620 OFFCURVE",
"294 622 OFFCURVE",
"347 623 CURVE SMOOTH",
"401 623 OFFCURVE",
"435 622 OFFCURVE",
"451 620 CURVE SMOOTH",
"483 616 OFFCURVE",
"499 605 OFFCURVE",
"498 586 CURVE SMOOTH",
"498 583 LINE",
"495 570 OFFCURVE",
"488 551 OFFCURVE",
"478 527 CURVE",
"506 520 LINE",
"521 583 LINE SMOOTH",
"522 588 OFFCURVE",
"526 599 OFFCURVE",
"533 617 CURVE SMOOTH",
"539 634 OFFCURVE",
"542 646 OFFCURVE",
"542 653 CURVE SMOOTH",
"542 661 OFFCURVE",
"538 666 OFFCURVE",
"530 668 CURVE",
"413 667 OFFCURVE",
"300 666 OFFCURVE",
"192 664 CURVE SMOOTH",
"150 665 OFFCURVE",
"104 668 OFFCURVE",
"56 673 CURVE",
"40 643 LINE",
"46 645 OFFCURVE",
"54 646 OFFCURVE",
"66 646 CURVE SMOOTH",
"72 646 OFFCURVE",
"79 646 OFFCURVE",
"87 645 CURVE SMOOTH",
"108 642 OFFCURVE",
"120 637 OFFCURVE",
"128 629 CURVE SMOOTH",
"135 621 OFFCURVE",
"139 592 OFFCURVE",
"139 541 CURVE SMOOTH",
"139 496 OFFCURVE",
"136 434 OFFCURVE",
"130 355 CURVE SMOOTH",
"121 241 LINE SMOOTH",
"115 158 OFFCURVE",
"107 97 OFFCURVE",
"98 67 CURVE SMOOTH",
"92 50 OFFCURVE",
"79 39 OFFCURVE",
"59 31 CURVE SMOOTH",
"40 23 OFFCURVE",
"22 20 OFFCURVE",
"4 20 CURVE SMOOTH",
"-3 20 OFFCURVE",
"-8 21 OFFCURVE",
"-14 23 CURVE",
"-30 -8 LINE"
);
}
);
width = 559;
}
);
leftKerningGroup = D;
note = F;
unicode = 0046;
},
{
glyphname = G;
lastChange = "2021-11-03 23:18:53 +0000";
layers = (
{
background = {
paths = (
{
closed = 1;
nodes = (
"447 -6 OFFCURVE",
"495 -2 OFFCURVE",
"548 5 CURVE SMOOTH",
"599 12 OFFCURVE",
"633 16 OFFCURVE",
"647 16 CURVE SMOOTH",
"658 16 OFFCURVE",
"666 15 OFFCURVE",
"677 14 CURVE",
"681 24 LINE",
"677 36 OFFCURVE",
"675 57 OFFCURVE",
"675 84 CURVE SMOOTH",
"675 100 OFFCURVE",
"676 118 OFFCURVE",
"677 138 CURVE SMOOTH",
"679 189 OFFCURVE",
"683 228 OFFCURVE",
"689 253 CURVE SMOOTH",
"696 285 OFFCURVE",
"716 300 OFFCURVE",
"751 298 CURVE",
"758 327 LINE",
"725 315 OFFCURVE",
"676 307 OFFCURVE",
"612 307 CURVE SMOOTH",
"567 307 OFFCURVE",
"528 310 OFFCURVE",
"496 317 CURVE",
"489 287 LINE",
"497 288 OFFCURVE",
"505 288 OFFCURVE",
"513 288 CURVE SMOOTH",
"537 288 OFFCURVE",
"561 285 OFFCURVE",
"585 277 CURVE SMOOTH",
"595 274 OFFCURVE",
"601 251 OFFCURVE",
"601 211 CURVE SMOOTH",
"601 198 OFFCURVE",
"600 184 OFFCURVE",
"599 168 CURVE SMOOTH",
"595 116 OFFCURVE",
"590 75 OFFCURVE",
"582 47 CURVE",
"538 38 OFFCURVE",
"496 34 OFFCURVE",
"457 34 CURVE SMOOTH",
"390 34 OFFCURVE",
"334 46 OFFCURVE",
"288 70 CURVE SMOOTH",
"233 97 OFFCURVE",
"194 139 OFFCURVE",
"168 195 CURVE SMOOTH",
"149 237 OFFCURVE",
"140 283 OFFCURVE",
"140 333 CURVE SMOOTH",
"140 342 OFFCURVE",
"140 352 OFFCURVE",
"141 361 CURVE SMOOTH",
"148 452 OFFCURVE",
"176 519 OFFCURVE",
"228 563 CURVE SMOOTH",
"277 604 OFFCURVE",
"343 625 OFFCURVE",
"425 625 CURVE SMOOTH",
"486 625 OFFCURVE",
"536 616 OFFCURVE",
"575 599 CURVE SMOOTH",
"607 587 OFFCURVE",
"629 571 OFFCURVE",
"641 555 CURVE SMOOTH",
"652 539 OFFCURVE",
"656 518 OFFCURVE",
"654 491 CURVE SMOOTH",
"654 483 OFFCURVE",
"653 474 OFFCURVE",
"651 465 CURVE",
"668 461 LINE",
"673 467 LINE",
"673 471 LINE SMOOTH",
"675 494 OFFCURVE",
"681 521 OFFCURVE",
"692 556 CURVE SMOOTH",
"705 598 OFFCURVE",
"717 616 OFFCURVE",
"726 611 CURVE",
"731 625 LINE",
"649 657 OFFCURVE",
"560 672 OFFCURVE",
"463 672 CURVE SMOOTH",
"433 672 LINE SMOOTH",
"328 669 OFFCURVE",
"241 640 OFFCURVE",
"170 585 CURVE SMOOTH",
"95 526 OFFCURVE",
"53 446 OFFCURVE",
"46 345 CURVE SMOOTH",
"45 327 OFFCURVE",
"46 309 OFFCURVE",
"46 290 CURVE SMOOTH",
"53 177 OFFCURVE",
"98 96 OFFCURVE",
"180 47 CURVE SMOOTH",
"241 11 OFFCURVE",
"316 -6 OFFCURVE",
"405 -6 CURVE SMOOTH"
);
}
);
};
layerId = "24D0D9E8-BA2F-4B13-8DB9-88CA40D3CAFC";
paths = (
{
closed = 1;
nodes = (
"447 -6 OFFCURVE",
"495 -2 OFFCURVE",
"548 5 CURVE SMOOTH",
"599 12 OFFCURVE",
"633 16 OFFCURVE",
"647 16 CURVE SMOOTH",
"658 16 OFFCURVE",
"666 15 OFFCURVE",
"677 14 CURVE",
"681 24 LINE",
"677 36 OFFCURVE",
"675 57 OFFCURVE",
"675 84 CURVE SMOOTH",
"675 100 OFFCURVE",
"676 118 OFFCURVE",
"677 138 CURVE SMOOTH",
"679 189 OFFCURVE",
"683 228 OFFCURVE",
"689 253 CURVE SMOOTH",
"696 285 OFFCURVE",
"716 300 OFFCURVE",
"751 298 CURVE",
"758 327 LINE",
"725 315 OFFCURVE",
"676 307 OFFCURVE",
"612 307 CURVE SMOOTH",
"567 307 OFFCURVE",
"528 310 OFFCURVE",
"496 317 CURVE",
"489 287 LINE",
"497 288 OFFCURVE",
"505 288 OFFCURVE",
"513 288 CURVE SMOOTH",
"537 288 OFFCURVE",
"561 285 OFFCURVE",
"585 277 CURVE SMOOTH",
"595 274 OFFCURVE",
"601 251 OFFCURVE",
"601 211 CURVE SMOOTH",
"601 198 OFFCURVE",
"600 184 OFFCURVE",
"599 168 CURVE SMOOTH",
"595 116 OFFCURVE",
"590 75 OFFCURVE",
"582 47 CURVE",
"538 38 OFFCURVE",
"496 34 OFFCURVE",
"457 34 CURVE SMOOTH",
"390 34 OFFCURVE",
"334 46 OFFCURVE",
"288 70 CURVE SMOOTH",
"233 97 OFFCURVE",
"194 139 OFFCURVE",
"168 195 CURVE SMOOTH",
"149 237 OFFCURVE",
"140 283 OFFCURVE",
"140 333 CURVE SMOOTH",
"140 342 OFFCURVE",
"140 352 OFFCURVE",
"141 361 CURVE SMOOTH",
"148 452 OFFCURVE",
"176 519 OFFCURVE",
"228 563 CURVE SMOOTH",
"277 604 OFFCURVE",
"343 625 OFFCURVE",
"425 625 CURVE SMOOTH",
"486 625 OFFCURVE",
"536 616 OFFCURVE",
"575 599 CURVE SMOOTH",
"607 587 OFFCURVE",
"629 571 OFFCURVE",
"641 555 CURVE SMOOTH",
"652 539 OFFCURVE",
"656 518 OFFCURVE",
"654 491 CURVE SMOOTH",
"654 483 OFFCURVE",
"653 474 OFFCURVE",
"651 465 CURVE",
"668 461 LINE",
"673 467 LINE",
"673 471 LINE SMOOTH",
"675 494 OFFCURVE",
"681 521 OFFCURVE",
"692 556 CURVE SMOOTH",
"705 598 OFFCURVE",
"717 616 OFFCURVE",
"726 611 CURVE",
"731 625 LINE",
"649 657 OFFCURVE",
"560 672 OFFCURVE",
"463 672 CURVE SMOOTH",
"433 672 LINE SMOOTH",
"328 669 OFFCURVE",
"241 640 OFFCURVE",
"170 585 CURVE SMOOTH",
"95 526 OFFCURVE",
"53 446 OFFCURVE",
"46 345 CURVE SMOOTH",
"45 327 OFFCURVE",
"46 309 OFFCURVE",
"46 290 CURVE SMOOTH",
"53 177 OFFCURVE",
"98 96 OFFCURVE",
"180 47 CURVE SMOOTH",
"241 11 OFFCURVE",
"316 -6 OFFCURVE",
"405 -6 CURVE SMOOTH"
);
}
);
width = 821;
}
);
note = G;
unicode = 0047;
},
{
glyphname = H;
lastChange = "2021-11-03 23:18:53 +0000";
layers = (
{
background = {
paths = (
{
closed = 1;
nodes = (
"333 25 LINE",
"323 23 OFFCURVE",
"313 23 OFFCURVE",
"304 23 CURVE SMOOTH",
"289 23 OFFCURVE",
"275 25 OFFCURVE",
"261 29 CURVE SMOOTH",
"234 37 OFFCURVE",
"222 48 OFFCURVE",
"221 65 CURVE SMOOTH",
"220 76 OFFCURVE",
"219 93 OFFCURVE",
"219 115 CURVE SMOOTH",
"219 153 OFFCURVE",
"221 207 OFFCURVE",
"224 278 CURVE SMOOTH",
"227 321 LINE",
"302 324 OFFCURVE",
"350 326 OFFCURVE",
"374 326 CURVE SMOOTH",
"653 326 LINE",
"652 321 OFFCURVE",
"652 312 OFFCURVE",
"650 299 CURVE SMOOTH",
"649 279 LINE SMOOTH",
"641 169 OFFCURVE",
"632 98 OFFCURVE",
"622 65 CURVE SMOOTH",
"613 35 OFFCURVE",
"583 20 OFFCURVE",
"530 20 CURVE SMOOTH",
"522 20 OFFCURVE",
"516 21 OFFCURVE",
"510 23 CURVE",
"495 -7 LINE",
"666 5 LINE",
"755 2 OFFCURVE",
"807 -3 OFFCURVE",
"819 -8 CURVE",
"839 25 LINE",
"829 23 OFFCURVE",
"819 23 OFFCURVE",
"810 23 CURVE SMOOTH",
"795 23 OFFCURVE",
"781 25 OFFCURVE",
"767 29 CURVE SMOOTH",
"740 37 OFFCURVE",
"728 48 OFFCURVE",
"727 65 CURVE SMOOTH",
"725 76 OFFCURVE",
"725 93 OFFCURVE",
"725 117 CURVE SMOOTH",
"725 154 OFFCURVE",
"727 208 OFFCURVE",
"729 278 CURVE SMOOTH",
"734 361 OFFCURVE",
"741 438 OFFCURVE",
"749 508 CURVE SMOOTH",
"756 571 OFFCURVE",
"763 613 OFFCURVE",
"770 627 CURVE",
"784 642 OFFCURVE",
"804 649 OFFCURVE",
"829 649 CURVE SMOOTH",
"835 649 OFFCURVE",
"841 649 OFFCURVE",
"847 648 CURVE",
"870 675 LINE",
"824 671 OFFCURVE",
"773 666 OFFCURVE",
"717 664 CURVE",
"647 667 OFFCURVE",
"601 670 OFFCURVE",
"582 673 CURVE",
"565 643 LINE",
"581 647 OFFCURVE",
"595 649 OFFCURVE",
"607 649 CURVE SMOOTH",
"627 649 OFFCURVE",
"642 644 OFFCURVE",
"654 634 CURVE",
"660 626 OFFCURVE",
"663 595 OFFCURVE",
"663 543 CURVE SMOOTH",
"663 499 OFFCURVE",
"661 441 OFFCURVE",
"656 370 CURVE",
"640 370 OFFCURVE",
"609 369 OFFCURVE",
"561 367 CURVE SMOOTH",
"549 366 OFFCURVE",
"535 366 OFFCURVE",
"520 365 CURVE SMOOTH",
"498 364 OFFCURVE",
"478 364 OFFCURVE",
"460 363 CURVE SMOOTH",
"423 362 OFFCURVE",
"396 361 OFFCURVE",
"376 361 CURVE SMOOTH",
"360 361 OFFCURVE",
"335 363 OFFCURVE",
"299 366 CURVE SMOOTH",
"286 367 OFFCURVE",
"275 368 OFFCURVE",
"266 368 CURVE SMOOTH",
"248 370 OFFCURVE",
"237 371 OFFCURVE",
"230 371 CURVE",
"240 514 OFFCURVE",
"252 602 OFFCURVE",
"264 627 CURVE",
"279 642 OFFCURVE",
"298 649 OFFCURVE",
"323 649 CURVE SMOOTH",
"329 649 OFFCURVE",
"335 649 OFFCURVE",
"341 648 CURVE",
"364 675 LINE",
"318 671 OFFCURVE",
"267 666 OFFCURVE",
"211 664 CURVE",
"141 667 OFFCURVE",
"96 670 OFFCURVE",
"76 673 CURVE",
"60 643 LINE",
"75 647 OFFCURVE",
"89 649 OFFCURVE",
"101 649 CURVE SMOOTH",
"121 649 OFFCURVE",
"136 644 OFFCURVE",
"148 634 CURVE",
"153 628 OFFCURVE",
"156 600 OFFCURVE",
"156 550 CURVE SMOOTH",
"156 491 OFFCURVE",
"152 400 OFFCURVE",
"144 279 CURVE SMOOTH",
"136 170 OFFCURVE",
"127 97 OFFCURVE",
"118 67 CURVE SMOOTH",
"113 51 OFFCURVE",
"100 39 OFFCURVE",
"78 31 CURVE SMOOTH",
"60 24 OFFCURVE",
"42 20 OFFCURVE",
"21 20 CURVE SMOOTH",
"14 20 OFFCURVE",
"9 22 OFFCURVE",
"4 23 CURVE",
"-11 -7 LINE",
"160 5 LINE",
"248 2 OFFCURVE",
"301 -2 OFFCURVE",
"315 -8 CURVE"
);
}
);
};
layerId = "24D0D9E8-BA2F-4B13-8DB9-88CA40D3CAFC";
paths = (
{
closed = 1;
nodes = (
"333 25 LINE",
"323 23 OFFCURVE",
"313 23 OFFCURVE",
"304 23 CURVE SMOOTH",
"289 23 OFFCURVE",
"275 25 OFFCURVE",
"261 29 CURVE SMOOTH",
"234 37 OFFCURVE",
"222 48 OFFCURVE",
"221 65 CURVE SMOOTH",
"220 76 OFFCURVE",
"219 93 OFFCURVE",
"219 115 CURVE SMOOTH",
"219 153 OFFCURVE",
"221 207 OFFCURVE",
"224 278 CURVE SMOOTH",
"227 321 LINE",
"302 324 OFFCURVE",
"350 326 OFFCURVE",
"374 326 CURVE SMOOTH",
"653 326 LINE",
"652 321 OFFCURVE",
"652 312 OFFCURVE",
"650 299 CURVE SMOOTH",
"649 279 LINE SMOOTH",
"641 169 OFFCURVE",
"632 98 OFFCURVE",
"622 65 CURVE SMOOTH",
"613 35 OFFCURVE",
"583 20 OFFCURVE",
"530 20 CURVE SMOOTH",
"522 20 OFFCURVE",
"516 21 OFFCURVE",
"510 23 CURVE",
"495 -7 LINE",
"666 5 LINE",
"755 2 OFFCURVE",
"807 -3 OFFCURVE",
"819 -8 CURVE",
"839 25 LINE",
"829 23 OFFCURVE",
"819 23 OFFCURVE",
"810 23 CURVE SMOOTH",
"795 23 OFFCURVE",
"781 25 OFFCURVE",
"767 29 CURVE SMOOTH",
"740 37 OFFCURVE",
"728 48 OFFCURVE",
"727 65 CURVE SMOOTH",
"725 76 OFFCURVE",
"725 93 OFFCURVE",
"725 117 CURVE SMOOTH",
"725 154 OFFCURVE",
"727 208 OFFCURVE",
"729 278 CURVE SMOOTH",
"734 361 OFFCURVE",
"741 438 OFFCURVE",
"749 508 CURVE SMOOTH",
"756 571 OFFCURVE",
"763 613 OFFCURVE",
"770 627 CURVE",
"784 642 OFFCURVE",
"804 649 OFFCURVE",
"829 649 CURVE SMOOTH",
"835 649 OFFCURVE",
"841 649 OFFCURVE",
"847 648 CURVE",
"870 675 LINE",
"824 671 OFFCURVE",
"773 666 OFFCURVE",
"717 664 CURVE",
"647 667 OFFCURVE",
"601 670 OFFCURVE",
"582 673 CURVE",
"565 643 LINE",
"581 647 OFFCURVE",
"595 649 OFFCURVE",
"607 649 CURVE SMOOTH",
"627 649 OFFCURVE",
"642 644 OFFCURVE",
"654 634 CURVE",
"660 626 OFFCURVE",
"663 595 OFFCURVE",
"663 543 CURVE SMOOTH",
"663 499 OFFCURVE",
"661 441 OFFCURVE",
"656 370 CURVE",
"640 370 OFFCURVE",
"609 369 OFFCURVE",
"561 367 CURVE SMOOTH",
"549 366 OFFCURVE",
"535 366 OFFCURVE",
"520 365 CURVE SMOOTH",
"498 364 OFFCURVE",
"478 364 OFFCURVE",
"460 363 CURVE SMOOTH",
"423 362 OFFCURVE",
"396 361 OFFCURVE",
"376 361 CURVE SMOOTH",
"360 361 OFFCURVE",
"335 363 OFFCURVE",
"299 366 CURVE SMOOTH",
"286 367 OFFCURVE",
"275 368 OFFCURVE",
"266 368 CURVE SMOOTH",
"248 370 OFFCURVE",
"237 371 OFFCURVE",
"230 371 CURVE",
"240 514 OFFCURVE",
"252 602 OFFCURVE",
"264 627 CURVE",
"279 642 OFFCURVE",
"298 649 OFFCURVE",
"323 649 CURVE SMOOTH",
"329 649 OFFCURVE",
"335 649 OFFCURVE",
"341 648 CURVE",
"364 675 LINE",
"318 671 OFFCURVE",
"267 666 OFFCURVE",
"211 664 CURVE",
"141 667 OFFCURVE",
"96 670 OFFCURVE",
"76 673 CURVE",
"60 643 LINE",
"75 647 OFFCURVE",
"89 649 OFFCURVE",
"101 649 CURVE SMOOTH",
"121 649 OFFCURVE",
"136 644 OFFCURVE",
"148 634 CURVE",
"153 628 OFFCURVE",
"156 600 OFFCURVE",
"156 550 CURVE SMOOTH",
"156 491 OFFCURVE",
"152 400 OFFCURVE",
"144 279 CURVE SMOOTH",
"136 170 OFFCURVE",
"127 97 OFFCURVE",
"118 67 CURVE SMOOTH",
"113 51 OFFCURVE",
"100 39 OFFCURVE",
"78 31 CURVE SMOOTH",
"60 24 OFFCURVE",
"42 20 OFFCURVE",
"21 20 CURVE SMOOTH",
"14 20 OFFCURVE",
"9 22 OFFCURVE",
"4 23 CURVE",
"-11 -7 LINE",
"160 5 LINE",
"248 2 OFFCURVE",
"301 -2 OFFCURVE",
"315 -8 CURVE"
);
}
);
width = 873;
}
);
leftKerningGroup = H;
note = H;
unicode = 0048;
},
{
glyphname = I;
lastChange = "2021-11-03 23:18:53 +0000";
layers = (
{
background = {
paths = (
{
closed = 1;
nodes = (
"353 25 LINE",
"344 23 OFFCURVE",
"335 23 OFFCURVE",
"326 23 CURVE SMOOTH",
"312 23 OFFCURVE",
"297 25 OFFCURVE",
"282 29 CURVE SMOOTH",
"255 37 OFFCURVE",
"243 48 OFFCURVE",
"242 65 CURVE SMOOTH",
"241 75 OFFCURVE",
"240 92 OFFCURVE",
"240 114 CURVE SMOOTH",
"240 153 OFFCURVE",
"242 209 OFFCURVE",
"245 283 CURVE SMOOTH",
"256 486 OFFCURVE",
"269 596 OFFCURVE",
"285 624 CURVE",
"298 639 OFFCURVE",
"318 647 OFFCURVE",
"344 647 CURVE SMOOTH",
"350 647 OFFCURVE",
"355 647 OFFCURVE",
"361 646 CURVE",
"385 675 LINE",
"339 671 OFFCURVE",
"288 666 OFFCURVE",
"232 664 CURVE",
"161 667 OFFCURVE",
"116 670 OFFCURVE",
"97 673 CURVE",
"80 641 LINE",
"96 645 OFFCURVE",
"110 647 OFFCURVE",
"122 647 CURVE SMOOTH",
"142 647 OFFCURVE",
"157 642 OFFCURVE",
"168 632 CURVE",
"173 626 OFFCURVE",
"176 598 OFFCURVE",
"176 549 CURVE SMOOTH",
"176 490 OFFCURVE",
"172 401 OFFCURVE",
"164 284 CURVE SMOOTH",
"156 171 OFFCURVE",
"147 98 OFFCURVE",
"137 65 CURVE SMOOTH",
"128 35 OFFCURVE",
"98 20 OFFCURVE",
"45 20 CURVE SMOOTH",
"37 20 OFFCURVE",
"31 21 OFFCURVE",
"25 23 CURVE",
"10 -7 LINE",
"181 5 LINE",
"270 2 OFFCURVE",
"323 -3 OFFCURVE",
"335 -8 CURVE"
);
}
);
};
layerId = "24D0D9E8-BA2F-4B13-8DB9-88CA40D3CAFC";
paths = (
{
closed = 1;
nodes = (
"353 25 LINE",
"344 23 OFFCURVE",
"335 23 OFFCURVE",
"326 23 CURVE SMOOTH",
"312 23 OFFCURVE",
"297 25 OFFCURVE",
"282 29 CURVE SMOOTH",
"255 37 OFFCURVE",
"243 48 OFFCURVE",
"242 65 CURVE SMOOTH",
"241 75 OFFCURVE",
"240 92 OFFCURVE",
"240 114 CURVE SMOOTH",
"240 153 OFFCURVE",
"242 209 OFFCURVE",
"245 283 CURVE SMOOTH",
"256 486 OFFCURVE",
"269 596 OFFCURVE",
"285 624 CURVE",
"298 639 OFFCURVE",
"318 647 OFFCURVE",
"344 647 CURVE SMOOTH",
"350 647 OFFCURVE",
"355 647 OFFCURVE",
"361 646 CURVE",
"385 675 LINE",
"339 671 OFFCURVE",
"288 666 OFFCURVE",
"232 664 CURVE",
"161 667 OFFCURVE",
"116 670 OFFCURVE",
"97 673 CURVE",
"80 641 LINE",
"96 645 OFFCURVE",
"110 647 OFFCURVE",
"122 647 CURVE SMOOTH",
"142 647 OFFCURVE",
"157 642 OFFCURVE",
"168 632 CURVE",
"173 626 OFFCURVE",
"176 598 OFFCURVE",
"176 549 CURVE SMOOTH",
"176 490 OFFCURVE",
"172 401 OFFCURVE",
"164 284 CURVE SMOOTH",
"156 171 OFFCURVE",
"147 98 OFFCURVE",
"137 65 CURVE SMOOTH",
"128 35 OFFCURVE",
"98 20 OFFCURVE",
"45 20 CURVE SMOOTH",
"37 20 OFFCURVE",
"31 21 OFFCURVE",
"25 23 CURVE",
"10 -7 LINE",
"181 5 LINE",
"270 2 OFFCURVE",
"323 -3 OFFCURVE",
"335 -8 CURVE"
);
}
);
width = 426;
}
);
leftKerningGroup = D;
note = I;
rightKerningGroup = I;
unicode = 0049;
},
{
glyphname = J;
lastChange = "2021-11-03 23:18:53 +0000";
layers = (
{
background = {
paths = (
{
closed = 1;
nodes = (
"184 -20 OFFCURVE",
"222 -5 OFFCURVE",
"247 24 CURVE SMOOTH",
"270 51 OFFCURVE",
"286 98 OFFCURVE",
"294 164 CURVE",
"294 170 OFFCURVE",
"294 176 OFFCURVE",
"295 182 CURVE",
"301 309 LINE SMOOTH",
"302 377 OFFCURVE",
"305 429 OFFCURVE",
"308 466 CURVE SMOOTH",
"314 555 OFFCURVE",
"324 610 OFFCURVE",
"335 627 CURVE",
"348 642 OFFCURVE",
"368 649 OFFCURVE",
"393 649 CURVE SMOOTH",
"399 649 OFFCURVE",
"405 649 OFFCURVE",
"411 648 CURVE",
"435 675 LINE",
"390 671 OFFCURVE",
"338 666 OFFCURVE",
"282 664 CURVE",
"212 667 OFFCURVE",
"166 670 OFFCURVE",
"147 673 CURVE",
"130 643 LINE",
"145 647 OFFCURVE",
"159 649 OFFCURVE",
"172 649 CURVE SMOOTH",
"191 649 OFFCURVE",
"207 644 OFFCURVE",
"219 634 CURVE",
"224 628 OFFCURVE",
"226 601 OFFCURVE",
"226 554 CURVE SMOOTH",
"226 496 OFFCURVE",
"222 405 OFFCURVE",
"214 284 CURVE SMOOTH",
"209 213 OFFCURVE",
"206 167 OFFCURVE",
"203 147 CURVE SMOOTH",
"193 58 OFFCURVE",
"159 14 OFFCURVE",
"100 14 CURVE SMOOTH",
"66 14 OFFCURVE",
"47 31 OFFCURVE",
"42 68 CURVE SMOOTH",
"40 78 OFFCURVE",
"39 88 OFFCURVE",
"39 98 CURVE SMOOTH",
"39 115 OFFCURVE",
"42 133 OFFCURVE",
"46 152 CURVE",
"25 158 LINE",
"11 68 OFFCURVE",
"-4 20 OFFCURVE",
"-12 21 CURVE",
"-17 18 LINE",
"-19 9 LINE",
"15 -4 OFFCURVE",
"46 -13 OFFCURVE",
"72 -16 CURVE SMOOTH",
"94 -19 OFFCURVE",
"115 -20 OFFCURVE",
"132 -20 CURVE SMOOTH"
);
}
);
};
layerId = "24D0D9E8-BA2F-4B13-8DB9-88CA40D3CAFC";
paths = (
{
closed = 1;
nodes = (
"184 -20 OFFCURVE",
"222 -5 OFFCURVE",
"247 24 CURVE SMOOTH",
"270 51 OFFCURVE",
"286 98 OFFCURVE",
"294 164 CURVE",
"294 170 OFFCURVE",
"294 176 OFFCURVE",
"295 182 CURVE",
"301 309 LINE SMOOTH",
"302 377 OFFCURVE",
"305 429 OFFCURVE",
"308 466 CURVE SMOOTH",
"314 555 OFFCURVE",
"324 610 OFFCURVE",
"335 627 CURVE",
"348 642 OFFCURVE",
"368 649 OFFCURVE",
"393 649 CURVE SMOOTH",
"399 649 OFFCURVE",
"405 649 OFFCURVE",
"411 648 CURVE",
"435 675 LINE",
"390 671 OFFCURVE",
"338 666 OFFCURVE",
"282 664 CURVE",
"212 667 OFFCURVE",
"166 670 OFFCURVE",
"147 673 CURVE",
"130 643 LINE",
"145 647 OFFCURVE",
"159 649 OFFCURVE",
"172 649 CURVE SMOOTH",
"191 649 OFFCURVE",
"207 644 OFFCURVE",
"219 634 CURVE",
"224 628 OFFCURVE",
"226 601 OFFCURVE",
"226 554 CURVE SMOOTH",
"226 496 OFFCURVE",
"222 405 OFFCURVE",
"214 284 CURVE SMOOTH",
"209 213 OFFCURVE",
"206 167 OFFCURVE",
"203 147 CURVE SMOOTH",
"193 58 OFFCURVE",
"159 14 OFFCURVE",
"100 14 CURVE SMOOTH",
"66 14 OFFCURVE",
"47 31 OFFCURVE",
"42 68 CURVE SMOOTH",
"40 78 OFFCURVE",
"39 88 OFFCURVE",
"39 98 CURVE SMOOTH",
"39 115 OFFCURVE",
"42 133 OFFCURVE",
"46 152 CURVE",
"25 158 LINE",
"11 68 OFFCURVE",
"-4 20 OFFCURVE",
"-12 21 CURVE",
"-17 18 LINE",
"-19 9 LINE",
"15 -4 OFFCURVE",
"46 -13 OFFCURVE",
"72 -16 CURVE SMOOTH",
"94 -19 OFFCURVE",
"115 -20 OFFCURVE",
"132 -20 CURVE SMOOTH"
);
}
);
width = 404;
}
);
note = J;
unicode = 004A;
},
{
glyphname = K;
lastChange = "2021-11-03 23:18:53 +0000";
layers = (
{
background = {
paths = (
{
closed = 1;
nodes = (
"675 -9 OFFCURVE",
"713 -4 OFFCURVE",
"759 5 CURVE",
"775 35 LINE",
"765 32 OFFCURVE",
"761 32 OFFCURVE",
"753 32 CURVE SMOOTH",
"714 32 OFFCURVE",
"671 49 OFFCURVE",
"625 82 CURVE SMOOTH",
"571 120 OFFCURVE",
"520 168 OFFCURVE",
"473 227 CURVE SMOOTH",
"406 311 OFFCURVE",
"368 359 OFFCURVE",
"357 372 CURVE",
"509 517 OFFCURVE",
"608 601 OFFCURVE",
"657 627 CURVE SMOOTH",
"682 640 OFFCURVE",
"704 646 OFFCURVE",
"724 646 CURVE",
"740 669 LINE",
"725 667 OFFCURVE",
"710 666 OFFCURVE",
"696 665 CURVE SMOOTH",
"657 662 OFFCURVE",
"622 660 OFFCURVE",
"591 658 CURVE",
"514 663 OFFCURVE",
"473 667 OFFCURVE",
"467 668 CURVE",
"443 642 LINE",
"454 643 OFFCURVE",
"466 645 OFFCURVE",
"479 645 CURVE SMOOTH",
"516 645 OFFCURVE",
"536 634 OFFCURVE",
"536 612 CURVE SMOOTH",
"536 590 OFFCURVE",
"453 505 OFFCURVE",
"282 351 CURVE",
"281 345 LINE",
"319 296 OFFCURVE",
"352 253 OFFCURVE",
"380 215 CURVE SMOOTH",
"486 70 LINE SMOOTH",
"525 17 OFFCURVE",
"579 -9 OFFCURVE",
"645 -9 CURVE SMOOTH"
);
},
{
closed = 1;
nodes = (
"353 25 LINE",
"344 23 OFFCURVE",
"335 23 OFFCURVE",
"326 23 CURVE SMOOTH",
"312 23 OFFCURVE",
"297 25 OFFCURVE",
"282 29 CURVE SMOOTH",
"255 37 OFFCURVE",
"243 48 OFFCURVE",
"242 65 CURVE SMOOTH",
"240 81 OFFCURVE",
"239 104 OFFCURVE",
"239 132 CURVE SMOOTH",
"239 167 OFFCURVE",
"240 211 OFFCURVE",
"243 263 CURVE SMOOTH",
"251 378 LINE SMOOTH",
"261 523 OFFCURVE",
"271 603 OFFCURVE",
"285 627 CURVE",
"298 642 OFFCURVE",
"318 649 OFFCURVE",
"343 649 CURVE SMOOTH",
"349 649 OFFCURVE",
"355 649 OFFCURVE",
"361 648 CURVE",
"385 675 LINE",
"340 671 OFFCURVE",
"288 666 OFFCURVE",
"232 664 CURVE",
"162 667 OFFCURVE",
"116 670 OFFCURVE",
"97 673 CURVE",
"80 643 LINE",
"96 647 OFFCURVE",
"110 649 OFFCURVE",
"122 649 CURVE SMOOTH",
"142 649 OFFCURVE",
"157 644 OFFCURVE",
"169 634 CURVE",
"175 626 OFFCURVE",
"178 597 OFFCURVE",
"178 548 CURVE SMOOTH",
"178 509 OFFCURVE",
"176 457 OFFCURVE",
"172 393 CURVE SMOOTH",
"164 284 LINE SMOOTH",
"156 176 OFFCURVE",
"147 101 OFFCURVE",
"138 67 CURVE",
"132 51 OFFCURVE",
"119 39 OFFCURVE",
"98 31 CURVE SMOOTH",
"81 24 OFFCURVE",
"62 20 OFFCURVE",
"42 20 CURVE SMOOTH",
"35 20 OFFCURVE",
"30 21 OFFCURVE",
"24 23 CURVE",
"11 -7 LINE",
"181 5 LINE",
"270 2 OFFCURVE",
"323 -3 OFFCURVE",
"335 -8 CURVE"
);
}
);
};
layerId = "24D0D9E8-BA2F-4B13-8DB9-88CA40D3CAFC";
paths = (
{
closed = 1;
nodes = (
"675 -9 OFFCURVE",
"713 -4 OFFCURVE",
"759 5 CURVE",
"775 35 LINE",
"765 32 OFFCURVE",
"761 32 OFFCURVE",
"753 32 CURVE SMOOTH",
"714 32 OFFCURVE",
"671 49 OFFCURVE",
"625 82 CURVE SMOOTH",
"571 120 OFFCURVE",
"520 168 OFFCURVE",
"473 227 CURVE SMOOTH",
"406 311 OFFCURVE",
"368 359 OFFCURVE",
"357 372 CURVE",
"509 517 OFFCURVE",
"608 601 OFFCURVE",
"657 627 CURVE SMOOTH",
"682 640 OFFCURVE",
"704 646 OFFCURVE",
"724 646 CURVE",
"740 669 LINE",
"725 667 OFFCURVE",
"710 666 OFFCURVE",
"696 665 CURVE SMOOTH",
"657 662 OFFCURVE",
"622 660 OFFCURVE",
"591 658 CURVE",
"514 663 OFFCURVE",
"473 667 OFFCURVE",
"467 668 CURVE",
"443 642 LINE",
"454 643 OFFCURVE",
"466 645 OFFCURVE",
"479 645 CURVE SMOOTH",
"516 645 OFFCURVE",
"536 634 OFFCURVE",
"536 612 CURVE SMOOTH",
"536 590 OFFCURVE",
"453 505 OFFCURVE",
"282 351 CURVE",
"281 345 LINE",
"319 296 OFFCURVE",
"352 253 OFFCURVE",
"380 215 CURVE SMOOTH",
"486 70 LINE SMOOTH",
"525 17 OFFCURVE",
"579 -9 OFFCURVE",
"645 -9 CURVE SMOOTH"
);
},
{
closed = 1;
nodes = (
"353 25 LINE",
"344 23 OFFCURVE",
"335 23 OFFCURVE",
"326 23 CURVE SMOOTH",
"312 23 OFFCURVE",
"297 25 OFFCURVE",
"282 29 CURVE SMOOTH",
"255 37 OFFCURVE",
"243 48 OFFCURVE",
"242 65 CURVE SMOOTH",
"240 81 OFFCURVE",
"239 104 OFFCURVE",
"239 132 CURVE SMOOTH",
"239 167 OFFCURVE",
"240 211 OFFCURVE",
"243 263 CURVE SMOOTH",
"251 378 LINE SMOOTH",
"261 523 OFFCURVE",
"271 603 OFFCURVE",
"285 627 CURVE",
"298 642 OFFCURVE",
"318 649 OFFCURVE",
"343 649 CURVE SMOOTH",
"349 649 OFFCURVE",
"355 649 OFFCURVE",
"361 648 CURVE",
"385 675 LINE",
"340 671 OFFCURVE",
"288 666 OFFCURVE",
"232 664 CURVE",
"162 667 OFFCURVE",
"116 670 OFFCURVE",
"97 673 CURVE",
"80 643 LINE",
"96 647 OFFCURVE",
"110 649 OFFCURVE",
"122 649 CURVE SMOOTH",
"142 649 OFFCURVE",
"157 644 OFFCURVE",
"169 634 CURVE",
"175 626 OFFCURVE",
"178 597 OFFCURVE",
"178 548 CURVE SMOOTH",
"178 509 OFFCURVE",
"176 457 OFFCURVE",
"172 393 CURVE SMOOTH",
"164 284 LINE SMOOTH",
"156 176 OFFCURVE",
"147 101 OFFCURVE",
"138 67 CURVE",
"132 51 OFFCURVE",
"119 39 OFFCURVE",
"98 31 CURVE SMOOTH",
"81 24 OFFCURVE",
"62 20 OFFCURVE",
"42 20 CURVE SMOOTH",
"35 20 OFFCURVE",
"30 21 OFFCURVE",
"24 23 CURVE",
"11 -7 LINE",
"181 5 LINE",
"270 2 OFFCURVE",
"323 -3 OFFCURVE",
"335 -8 CURVE"
);
}
);
width = 796;
}
);
leftKerningGroup = H;
note = K;
unicode = 004B;
},
{
glyphname = L;
lastChange = "2021-11-03 23:54:02 +0000";
layers = (
{
background = {
paths = (
{
closed = 1;
nodes = (
"471 -11 OFFCURVE",
"483 -7 OFFCURVE",
"490 -1 CURVE SMOOTH",
"497 6 OFFCURVE",
"502 18 OFFCURVE",
"507 36 CURVE SMOOTH",
"516 78 OFFCURVE",
"528 112 OFFCURVE",
"542 139 CURVE",
"520 147 LINE",
"519 136 OFFCURVE",
"510 118 OFFCURVE",
"494 96 CURVE SMOOTH",
"479 74 OFFCURVE",
"467 60 OFFCURVE",
"456 53 CURVE SMOOTH",
"435 39 OFFCURVE",
"392 31 OFFCURVE",
"327 31 CURVE SMOOTH",
"309 31 OFFCURVE",
"292 32 OFFCURVE",
"277 34 CURVE SMOOTH",
"247 38 OFFCURVE",
"227 43 OFFCURVE",
"217 49 CURVE SMOOTH",
"209 53 OFFCURVE",
"204 62 OFFCURVE",
"202 75 CURVE SMOOTH",
"200 96 OFFCURVE",
"199 118 OFFCURVE",
"199 140 CURVE SMOOTH",
"199 153 OFFCURVE",
"199 165 OFFCURVE",
"200 178 CURVE SMOOTH",
"200 196 OFFCURVE",
"201 213 OFFCURVE",
"202 231 CURVE SMOOTH",
"205 283 LINE SMOOTH",
"215 480 OFFCURVE",
"229 597 OFFCURVE",
"245 627 CURVE",
"258 642 OFFCURVE",
"278 649 OFFCURVE",
"303 649 CURVE SMOOTH",
"309 649 OFFCURVE",
"315 649 OFFCURVE",
"321 648 CURVE",
"344 675 LINE",
"300 671 OFFCURVE",
"248 666 OFFCURVE",
"192 664 CURVE",
"122 667 OFFCURVE",
"76 670 OFFCURVE",
"56 673 CURVE",
"40 643 LINE",
"55 647 OFFCURVE",
"69 649 OFFCURVE",
"81 649 CURVE SMOOTH",
"101 649 OFFCURVE",
"117 644 OFFCURVE",
"129 634 CURVE",
"134 628 OFFCURVE",
"136 601 OFFCURVE",
"136 554 CURVE SMOOTH",
"136 496 OFFCURVE",
"132 405 OFFCURVE",
"124 284 CURVE SMOOTH",
"116 166 OFFCURVE",
"108 93 OFFCURVE",
"100 67 CURVE SMOOTH",
"94 51 OFFCURVE",
"81 39 OFFCURVE",
"60 31 CURVE SMOOTH",
"43 24 OFFCURVE",
"24 20 OFFCURVE",
"4 20 CURVE SMOOTH",
"-3 20 OFFCURVE",
"-8 22 OFFCURVE",
"-13 23 CURVE",
"-28 -8 LINE",
"60 0 OFFCURVE",
"112 3 OFFCURVE",
"129 4 CURVE SMOOTH",
"140 5 OFFCURVE",
"154 5 OFFCURVE",
"171 5 CURVE SMOOTH",
"203 5 OFFCURVE",
"292 0 OFFCURVE",
"436 -10 CURVE SMOOTH",
"443 -11 OFFCURVE",
"449 -11 OFFCURVE",
"454 -11 CURVE SMOOTH"
);
}
);
};
layerId = "24D0D9E8-BA2F-4B13-8DB9-88CA40D3CAFC";
paths = (
{
closed = 1;
nodes = (
"471 -11 OFFCURVE",
"483 -7 OFFCURVE",
"490 -1 CURVE SMOOTH",
"497 6 OFFCURVE",
"502 18 OFFCURVE",
"507 36 CURVE SMOOTH",
"516 78 OFFCURVE",
"528 112 OFFCURVE",
"542 139 CURVE",
"520 147 LINE",
"519 136 OFFCURVE",
"510 118 OFFCURVE",
"494 96 CURVE SMOOTH",
"479 74 OFFCURVE",
"467 60 OFFCURVE",
"456 53 CURVE SMOOTH",
"435 39 OFFCURVE",
"392 31 OFFCURVE",
"327 31 CURVE SMOOTH",
"309 31 OFFCURVE",
"292 32 OFFCURVE",
"277 34 CURVE SMOOTH",
"247 38 OFFCURVE",
"227 43 OFFCURVE",
"217 49 CURVE SMOOTH",
"209 53 OFFCURVE",
"204 62 OFFCURVE",
"202 75 CURVE SMOOTH",
"200 96 OFFCURVE",
"199 118 OFFCURVE",
"199 140 CURVE SMOOTH",
"199 153 OFFCURVE",
"199 165 OFFCURVE",
"200 178 CURVE SMOOTH",
"200 196 OFFCURVE",
"201 213 OFFCURVE",
"202 231 CURVE SMOOTH",
"205 283 LINE SMOOTH",
"216 480 OFFCURVE",
"229 597 OFFCURVE",
"245 627 CURVE",
"258 642 OFFCURVE",
"278 649 OFFCURVE",
"303 649 CURVE SMOOTH",
"309 649 OFFCURVE",
"315 649 OFFCURVE",
"321 648 CURVE",
"344 675 LINE",
"300 671 OFFCURVE",
"234 664 OFFCURVE",
"192 664 CURVE SMOOTH",
"155 664 OFFCURVE",
"76 670 OFFCURVE",
"56 673 CURVE",
"40 643 LINE",
"55 647 OFFCURVE",
"69 649 OFFCURVE",
"81 649 CURVE SMOOTH",
"101 649 OFFCURVE",
"117 644 OFFCURVE",
"129 634 CURVE",
"134 628 OFFCURVE",
"136 601 OFFCURVE",
"136 554 CURVE SMOOTH",
"136 496 OFFCURVE",
"132 405 OFFCURVE",
"124 284 CURVE SMOOTH",
"116 166 OFFCURVE",
"108 93 OFFCURVE",
"100 67 CURVE SMOOTH",
"94 51 OFFCURVE",
"81 39 OFFCURVE",
"60 31 CURVE SMOOTH",
"43 24 OFFCURVE",
"24 20 OFFCURVE",
"4 20 CURVE SMOOTH",
"-3 20 OFFCURVE",
"-8 22 OFFCURVE",
"-13 23 CURVE",
"-28 -8 LINE",
"60 0 OFFCURVE",
"112 3 OFFCURVE",
"129 4 CURVE SMOOTH",
"140 5 OFFCURVE",
"154 5 OFFCURVE",
"171 5 CURVE SMOOTH",
"203 5 OFFCURVE",
"292 0 OFFCURVE",
"436 -10 CURVE SMOOTH",
"443 -11 OFFCURVE",
"449 -11 OFFCURVE",
"454 -11 CURVE SMOOTH"
);
}
);
width = 575;
}
);
leftKerningGroup = D;
note = L;
rightKerningGroup = L;
unicode = 004C;
},
{
glyphname = M;
lastChange = "2021-11-03 23:55:31 +0000";
layers = (
{
background = {
paths = (
{
closed = 1;
nodes = (
"444 -30 LINE",
"456 17 OFFCURVE",
"491 104 OFFCURVE",
"551 233 CURVE SMOOTH",
"616 370 OFFCURVE",
"670 473 OFFCURVE",
"714 543 CURVE",
"707 545 LINE",
"711 444 OFFCURVE",
"713 366 OFFCURVE",
"713 308 CURVE SMOOTH",
"713 297 OFFCURVE",
"713 286 OFFCURVE",
"713 276 CURVE SMOOTH",
"713 234 LINE SMOOTH",
"713 145 OFFCURVE",
"710 87 OFFCURVE",
"706 65 CURVE SMOOTH",
"702 50 OFFCURVE",
"690 38 OFFCURVE",
"669 30 CURVE SMOOTH",
"653 23 OFFCURVE",
"635 20 OFFCURVE",
"613 20 CURVE SMOOTH",
"604 20 OFFCURVE",
"599 20 OFFCURVE",
"595 22 CURVE",
"580 -7 LINE",
"678 0 OFFCURVE",
"733 4 OFFCURVE",
"745 4 CURVE SMOOTH",
"829 2 OFFCURVE",
"883 -2 OFFCURVE",
"896 -8 CURVE",
"913 25 LINE",
"903 24 OFFCURVE",
"894 23 OFFCURVE",
"886 23 CURVE SMOOTH",
"871 23 OFFCURVE",
"857 25 OFFCURVE",
"845 29 CURVE SMOOTH",
"820 36 OFFCURVE",
"807 47 OFFCURVE",
"804 63 CURVE SMOOTH",
"799 92 OFFCURVE",
"795 161 OFFCURVE",
"792 275 CURVE SMOOTH",
"791 307 OFFCURVE",
"791 338 OFFCURVE",
"791 367 CURVE SMOOTH",
"791 430 OFFCURVE",
"793 486 OFFCURVE",
"796 535 CURVE SMOOTH",
"799 575 OFFCURVE",
"803 600 OFFCURVE",
"807 608 CURVE",
"818 623 OFFCURVE",
"837 630 OFFCURVE",
"862 630 CURVE SMOOTH",
"867 630 OFFCURVE",
"873 630 OFFCURVE",
"879 629 CURVE",
"900 656 LINE",
"837 648 OFFCURVE",
"788 644 OFFCURVE",
"756 643 CURVE SMOOTH",
"754 643 OFFCURVE",
"746 643 OFFCURVE",
"732 644 CURVE SMOOTH",
"718 645 OFFCURVE",
"707 645 OFFCURVE",
"700 644 CURVE SMOOTH",
"690 644 OFFCURVE",
"679 642 OFFCURVE",
"678 636 CURVE SMOOTH",
"677 611 OFFCURVE",
"642 522 OFFCURVE",
"576 373 CURVE SMOOTH",
"516 236 OFFCURVE",
"473 147 OFFCURVE",
"449 103 CURVE",
"446 99 OFFCURVE",
"443 96 OFFCURVE",
"444 96 CURVE",
"444 96 OFFCURVE",
"442 98 OFFCURVE",
"440 105 CURVE SMOOTH",
"418 172 OFFCURVE",
"403 224 OFFCURVE",
"393 259 CURVE SMOOTH",
"357 373 OFFCURVE",
"332 471 OFFCURVE",
"316 552 CURVE SMOOTH",
"307 600 OFFCURVE",
"303 629 OFFCURVE",
"305 644 CURVE",
"263 648 OFFCURVE",
"232 649 OFFCURVE",
"209 648 CURVE",
"167 650 OFFCURVE",
"140 652 OFFCURVE",
"131 653 CURVE",
"116 625 LINE",
"124 626 OFFCURVE",
"132 628 OFFCURVE",
"145 628 CURVE SMOOTH",
"176 628 OFFCURVE",
"193 616 OFFCURVE",
"195 594 CURVE",
"155 337 LINE SMOOTH",
"141 240 OFFCURVE",
"121 146 OFFCURVE",
"93 56 CURVE SMOOTH",
"86 32 OFFCURVE",
"62 20 OFFCURVE",
"21 20 CURVE",
"3 -11 LINE",
"16 -5 OFFCURVE",
"58 0 OFFCURVE",
"129 5 CURVE",
"207 -1 OFFCURVE",
"248 -4 OFFCURVE",
"254 -6 CURVE",
"270 24 LINE",
"253 24 LINE",
"249 23 OFFCURVE",
"246 23 OFFCURVE",
"242 23 CURVE SMOOTH",
"201 23 OFFCURVE",
"179 36 OFFCURVE",
"174 60 CURVE SMOOTH",
"172 68 OFFCURVE",
"172 80 OFFCURVE",
"172 94 CURVE SMOOTH",
"172 105 OFFCURVE",
"172 119 OFFCURVE",
"173 134 CURVE SMOOTH",
"176 176 OFFCURVE",
"184 244 OFFCURVE",
"198 339 CURVE SMOOTH",
"209 412 OFFCURVE",
"221 485 OFFCURVE",
"234 558 CURVE",
"226 557 LINE",
"266 427 OFFCURVE",
"295 327 OFFCURVE",
"314 258 CURVE SMOOTH",
"331 199 LINE SMOOTH",
"340 167 OFFCURVE",
"347 139 OFFCURVE",
"353 116 CURVE SMOOTH",
"361 86 OFFCURVE",
"367 64 OFFCURVE",
"370 49 CURVE SMOOTH",
"373 37 OFFCURVE",
"383 22 OFFCURVE",
"397 5 CURVE SMOOTH",
"419 -21 OFFCURVE",
"428 -33 OFFCURVE",
"428 -38 CURVE"
);
}
);
};
layerId = "24D0D9E8-BA2F-4B13-8DB9-88CA40D3CAFC";
paths = (
{
closed = 1;
nodes = (
"444 -30 LINE",
"456 17 OFFCURVE",
"491 104 OFFCURVE",
"551 233 CURVE SMOOTH",
"616 370 OFFCURVE",
"670 473 OFFCURVE",
"714 543 CURVE",
"707 545 LINE",
"711 444 OFFCURVE",
"713 366 OFFCURVE",
"713 308 CURVE SMOOTH",
"713 297 OFFCURVE",
"713 286 OFFCURVE",
"713 276 CURVE SMOOTH",
"713 234 LINE SMOOTH",
"713 145 OFFCURVE",
"710 87 OFFCURVE",
"706 65 CURVE SMOOTH",
"702 50 OFFCURVE",
"690 38 OFFCURVE",
"669 30 CURVE SMOOTH",
"653 23 OFFCURVE",
"635 20 OFFCURVE",
"613 20 CURVE SMOOTH",
"604 20 OFFCURVE",
"599 20 OFFCURVE",
"595 22 CURVE",
"580 -7 LINE",
"678 0 OFFCURVE",
"733 4 OFFCURVE",
"745 4 CURVE SMOOTH",
"829 2 OFFCURVE",
"883 -2 OFFCURVE",
"896 -8 CURVE",
"913 25 LINE",
"903 24 OFFCURVE",
"894 23 OFFCURVE",
"886 23 CURVE SMOOTH",
"871 23 OFFCURVE",
"857 25 OFFCURVE",
"845 29 CURVE SMOOTH",
"820 36 OFFCURVE",
"807 47 OFFCURVE",
"804 63 CURVE SMOOTH",
"799 92 OFFCURVE",
"795 161 OFFCURVE",
"792 275 CURVE SMOOTH",
"791 307 OFFCURVE",
"791 338 OFFCURVE",
"791 367 CURVE SMOOTH",
"791 430 OFFCURVE",
"793 486 OFFCURVE",
"796 535 CURVE SMOOTH",
"799 575 OFFCURVE",
"803 600 OFFCURVE",
"807 608 CURVE",
"818 623 OFFCURVE",
"837 630 OFFCURVE",
"862 630 CURVE SMOOTH",
"867 630 OFFCURVE",
"873 630 OFFCURVE",
"879 629 CURVE",
"900 656 LINE",
"837 648 OFFCURVE",
"788 644 OFFCURVE",
"756 643 CURVE SMOOTH",
"754 643 OFFCURVE",
"746 643 OFFCURVE",
"732 644 CURVE SMOOTH",
"718 645 OFFCURVE",
"707 645 OFFCURVE",
"700 644 CURVE SMOOTH",
"690 644 OFFCURVE",
"679 642 OFFCURVE",
"678 636 CURVE SMOOTH",
"677 611 OFFCURVE",
"642 522 OFFCURVE",
"576 373 CURVE SMOOTH",
"516 236 OFFCURVE",
"473 147 OFFCURVE",
"449 103 CURVE",
"446 99 OFFCURVE",
"443 96 OFFCURVE",
"444 96 CURVE",
"444 96 OFFCURVE",
"442 98 OFFCURVE",
"440 105 CURVE SMOOTH",
"418 172 OFFCURVE",
"403 224 OFFCURVE",
"393 259 CURVE SMOOTH",
"357 373 OFFCURVE",
"332 471 OFFCURVE",
"316 552 CURVE SMOOTH",
"307 600 OFFCURVE",
"303 629 OFFCURVE",
"305 644 CURVE",
"263 648 OFFCURVE",
"232 649 OFFCURVE",
"209 648 CURVE",
"167 650 OFFCURVE",
"140 652 OFFCURVE",
"131 653 CURVE",
"116 625 LINE",
"124 626 OFFCURVE",
"132 628 OFFCURVE",
"145 628 CURVE SMOOTH",
"176 628 OFFCURVE",
"193 616 OFFCURVE",
"195 594 CURVE",
"155 337 LINE SMOOTH",
"140 240 OFFCURVE",
"121 146 OFFCURVE",
"93 56 CURVE SMOOTH",
"86 32 OFFCURVE",
"62 20 OFFCURVE",
"21 20 CURVE",
"3 -11 LINE",
"16 -5 OFFCURVE",
"58 0 OFFCURVE",
"129 5 CURVE",
"207 -1 OFFCURVE",
"248 -4 OFFCURVE",
"254 -6 CURVE",
"270 24 LINE",
"253 24 LINE",
"249 23 OFFCURVE",
"246 23 OFFCURVE",
"242 23 CURVE SMOOTH",
"201 23 OFFCURVE",
"179 36 OFFCURVE",
"174 60 CURVE SMOOTH",
"172 68 OFFCURVE",
"172 80 OFFCURVE",
"172 94 CURVE SMOOTH",
"172 105 OFFCURVE",
"172 119 OFFCURVE",
"173 134 CURVE SMOOTH",
"176 176 OFFCURVE",
"184 244 OFFCURVE",
"198 339 CURVE SMOOTH",
"209 412 OFFCURVE",
"221 485 OFFCURVE",
"234 558 CURVE",
"226 557 LINE",
"266 427 OFFCURVE",
"294 327 OFFCURVE",
"314 258 CURVE SMOOTH",
"331 199 LINE SMOOTH",
"340 167 OFFCURVE",
"347 139 OFFCURVE",
"353 116 CURVE SMOOTH",
"361 86 OFFCURVE",
"367 64 OFFCURVE",
"370 49 CURVE SMOOTH",
"373 37 OFFCURVE",
"383 22 OFFCURVE",
"397 5 CURVE SMOOTH",
"419 -21 OFFCURVE",
"428 -33 OFFCURVE",
"428 -38 CURVE"
);
}
);
width = 957;
}
);
note = M;
unicode = 004D;
},
{
glyphname = N;
lastChange = "2021-11-03 23:18:53 +0000";
layers = (
{
background = {
paths = (
{
closed = 1;
nodes = (
"670 -56 LINE",
"667 -39 OFFCURVE",
"666 -16 OFFCURVE",
"666 14 CURVE SMOOTH",
"666 65 OFFCURVE",
"670 135 OFFCURVE",
"676 225 CURVE SMOOTH",
"691 448 OFFCURVE",
"706 574 OFFCURVE",
"720 619 CURVE SMOOTH",
"727 644 OFFCURVE",
"751 656 OFFCURVE",
"794 656 CURVE",
"809 680 LINE",
"797 674 OFFCURVE",
"754 669 OFFCURVE",
"679 664 CURVE",
"603 668 OFFCURVE",
"562 673 OFFCURVE",
"554 674 CURVE",
"540 648 LINE",
"557 651 OFFCURVE",
"571 652 OFFCURVE",
"583 652 CURVE SMOOTH",
"616 652 OFFCURVE",
"634 640 OFFCURVE",
"637 617 CURVE SMOOTH",
"639 606 OFFCURVE",
"640 587 OFFCURVE",
"640 561 CURVE SMOOTH",
"640 518 OFFCURVE",
"638 456 OFFCURVE",
"632 374 CURVE SMOOTH",
"625 276 OFFCURVE",
"617 198 OFFCURVE",
"607 140 CURVE",
"562 186 OFFCURVE",
"522 228 OFFCURVE",
"485 266 CURVE SMOOTH",
"410 344 LINE SMOOTH",
"375 383 OFFCURVE",
"330 436 OFFCURVE",
"277 504 CURVE SMOOTH",
"223 573 OFFCURVE",
"182 629 OFFCURVE",
"154 671 CURVE",
"151 673 LINE",
"122 671 OFFCURVE",
"96 670 OFFCURVE",
"74 670 CURVE SMOOTH",
"55 670 OFFCURVE",
"38 671 OFFCURVE",
"24 673 CURVE",
"8 643 LINE",
"23 647 OFFCURVE",
"37 649 OFFCURVE",
"50 649 CURVE SMOOTH",
"69 649 OFFCURVE",
"85 644 OFFCURVE",
"97 634 CURVE",
"103 627 OFFCURVE",
"107 598 OFFCURVE",
"107 547 CURVE SMOOTH",
"107 501 OFFCURVE",
"104 436 OFFCURVE",
"98 354 CURVE SMOOTH",
"96 328 OFFCURVE",
"84 229 OFFCURVE",
"61 57 CURVE SMOOTH",
"60 49 OFFCURVE",
"54 41 OFFCURVE",
"43 33 CURVE SMOOTH",
"29 25 OFFCURVE",
"11 21 OFFCURVE",
"-13 21 CURVE",
"-30 -9 LINE",
"-4 -2 OFFCURVE",
"34 2 OFFCURVE",
"83 2 CURVE SMOOTH",
"134 2 OFFCURVE",
"182 -1 OFFCURVE",
"228 -7 CURVE",
"248 27 LINE",
"240 24 OFFCURVE",
"228 21 OFFCURVE",
"214 21 CURVE SMOOTH",
"176 21 OFFCURVE",
"154 34 OFFCURVE",
"146 60 CURVE SMOOTH",
"142 74 OFFCURVE",
"140 101 OFFCURVE",
"140 141 CURVE SMOOTH",
"140 190 OFFCURVE",
"143 258 OFFCURVE",
"149 349 CURVE SMOOTH",
"154 410 OFFCURVE",
"160 460 OFFCURVE",
"167 501 CURVE",
"245 410 OFFCURVE",
"306 339 OFFCURVE",
"351 290 CURVE SMOOTH",
"513 110 LINE SMOOTH",
"598 16 OFFCURVE",
"645 -44 OFFCURVE",
"654 -66 CURVE"
);
}
);
};
layerId = "24D0D9E8-BA2F-4B13-8DB9-88CA40D3CAFC";
paths = (
{
closed = 1;
nodes = (
"670 -56 LINE",
"667 -39 OFFCURVE",
"666 -16 OFFCURVE",
"666 14 CURVE SMOOTH",
"666 65 OFFCURVE",
"670 135 OFFCURVE",
"676 225 CURVE SMOOTH",
"691 448 OFFCURVE",
"706 574 OFFCURVE",
"720 619 CURVE SMOOTH",
"727 644 OFFCURVE",
"751 656 OFFCURVE",
"794 656 CURVE",
"809 680 LINE",
"797 674 OFFCURVE",
"754 669 OFFCURVE",
"679 664 CURVE",
"603 668 OFFCURVE",
"562 673 OFFCURVE",
"554 674 CURVE",
"540 648 LINE",
"557 651 OFFCURVE",
"571 652 OFFCURVE",
"583 652 CURVE SMOOTH",
"616 652 OFFCURVE",
"634 640 OFFCURVE",
"637 617 CURVE SMOOTH",
"639 606 OFFCURVE",
"640 587 OFFCURVE",
"640 561 CURVE SMOOTH",
"640 518 OFFCURVE",
"638 456 OFFCURVE",
"632 374 CURVE SMOOTH",
"625 276 OFFCURVE",
"617 198 OFFCURVE",
"607 140 CURVE",
"562 186 OFFCURVE",
"522 228 OFFCURVE",
"485 266 CURVE SMOOTH",
"410 344 LINE SMOOTH",
"375 383 OFFCURVE",
"330 436 OFFCURVE",
"277 504 CURVE SMOOTH",
"223 573 OFFCURVE",
"182 629 OFFCURVE",
"154 671 CURVE",
"151 673 LINE",
"122 671 OFFCURVE",
"96 670 OFFCURVE",
"74 670 CURVE SMOOTH",
"55 670 OFFCURVE",
"38 671 OFFCURVE",
"24 673 CURVE",
"8 643 LINE",
"23 647 OFFCURVE",
"37 649 OFFCURVE",
"50 649 CURVE SMOOTH",
"69 649 OFFCURVE",
"85 644 OFFCURVE",
"97 634 CURVE",
"103 627 OFFCURVE",
"107 598 OFFCURVE",
"107 547 CURVE SMOOTH",
"107 501 OFFCURVE",
"104 436 OFFCURVE",
"98 354 CURVE SMOOTH",
"96 328 OFFCURVE",
"84 229 OFFCURVE",
"61 57 CURVE SMOOTH",
"60 49 OFFCURVE",
"54 41 OFFCURVE",
"43 33 CURVE SMOOTH",
"29 25 OFFCURVE",
"11 21 OFFCURVE",
"-13 21 CURVE",
"-30 -9 LINE",
"-4 -2 OFFCURVE",
"34 2 OFFCURVE",
"83 2 CURVE SMOOTH",
"134 2 OFFCURVE",
"182 -1 OFFCURVE",
"228 -7 CURVE",
"248 27 LINE",
"240 24 OFFCURVE",
"228 21 OFFCURVE",
"214 21 CURVE SMOOTH",
"176 21 OFFCURVE",
"154 34 OFFCURVE",
"146 60 CURVE SMOOTH",
"142 74 OFFCURVE",
"140 101 OFFCURVE",
"140 141 CURVE SMOOTH",
"140 190 OFFCURVE",
"143 258 OFFCURVE",
"149 349 CURVE SMOOTH",
"154 410 OFFCURVE",
"160 460 OFFCURVE",
"167 501 CURVE",
"245 410 OFFCURVE",
"306 339 OFFCURVE",
"351 290 CURVE SMOOTH",
"513 110 LINE SMOOTH",
"598 16 OFFCURVE",
"645 -44 OFFCURVE",
"654 -66 CURVE"
);
}
);
width = 807;
}
);
note = N;
rightKerningGroup = N;
unicode = 004E;
},
{
color = 3;
glyphname = Eng;
lastChange = "2021-11-03 23:13:38 +0000";
layers = (
{
layerId = "24D0D9E8-BA2F-4B13-8DB9-88CA40D3CAFC";
paths = (
{
closed = 1;
nodes = (
"584 -402 OFFCURVE",
"633 -327 OFFCURVE",
"642 -194 CURVE SMOOTH",
"650 -51 LINE SMOOTH",
"659 169 OFFCURVE",
"672 466 OFFCURVE",
"714 618 CURVE SMOOTH",
"721 642 OFFCURVE",
"746 654 OFFCURVE",
"788 654 CURVE",
"805 679 LINE",
"795 673 OFFCURVE",
"751 666 OFFCURVE",
"675 662 CURVE",
"600 666 OFFCURVE",
"560 671 OFFCURVE",
"551 672 CURVE",
"535 646 LINE",
"553 649 LINE SMOOTH",
"563 650 OFFCURVE",
"571 651 OFFCURVE",
"578 651 CURVE SMOOTH",
"617 651 OFFCURVE",
"635 633 OFFCURVE",
"635 599 CURVE SMOOTH",
"635 533 OFFCURVE",
"619 256 OFFCURVE",
"602 144 CURVE",
"532 214 LINE SMOOTH",
"404 343 OFFCURVE",
"310 438 OFFCURVE",
"155 669 CURVE",
"151 671 LINE",
"125 668 OFFCURVE",
"103 668 OFFCURVE",
"82 668 CURVE SMOOTH",
"60 668 OFFCURVE",
"40 668 OFFCURVE",
"26 672 CURVE",
"11 641 LINE",
"26 646 OFFCURVE",
"39 647 OFFCURVE",
"51 647 CURVE SMOOTH",
"86 647 OFFCURVE",
"101 638 OFFCURVE",
"104 613 CURVE SMOOTH",
"106 597 OFFCURVE",
"108 574 OFFCURVE",
"108 544 CURVE SMOOTH",
"108 498 OFFCURVE",
"105 435 OFFCURVE",
"98 355 CURVE SMOOTH",
"97 342 OFFCURVE",
"93 312 OFFCURVE",
"86 263 CURVE SMOOTH",
"80 214 OFFCURVE",
"71 147 OFFCURVE",
"60 62 CURVE SMOOTH",
"58 40 OFFCURVE",
"29 25 OFFCURVE",
"-13 26 CURVE",
"-29 -3 LINE",
"-1 2 OFFCURVE",
"36 7 OFFCURVE",
"84 7 CURVE SMOOTH",
"132 7 OFFCURVE",
"181 3 OFFCURVE",
"226 -2 CURVE",
"247 28 LINE",
"236 26 OFFCURVE",
"223 26 OFFCURVE",
"211 26 CURVE SMOOTH",
"168 26 OFFCURVE",
"147 43 OFFCURVE",
"141 79 CURVE SMOOTH",
"140 88 OFFCURVE",
"139 112 OFFCURVE",
"139 144 CURVE SMOOTH",
"139 232 OFFCURVE",
"145 387 OFFCURVE",
"167 501 CURVE",
"244 410 OFFCURVE",
"305 340 OFFCURVE",
"350 291 CURVE SMOOTH",
"509 113 LINE SMOOTH",
"532 88 OFFCURVE",
"552 65 OFFCURVE",
"569 45 CURVE SMOOTH",
"578 34 LINE",
"580 3 OFFCURVE",
"574 -131 OFFCURVE",
"563 -226 CURVE SMOOTH",
"553 -317 OFFCURVE",
"513 -368 OFFCURVE",
"452 -368 CURVE SMOOTH",
"416 -368 OFFCURVE",
"395 -346 OFFCURVE",
"395 -300 CURVE SMOOTH",
"395 -272 OFFCURVE",
"401 -232 OFFCURVE",
"407 -209 CURVE",
"377 -204 LINE",
"364 -294 OFFCURVE",
"344 -362 OFFCURVE",
"335 -362 CURVE",
"331 -367 LINE",
"332 -372 LINE",
"394 -399 OFFCURVE",
"447 -402 OFFCURVE",
"504 -402 CURVE SMOOTH"
);
}
);
width = 807;
}
);
unicode = 014A;
},
{
glyphname = O;
lastChange = "2021-11-03 23:18:53 +0000";
layers = (
{
background = {
paths = (
{
closed = 1;
nodes = (
"608 -24 OFFCURVE",
"737 99 OFFCURVE",
"754 343 CURVE SMOOTH",
"755 356 OFFCURVE",
"755 368 OFFCURVE",
"755 381 CURVE SMOOTH",
"755 475 OFFCURVE",
"728 548 OFFCURVE",
"673 598 CURVE SMOOTH",
"615 652 OFFCURVE",
"528 680 OFFCURVE",
"414 680 CURVE SMOOTH",
"298 680 OFFCURVE",
"209 653 OFFCURVE",
"143 598 CURVE SMOOTH",
"75 540 OFFCURVE",
"37 455 OFFCURVE",
"29 343 CURVE SMOOTH",
"28 327 OFFCURVE",
"27 312 OFFCURVE",
"27 297 CURVE SMOOTH",
"27 83 OFFCURVE",
"141 -24 OFFCURVE",
"366 -24 CURVE SMOOTH"
);
},
{
closed = 1;
nodes = (
"292 15 OFFCURVE",
"228 51 OFFCURVE",
"181 121 CURVE SMOOTH",
"142 181 OFFCURVE",
"123 246 OFFCURVE",
"123 321 CURVE SMOOTH",
"123 331 OFFCURVE",
"123 342 OFFCURVE",
"124 353 CURVE SMOOTH",
"129 426 OFFCURVE",
"152 489 OFFCURVE",
"192 540 CURVE SMOOTH",
"237 597 OFFCURVE",
"297 630 OFFCURVE",
"372 639 CURVE SMOOTH",
"385 641 OFFCURVE",
"397 641 OFFCURVE",
"410 641 CURVE SMOOTH",
"494 641 OFFCURVE",
"558 607 OFFCURVE",
"605 540 CURVE SMOOTH",
"642 486 OFFCURVE",
"659 423 OFFCURVE",
"659 350 CURVE SMOOTH",
"659 339 OFFCURVE",
"659 328 OFFCURVE",
"658 317 CURVE SMOOTH",
"653 241 OFFCURVE",
"629 175 OFFCURVE",
"588 120 CURVE SMOOTH",
"543 60 OFFCURVE",
"482 26 OFFCURVE",
"408 17 CURVE SMOOTH",
"397 15 OFFCURVE",
"386 15 OFFCURVE",
"375 15 CURVE SMOOTH"
);
}
);
};
layerId = "24D0D9E8-BA2F-4B13-8DB9-88CA40D3CAFC";
paths = (
{
closed = 1;
nodes = (
"608 -24 OFFCURVE",
"737 99 OFFCURVE",
"754 343 CURVE SMOOTH",
"755 356 OFFCURVE",
"755 368 OFFCURVE",
"755 381 CURVE SMOOTH",
"755 475 OFFCURVE",
"728 548 OFFCURVE",
"673 598 CURVE SMOOTH",
"615 652 OFFCURVE",
"528 680 OFFCURVE",
"414 680 CURVE SMOOTH",
"298 680 OFFCURVE",
"209 653 OFFCURVE",
"143 598 CURVE SMOOTH",
"75 540 OFFCURVE",
"37 455 OFFCURVE",
"29 343 CURVE SMOOTH",
"28 327 OFFCURVE",
"27 312 OFFCURVE",
"27 297 CURVE SMOOTH",
"27 83 OFFCURVE",
"141 -24 OFFCURVE",
"366 -24 CURVE SMOOTH"
);
},
{
closed = 1;
nodes = (
"292 15 OFFCURVE",
"228 51 OFFCURVE",
"181 121 CURVE SMOOTH",
"142 181 OFFCURVE",
"123 246 OFFCURVE",
"123 321 CURVE SMOOTH",
"123 331 OFFCURVE",
"123 342 OFFCURVE",
"124 353 CURVE SMOOTH",
"129 426 OFFCURVE",
"152 489 OFFCURVE",
"192 540 CURVE SMOOTH",
"237 597 OFFCURVE",
"297 630 OFFCURVE",
"372 639 CURVE SMOOTH",
"385 641 OFFCURVE",
"397 641 OFFCURVE",
"410 641 CURVE SMOOTH",
"494 641 OFFCURVE",
"558 607 OFFCURVE",
"605 540 CURVE SMOOTH",
"642 486 OFFCURVE",
"659 423 OFFCURVE",
"659 350 CURVE SMOOTH",
"659 339 OFFCURVE",
"659 328 OFFCURVE",
"658 317 CURVE SMOOTH",
"653 241 OFFCURVE",
"629 175 OFFCURVE",
"588 120 CURVE SMOOTH",
"543 60 OFFCURVE",
"482 26 OFFCURVE",
"408 17 CURVE SMOOTH",
"397 15 OFFCURVE",
"386 15 OFFCURVE",
"375 15 CURVE SMOOTH"
);
}
);
width = 795;
}
);
leftKerningGroup = O;
note = O;
rightKerningGroup = O;
unicode = 004F;
},
{
glyphname = Oslash;
lastChange = "2021-11-03 23:13:38 +0000";
layers = (
{
layerId = "24D0D9E8-BA2F-4B13-8DB9-88CA40D3CAFC";
paths = (
{
closed = 1;
nodes = (
"589 -23 OFFCURVE",
"715 96 OFFCURVE",
"731 333 CURVE SMOOTH",
"732 345 OFFCURVE",
"732 358 OFFCURVE",
"732 369 CURVE SMOOTH",
"732 478 OFFCURVE",
"695 557 OFFCURVE",
"620 606 CURVE",
"671 667 LINE",
"601 667 LINE",
"572 631 LINE",
"524 651 OFFCURVE",
"466 660 OFFCURVE",
"400 660 CURVE SMOOTH",
"289 660 OFFCURVE",
"202 633 OFFCURVE",
"138 580 CURVE SMOOTH",
"72 524 OFFCURVE",
"35 442 OFFCURVE",
"27 333 CURVE SMOOTH",
"26 319 OFFCURVE",
"26 305 OFFCURVE",
"26 292 CURVE SMOOTH",
"26 189 OFFCURVE",
"53 111 OFFCURVE",
"108 57 CURVE",
"57 -5 LINE",
"116 -4 LINE",
"143 30 LINE",
"197 -5 OFFCURVE",
"267 -23 OFFCURVE",
"354 -23 CURVE SMOOTH"
);
},
{
closed = 1;
nodes = (
"295 14 OFFCURVE",
"239 40 OFFCURVE",
"195 91 CURVE",
"569 545 LINE",
"616 490 OFFCURVE",
"639 422 OFFCURVE",
"639 339 CURVE SMOOTH",
"639 329 OFFCURVE",
"639 318 OFFCURVE",
"638 308 CURVE SMOOTH",
"632 233 OFFCURVE",
"610 169 OFFCURVE",
"570 117 CURVE SMOOTH",
"526 58 OFFCURVE",
"467 25 OFFCURVE",
"395 16 CURVE SMOOTH",
"384 15 OFFCURVE",
"373 14 OFFCURVE",
"363 14 CURVE SMOOTH"
);
},
{
closed = 1;
nodes = (
"134 184 OFFCURVE",
"118 244 OFFCURVE",
"118 310 CURVE SMOOTH",
"118 321 OFFCURVE",
"118 331 OFFCURVE",
"119 342 CURVE SMOOTH",
"124 414 OFFCURVE",
"146 474 OFFCURVE",
"185 524 CURVE SMOOTH",
"229 579 OFFCURVE",
"287 611 OFFCURVE",
"360 620 CURVE SMOOTH",
"373 622 OFFCURVE",
"385 622 OFFCURVE",
"397 622 CURVE SMOOTH",
"449 622 OFFCURVE",
"494 608 OFFCURVE",
"531 581 CURVE",
"166 131 LINE"
);
}
);
width = 772;
}
);
note = Oslash;
unicode = 00D8;
},
{
glyphname = OE;
lastChange = "2021-11-03 23:13:38 +0000";
layers = (
{
layerId = "24D0D9E8-BA2F-4B13-8DB9-88CA40D3CAFC";
paths = (
{
closed = 1;
nodes = (
"443 -23 OFFCURVE",
"493 -16 OFFCURVE",
"536 -2 CURVE",
"551 -1 LINE SMOOTH",
"570 0 OFFCURVE",
"593 1 OFFCURVE",
"618 1 CURVE SMOOTH",
"675 1 OFFCURVE",
"753 -3 OFFCURVE",
"853 -10 CURVE SMOOTH",
"856 -10 OFFCURVE",
"858 -10 OFFCURVE",
"861 -11 CURVE",
"866 -11 LINE SMOOTH",
"884 -11 OFFCURVE",
"897 -7 OFFCURVE",
"904 1 CURVE SMOOTH",
"911 10 OFFCURVE",
"916 23 OFFCURVE",
"918 40 CURVE SMOOTH",
"923 77 OFFCURVE",
"933 108 OFFCURVE",
"947 137 CURVE",
"924 143 LINE",
"923 132 OFFCURVE",
"916 115 OFFCURVE",
"904 94 CURVE SMOOTH",
"891 74 OFFCURVE",
"880 60 OFFCURVE",
"870 52 CURVE SMOOTH",
"849 38 OFFCURVE",
"806 30 OFFCURVE",
"742 30 CURVE SMOOTH",
"725 30 OFFCURVE",
"710 31 OFFCURVE",
"696 33 CURVE SMOOTH",
"658 37 OFFCURVE",
"642 40 OFFCURVE",
"635 44 CURVE",
"627 46 OFFCURVE",
"622 53 OFFCURVE",
"620 65 CURVE SMOOTH",
"613 98 OFFCURVE",
"609 184 OFFCURVE",
"608 319 CURVE",
"618 320 OFFCURVE",
"630 320 OFFCURVE",
"644 320 CURVE SMOOTH",
"669 320 OFFCURVE",
"701 319 OFFCURVE",
"738 317 CURVE SMOOTH",
"775 315 OFFCURVE",
"793 302 OFFCURVE",
"792 277 CURVE SMOOTH",
"792 276 OFFCURVE",
"791 274 OFFCURVE",
"791 272 CURVE",
"789 264 OFFCURVE",
"789 261 OFFCURVE",
"788 259 CURVE",
"792 253 LINE",
"815 258 LINE",
"814 274 OFFCURVE",
"814 282 OFFCURVE",
"814 285 CURVE SMOOTH",
"814 292 OFFCURVE",
"815 301 OFFCURVE",
"819 315 CURVE SMOOTH",
"822 328 OFFCURVE",
"824 338 OFFCURVE",
"824 343 CURVE SMOOTH",
"824 352 OFFCURVE",
"820 358 OFFCURVE",
"811 359 CURVE",
"810 351 LINE",
"768 357 OFFCURVE",
"741 358 OFFCURVE",
"712 358 CURVE SMOOTH",
"684 358 OFFCURVE",
"655 357 OFFCURVE",
"608 356 CURVE",
"608 482 OFFCURVE",
"613 564 OFFCURVE",
"622 600 CURVE",
"637 602 OFFCURVE",
"662 604 OFFCURVE",
"696 604 CURVE SMOOTH",
"730 604 OFFCURVE",
"756 603 OFFCURVE",
"770 601 CURVE SMOOTH",
"808 596 OFFCURVE",
"825 585 OFFCURVE",
"825 568 CURVE SMOOTH",
"825 560 OFFCURVE",
"819 539 OFFCURVE",
"808 510 CURVE",
"835 504 LINE",
"847 566 LINE",
"847 568 OFFCURVE",
"849 575 OFFCURVE",
"855 597 CURVE SMOOTH",
"859 611 OFFCURVE",
"861 622 OFFCURVE",
"861 629 CURVE SMOOTH",
"861 640 OFFCURVE",
"855 647 OFFCURVE",
"846 647 CURVE SMOOTH",
"750 647 OFFCURVE",
"658 646 OFFCURVE",
"571 645 CURVE SMOOTH",
"550 645 OFFCURVE",
"529 646 OFFCURVE",
"508 647 CURVE",
"471 656 OFFCURVE",
"431 660 OFFCURVE",
"386 660 CURVE SMOOTH",
"274 660 OFFCURVE",
"190 633 OFFCURVE",
"129 580 CURVE SMOOTH",
"67 524 OFFCURVE",
"36 442 OFFCURVE",
"36 333 CURVE SMOOTH",
"36 96 OFFCURVE",
"154 -23 OFFCURVE",
"388 -23 CURVE SMOOTH"
);
},
{
closed = 1;
nodes = (
"314 14 OFFCURVE",
"248 49 OFFCURVE",
"198 118 CURVE SMOOTH",
"151 182 OFFCURVE",
"127 257 OFFCURVE",
"127 342 CURVE SMOOTH",
"127 414 OFFCURVE",
"145 474 OFFCURVE",
"180 524 CURVE SMOOTH",
"220 579 OFFCURVE",
"276 611 OFFCURVE",
"349 620 CURVE SMOOTH",
"361 622 OFFCURVE",
"373 622 OFFCURVE",
"385 622 CURVE SMOOTH",
"436 622 OFFCURVE",
"481 609 OFFCURVE",
"520 583 CURVE",
"527 540 OFFCURVE",
"530 438 OFFCURVE",
"530 267 CURVE SMOOTH",
"530 163 OFFCURVE",
"526 91 OFFCURVE",
"519 58 CURVE SMOOTH",
"517 52 OFFCURVE",
"516 48 OFFCURVE",
"512 43 CURVE SMOOTH",
"509 39 OFFCURVE",
"499 35 OFFCURVE",
"472 27 CURVE SMOOTH",
"453 21 OFFCURVE",
"437 18 OFFCURVE",
"425 16 CURVE SMOOTH",
"415 15 OFFCURVE",
"404 14 OFFCURVE",
"394 14 CURVE SMOOTH"
);
}
);
width = 959;
}
);
note = OE;
unicode = 0152;
},
{
glyphname = P;
lastChange = "2021-11-03 23:18:53 +0000";
layers = (
{
background = {
paths = (
{
closed = 1;
nodes = (
"138 3 LINE SMOOTH",
"145 4 OFFCURVE",
"153 4 OFFCURVE",
"162 4 CURVE SMOOTH",
"186 4 OFFCURVE",
"216 3 OFFCURVE",
"252 0 CURVE SMOOTH",
"270 -2 OFFCURVE",
"290 -4 OFFCURVE",
"309 -5 CURVE",
"321 18 LINE",
"317 24 LINE",
"307 22 OFFCURVE",
"286 23 OFFCURVE",
"258 28 CURVE SMOOTH",
"226 33 OFFCURVE",
"206 40 OFFCURVE",
"202 48 CURVE",
"199 58 OFFCURVE",
"198 77 OFFCURVE",
"198 104 CURVE SMOOTH",
"198 140 OFFCURVE",
"200 192 OFFCURVE",
"205 259 CURVE SMOOTH",
"215 403 LINE SMOOTH",
"221 492 OFFCURVE",
"228 559 OFFCURVE",
"236 602 CURVE SMOOTH",
"239 615 OFFCURVE",
"248 623 OFFCURVE",
"265 626 CURVE SMOOTH",
"273 628 OFFCURVE",
"296 629 OFFCURVE",
"328 629 CURVE SMOOTH",
"371 629 OFFCURVE",
"405 615 OFFCURVE",
"430 585 CURVE SMOOTH",
"451 561 OFFCURVE",
"461 531 OFFCURVE",
"461 497 CURVE SMOOTH",
"461 464 OFFCURVE",
"452 433 OFFCURVE",
"434 402 CURVE SMOOTH",
"414 372 OFFCURVE",
"386 350 OFFCURVE",
"347 335 CURVE SMOOTH",
"316 323 OFFCURVE",
"286 318 OFFCURVE",
"255 319 CURVE",
"239 294 LINE",
"252 292 OFFCURVE",
"266 292 OFFCURVE",
"279 292 CURVE SMOOTH",
"310 292 OFFCURVE",
"340 296 OFFCURVE",
"370 304 CURVE SMOOTH",
"424 319 OFFCURVE",
"467 350 OFFCURVE",
"499 394 CURVE SMOOTH",
"525 431 OFFCURVE",
"540 474 OFFCURVE",
"540 522 CURVE SMOOTH",
"540 571 OFFCURVE",
"525 607 OFFCURVE",
"495 633 CURVE SMOOTH",
"465 658 OFFCURVE",
"417 670 OFFCURVE",
"350 670 CURVE SMOOTH",
"330 670 OFFCURVE",
"306 669 OFFCURVE",
"277 667 CURVE SMOOTH",
"227 663 OFFCURVE",
"200 662 OFFCURVE",
"194 662 CURVE SMOOTH",
"125 665 OFFCURVE",
"79 668 OFFCURVE",
"59 671 CURVE",
"43 641 LINE",
"58 645 OFFCURVE",
"72 647 OFFCURVE",
"84 647 CURVE SMOOTH",
"104 647 OFFCURVE",
"119 642 OFFCURVE",
"131 632 CURVE",
"136 626 OFFCURVE",
"139 598 OFFCURVE",
"139 549 CURVE SMOOTH",
"139 490 OFFCURVE",
"135 401 OFFCURVE",
"127 283 CURVE SMOOTH",
"119 164 OFFCURVE",
"109 91 OFFCURVE",
"100 64 CURVE SMOOTH",
"89 35 OFFCURVE",
"56 22 OFFCURVE",
"-3 23 CURVE",
"-16 -6 LINE"
);
}
);
};
layerId = "24D0D9E8-BA2F-4B13-8DB9-88CA40D3CAFC";
paths = (
{
closed = 1;
nodes = (
"138 3 LINE SMOOTH",
"145 4 OFFCURVE",
"153 4 OFFCURVE",
"162 4 CURVE SMOOTH",
"186 4 OFFCURVE",
"216 3 OFFCURVE",
"252 0 CURVE SMOOTH",
"270 -2 OFFCURVE",
"290 -4 OFFCURVE",
"309 -5 CURVE",
"321 18 LINE",
"317 24 LINE",
"307 22 OFFCURVE",
"286 23 OFFCURVE",
"258 28 CURVE SMOOTH",
"226 33 OFFCURVE",
"206 40 OFFCURVE",
"202 48 CURVE",
"199 58 OFFCURVE",
"198 77 OFFCURVE",
"198 104 CURVE SMOOTH",
"198 140 OFFCURVE",
"200 192 OFFCURVE",
"205 259 CURVE SMOOTH",
"215 403 LINE SMOOTH",
"221 492 OFFCURVE",
"228 559 OFFCURVE",
"236 602 CURVE SMOOTH",
"239 615 OFFCURVE",
"248 623 OFFCURVE",
"265 626 CURVE SMOOTH",
"273 628 OFFCURVE",
"296 629 OFFCURVE",
"328 629 CURVE SMOOTH",
"371 629 OFFCURVE",
"405 615 OFFCURVE",
"430 585 CURVE SMOOTH",
"451 561 OFFCURVE",
"461 531 OFFCURVE",
"461 497 CURVE SMOOTH",
"461 464 OFFCURVE",
"452 433 OFFCURVE",
"434 402 CURVE SMOOTH",
"414 372 OFFCURVE",
"386 350 OFFCURVE",
"347 335 CURVE SMOOTH",
"316 323 OFFCURVE",
"286 318 OFFCURVE",
"255 319 CURVE",
"239 294 LINE",
"252 292 OFFCURVE",
"266 292 OFFCURVE",
"279 292 CURVE SMOOTH",
"310 292 OFFCURVE",
"340 296 OFFCURVE",
"370 304 CURVE SMOOTH",
"424 319 OFFCURVE",
"467 350 OFFCURVE",
"499 394 CURVE SMOOTH",
"525 431 OFFCURVE",
"540 474 OFFCURVE",
"540 522 CURVE SMOOTH",
"540 571 OFFCURVE",
"525 607 OFFCURVE",
"495 633 CURVE SMOOTH",
"465 658 OFFCURVE",
"417 670 OFFCURVE",
"350 670 CURVE SMOOTH",
"330 670 OFFCURVE",
"306 669 OFFCURVE",
"277 667 CURVE SMOOTH",
"227 663 OFFCURVE",
"200 662 OFFCURVE",
"194 662 CURVE SMOOTH",
"125 665 OFFCURVE",
"79 668 OFFCURVE",
"59 671 CURVE",
"43 641 LINE",
"58 645 OFFCURVE",
"72 647 OFFCURVE",
"84 647 CURVE SMOOTH",
"104 647 OFFCURVE",
"119 642 OFFCURVE",
"131 632 CURVE",
"136 626 OFFCURVE",
"139 598 OFFCURVE",
"139 549 CURVE SMOOTH",
"139 490 OFFCURVE",
"135 401 OFFCURVE",
"127 283 CURVE SMOOTH",
"119 164 OFFCURVE",
"109 91 OFFCURVE",
"100 64 CURVE SMOOTH",
"89 35 OFFCURVE",
"56 22 OFFCURVE",
"-3 23 CURVE",
"-16 -6 LINE"
);
}
);
width = 579;
}
);
note = P;
unicode = 0050;
},
{
glyphname = Thorn;
lastChange = "2021-11-03 23:13:38 +0000";
layers = (
{
layerId = "24D0D9E8-BA2F-4B13-8DB9-88CA40D3CAFC";
paths = (
{
closed = 1;
nodes = (
"326 -168 LINE",
"319 -169 OFFCURVE",
"312 -170 OFFCURVE",
"305 -170 CURVE SMOOTH",
"290 -170 OFFCURVE",
"273 -167 OFFCURVE",
"254 -161 CURVE SMOOTH",
"229 -152 OFFCURVE",
"216 -140 OFFCURVE",
"213 -124 CURVE SMOOTH",
"207 -96 OFFCURVE",
"205 -12 OFFCURVE",
"205 155 CURVE SMOOTH",
"205 183 LINE",
"206 187 OFFCURVE",
"207 193 OFFCURVE",
"207 198 CURVE SMOOTH",
"205 260 LINE SMOOTH",
"204 284 OFFCURVE",
"205 319 OFFCURVE",
"207 366 CURVE SMOOTH",
"208 408 OFFCURVE",
"210 442 OFFCURVE",
"213 467 CURVE SMOOTH",
"215 479 OFFCURVE",
"225 487 OFFCURVE",
"245 490 CURVE",
"254 490 LINE SMOOTH",
"266 490 OFFCURVE",
"286 491 OFFCURVE",
"316 491 CURVE SMOOTH",
"359 491 OFFCURVE",
"394 476 OFFCURVE",
"421 446 CURVE SMOOTH",
"446 419 OFFCURVE",
"459 385 OFFCURVE",
"459 345 CURVE SMOOTH",
"459 318 OFFCURVE",
"452 291 OFFCURVE",
"437 263 CURVE SMOOTH",
"420 233 OFFCURVE",
"392 210 OFFCURVE",
"356 196 CURVE SMOOTH",
"324 184 OFFCURVE",
"294 180 OFFCURVE",
"265 181 CURVE",
"251 154 LINE",
"261 153 OFFCURVE",
"272 153 OFFCURVE",
"282 153 CURVE SMOOTH",
"316 153 OFFCURVE",
"349 157 OFFCURVE",
"381 166 CURVE SMOOTH",
"435 182 OFFCURVE",
"475 212 OFFCURVE",
"503 256 CURVE SMOOTH",
"525 290 OFFCURVE",
"536 328 OFFCURVE",
"536 371 CURVE SMOOTH",
"536 425 OFFCURVE",
"518 466 OFFCURVE",
"482 494 CURVE SMOOTH",
"450 519 OFFCURVE",
"401 532 OFFCURVE",
"335 532 CURVE SMOOTH",
"315 532 OFFCURVE",
"291 531 OFFCURVE",
"263 528 CURVE SMOOTH",
"224 525 LINE SMOOTH",
"219 525 OFFCURVE",
"215 525 OFFCURVE",
"211 524 CURVE",
"213 586 OFFCURVE",
"214 620 OFFCURVE",
"215 627 CURVE SMOOTH",
"216 637 OFFCURVE",
"217 645 OFFCURVE",
"219 655 CURVE",
"219 660 LINE SMOOTH",
"219 669 OFFCURVE",
"214 674 OFFCURVE",
"204 674 CURVE SMOOTH",
"200 674 OFFCURVE",
"190 673 OFFCURVE",
"178 670 CURVE SMOOTH",
"164 667 OFFCURVE",
"154 666 OFFCURVE",
"145 666 CURVE SMOOTH",
"92 668 OFFCURVE",
"58 670 OFFCURVE",
"44 671 CURVE",
"30 642 LINE",
"46 646 OFFCURVE",
"60 648 OFFCURVE",
"72 648 CURVE SMOOTH",
"91 648 OFFCURVE",
"105 644 OFFCURVE",
"116 634 CURVE SMOOTH",
"120 631 OFFCURVE",
"124 587 OFFCURVE",
"128 505 CURVE SMOOTH",
"133 411 OFFCURVE",
"136 321 OFFCURVE",
"136 235 CURVE SMOOTH",
"136 89 LINE SMOOTH",
"135 -32 OFFCURVE",
"132 -100 OFFCURVE",
"126 -124 CURVE SMOOTH",
"123 -139 OFFCURVE",
"111 -152 OFFCURVE",
"91 -159 CURVE SMOOTH",
"75 -166 OFFCURVE",
"57 -169 OFFCURVE",
"36 -169 CURVE SMOOTH",
"28 -169 OFFCURVE",
"23 -169 OFFCURVE",
"19 -167 CURVE",
"8 -193 LINE",
"47 -191 OFFCURVE",
"79 -189 OFFCURVE",
"104 -187 CURVE SMOOTH",
"143 -185 OFFCURVE",
"165 -183 OFFCURVE",
"172 -183 CURVE SMOOTH",
"251 -185 OFFCURVE",
"294 -189 OFFCURVE",
"309 -194 CURVE"
);
}
);
width = 628;
}
);
note = Thorn;
unicode = 00DE;
},
{
glyphname = Q;
lastChange = "2021-11-03 23:18:53 +0000";
layers = (
{
background = {
paths = (
{
closed = 1;
nodes = (
"793 -216 OFFCURVE",
"844 -206 OFFCURVE",
"909 -185 CURVE",
"923 -158 LINE",
"901 -164 OFFCURVE",
"881 -166 OFFCURVE",
"861 -166 CURVE SMOOTH",
"793 -166 OFFCURVE",
"714 -131 OFFCURVE",
"624 -62 CURVE SMOOTH",
"595 -39 OFFCURVE",
"561 -18 OFFCURVE",
"523 3 CURVE",
"663 50 OFFCURVE",
"739 165 OFFCURVE",
"751 346 CURVE SMOOTH",
"752 359 OFFCURVE",
"752 371 OFFCURVE",
"752 384 CURVE SMOOTH",
"752 478 OFFCURVE",
"725 551 OFFCURVE",
"670 601 CURVE SMOOTH",
"612 655 OFFCURVE",
"525 683 OFFCURVE",
"411 683 CURVE SMOOTH",
"295 683 OFFCURVE",
"206 655 OFFCURVE",
"140 600 CURVE SMOOTH",
"72 544 OFFCURVE",
"34 460 OFFCURVE",
"26 346 CURVE SMOOTH",
"25 330 OFFCURVE",
"24 315 OFFCURVE",
"24 300 CURVE SMOOTH",
"24 86 OFFCURVE",
"138 -21 OFFCURVE",
"364 -21 CURVE SMOOTH",
"397 -21 OFFCURVE",
"429 -18 OFFCURVE",
"458 -13 CURVE",
"485 -33 OFFCURVE",
"505 -49 OFFCURVE",
"517 -61 CURVE SMOOTH",
"634 -169 LINE SMOOTH",
"668 -201 OFFCURVE",
"709 -216 OFFCURVE",
"756 -216 CURVE SMOOTH"
);
},
{
closed = 1;
nodes = (
"289 18 OFFCURVE",
"225 54 OFFCURVE",
"177 124 CURVE SMOOTH",
"138 183 OFFCURVE",
"120 248 OFFCURVE",
"120 323 CURVE SMOOTH",
"120 333 OFFCURVE",
"120 344 OFFCURVE",
"121 355 CURVE SMOOTH",
"126 430 OFFCURVE",
"149 492 OFFCURVE",
"189 543 CURVE SMOOTH",
"233 599 OFFCURVE",
"293 632 OFFCURVE",
"369 642 CURVE SMOOTH",
"382 643 OFFCURVE",
"394 644 OFFCURVE",
"407 644 CURVE SMOOTH",
"491 644 OFFCURVE",
"556 610 OFFCURVE",
"602 543 CURVE SMOOTH",
"639 489 OFFCURVE",
"656 425 OFFCURVE",
"656 353 CURVE SMOOTH",
"656 342 OFFCURVE",
"656 331 OFFCURVE",
"655 320 CURVE SMOOTH",
"650 244 OFFCURVE",
"627 178 OFFCURVE",
"585 123 CURVE SMOOTH",
"538 63 OFFCURVE",
"479 29 OFFCURVE",
"405 20 CURVE SMOOTH",
"394 18 OFFCURVE",
"383 18 OFFCURVE",
"371 18 CURVE SMOOTH"
);
}
);
};
layerId = "24D0D9E8-BA2F-4B13-8DB9-88CA40D3CAFC";
paths = (
{
closed = 1;
nodes = (
"793 -216 OFFCURVE",
"844 -206 OFFCURVE",
"909 -185 CURVE",
"923 -158 LINE",
"901 -164 OFFCURVE",
"881 -166 OFFCURVE",
"861 -166 CURVE SMOOTH",
"793 -166 OFFCURVE",
"714 -131 OFFCURVE",
"624 -62 CURVE SMOOTH",
"595 -39 OFFCURVE",
"561 -18 OFFCURVE",
"523 3 CURVE",
"663 50 OFFCURVE",
"739 165 OFFCURVE",
"751 346 CURVE SMOOTH",
"752 359 OFFCURVE",
"752 371 OFFCURVE",
"752 384 CURVE SMOOTH",
"752 478 OFFCURVE",
"725 551 OFFCURVE",
"670 601 CURVE SMOOTH",
"612 655 OFFCURVE",
"525 683 OFFCURVE",
"411 683 CURVE SMOOTH",
"295 683 OFFCURVE",
"206 655 OFFCURVE",
"140 600 CURVE SMOOTH",
"72 544 OFFCURVE",
"34 460 OFFCURVE",
"26 346 CURVE SMOOTH",
"25 330 OFFCURVE",
"24 315 OFFCURVE",
"24 300 CURVE SMOOTH",
"24 86 OFFCURVE",
"138 -21 OFFCURVE",
"364 -21 CURVE SMOOTH",
"397 -21 OFFCURVE",
"429 -18 OFFCURVE",
"458 -13 CURVE",
"485 -33 OFFCURVE",
"505 -49 OFFCURVE",
"517 -61 CURVE SMOOTH",
"634 -169 LINE SMOOTH",
"668 -201 OFFCURVE",
"709 -216 OFFCURVE",
"756 -216 CURVE SMOOTH"
);
},
{
closed = 1;
nodes = (
"289 18 OFFCURVE",
"225 54 OFFCURVE",
"177 124 CURVE SMOOTH",
"138 183 OFFCURVE",
"120 248 OFFCURVE",
"120 323 CURVE SMOOTH",
"120 333 OFFCURVE",
"120 344 OFFCURVE",
"121 355 CURVE SMOOTH",
"126 430 OFFCURVE",
"149 492 OFFCURVE",
"189 543 CURVE SMOOTH",
"233 599 OFFCURVE",
"293 632 OFFCURVE",
"369 642 CURVE SMOOTH",
"382 643 OFFCURVE",
"394 644 OFFCURVE",
"407 644 CURVE SMOOTH",
"491 644 OFFCURVE",
"556 610 OFFCURVE",
"602 543 CURVE SMOOTH",
"639 489 OFFCURVE",
"656 425 OFFCURVE",
"656 353 CURVE SMOOTH",
"656 342 OFFCURVE",
"656 331 OFFCURVE",
"655 320 CURVE SMOOTH",
"650 244 OFFCURVE",
"627 178 OFFCURVE",
"585 123 CURVE SMOOTH",
"538 63 OFFCURVE",
"479 29 OFFCURVE",
"405 20 CURVE SMOOTH",
"394 18 OFFCURVE",
"383 18 OFFCURVE",
"371 18 CURVE SMOOTH"
);
}
);
width = 786;
}
);
leftKerningGroup = O;
note = Q;
rightKerningGroup = O;
unicode = 0051;
},
{
glyphname = R;
lastChange = "2021-11-03 23:18:53 +0000";
layers = (
{
background = {
paths = (
{
closed = 1;
nodes = (
"659 -13 OFFCURVE",
"685 -11 OFFCURVE",
"714 -8 CURVE",
"730 18 LINE",
"669 15 OFFCURVE",
"602 56 OFFCURVE",
"533 140 CURVE SMOOTH",
"483 199 OFFCURVE",
"440 265 OFFCURVE",
"404 339 CURVE",
"432 347 OFFCURVE",
"460 365 OFFCURVE",
"488 395 CURVE SMOOTH",
"526 436 OFFCURVE",
"544 481 OFFCURVE",
"544 531 CURVE SMOOTH",
"544 583 OFFCURVE",
"526 620 OFFCURVE",
"491 642 CURVE SMOOTH",
"462 661 OFFCURVE",
"418 670 OFFCURVE",
"359 670 CURVE SMOOTH",
"342 670 OFFCURVE",
"315 669 OFFCURVE",
"279 667 CURVE SMOOTH",
"241 664 OFFCURVE",
"212 663 OFFCURVE",
"197 662 CURVE",
"126 665 OFFCURVE",
"81 668 OFFCURVE",
"62 671 CURVE",
"44 641 LINE",
"60 645 OFFCURVE",
"74 647 OFFCURVE",
"87 647 CURVE SMOOTH",
"107 647 OFFCURVE",
"122 642 OFFCURVE",
"133 632 CURVE",
"138 626 OFFCURVE",
"141 598 OFFCURVE",
"141 549 CURVE SMOOTH",
"141 490 OFFCURVE",
"137 401 OFFCURVE",
"129 283 CURVE SMOOTH",
"121 173 OFFCURVE",
"112 98 OFFCURVE",
"103 66 CURVE SMOOTH",
"98 50 OFFCURVE",
"84 38 OFFCURVE",
"63 30 CURVE SMOOTH",
"47 23 OFFCURVE",
"29 20 OFFCURVE",
"6 20 CURVE SMOOTH",
"-2 20 OFFCURVE",
"-7 20 OFFCURVE",
"-11 22 CURVE",
"-25 -7 LINE",
"68 0 OFFCURVE",
"133 3 OFFCURVE",
"168 3 CURVE SMOOTH",
"216 3 OFFCURVE",
"260 0 OFFCURVE",
"299 -7 CURVE",
"317 23 LINE",
"250 23 OFFCURVE",
"211 35 OFFCURVE",
"204 54 CURVE SMOOTH",
"201 63 OFFCURVE",
"200 81 OFFCURVE",
"200 108 CURVE SMOOTH",
"200 144 OFFCURVE",
"202 195 OFFCURVE",
"207 259 CURVE SMOOTH",
"217 403 LINE SMOOTH",
"223 492 OFFCURVE",
"231 559 OFFCURVE",
"238 603 CURVE SMOOTH",
"241 615 OFFCURVE",
"250 623 OFFCURVE",
"267 626 CURVE SMOOTH",
"277 628 OFFCURVE",
"298 629 OFFCURVE",
"330 629 CURVE SMOOTH",
"371 629 OFFCURVE",
"405 616 OFFCURVE",
"429 589 CURVE SMOOTH",
"452 564 OFFCURVE",
"461 534 OFFCURVE",
"459 496 CURVE SMOOTH",
"455 445 OFFCURVE",
"435 403 OFFCURVE",
"398 373 CURVE SMOOTH",
"361 346 OFFCURVE",
"317 333 OFFCURVE",
"265 333 CURVE",
"249 306 LINE",
"267 306 OFFCURVE",
"287 307 OFFCURVE",
"308 310 CURVE",
"320 299 OFFCURVE",
"330 287 OFFCURVE",
"338 275 CURVE SMOOTH",
"344 266 OFFCURVE",
"354 251 OFFCURVE",
"367 230 CURVE SMOOTH",
"458 80 LINE SMOOTH",
"495 18 OFFCURVE",
"556 -13 OFFCURVE",
"638 -13 CURVE SMOOTH"
);
}
);
};
layerId = "24D0D9E8-BA2F-4B13-8DB9-88CA40D3CAFC";
paths = (
{
closed = 1;
nodes = (
"659 -13 OFFCURVE",
"685 -11 OFFCURVE",
"714 -8 CURVE",
"730 18 LINE",
"669 15 OFFCURVE",
"602 56 OFFCURVE",
"533 140 CURVE SMOOTH",
"483 199 OFFCURVE",
"440 265 OFFCURVE",
"404 339 CURVE",
"432 347 OFFCURVE",
"460 365 OFFCURVE",
"488 395 CURVE SMOOTH",
"526 436 OFFCURVE",
"544 481 OFFCURVE",
"544 531 CURVE SMOOTH",
"544 583 OFFCURVE",
"526 620 OFFCURVE",
"491 642 CURVE SMOOTH",
"462 661 OFFCURVE",
"418 670 OFFCURVE",
"359 670 CURVE SMOOTH",
"342 670 OFFCURVE",
"315 669 OFFCURVE",
"279 667 CURVE SMOOTH",
"241 664 OFFCURVE",
"212 663 OFFCURVE",
"197 662 CURVE",
"126 665 OFFCURVE",
"81 668 OFFCURVE",
"62 671 CURVE",
"44 641 LINE",
"60 645 OFFCURVE",
"74 647 OFFCURVE",
"87 647 CURVE SMOOTH",
"107 647 OFFCURVE",
"122 642 OFFCURVE",
"133 632 CURVE",
"138 626 OFFCURVE",
"141 598 OFFCURVE",
"141 549 CURVE SMOOTH",
"141 490 OFFCURVE",
"137 401 OFFCURVE",
"129 283 CURVE SMOOTH",
"121 173 OFFCURVE",
"112 98 OFFCURVE",
"103 66 CURVE SMOOTH",
"98 50 OFFCURVE",
"84 38 OFFCURVE",
"63 30 CURVE SMOOTH",
"47 23 OFFCURVE",
"29 20 OFFCURVE",
"6 20 CURVE SMOOTH",
"-2 20 OFFCURVE",
"-7 20 OFFCURVE",
"-11 22 CURVE",
"-25 -7 LINE",
"68 0 OFFCURVE",
"133 3 OFFCURVE",
"168 3 CURVE SMOOTH",
"216 3 OFFCURVE",
"260 0 OFFCURVE",
"299 -7 CURVE",
"317 23 LINE",
"250 23 OFFCURVE",
"211 35 OFFCURVE",
"204 54 CURVE SMOOTH",
"201 63 OFFCURVE",
"200 81 OFFCURVE",
"200 108 CURVE SMOOTH",
"200 144 OFFCURVE",
"202 195 OFFCURVE",
"207 259 CURVE SMOOTH",
"217 403 LINE SMOOTH",
"223 492 OFFCURVE",
"231 559 OFFCURVE",
"238 603 CURVE SMOOTH",
"241 615 OFFCURVE",
"250 623 OFFCURVE",
"267 626 CURVE SMOOTH",
"277 628 OFFCURVE",
"298 629 OFFCURVE",
"330 629 CURVE SMOOTH",
"371 629 OFFCURVE",
"405 616 OFFCURVE",
"429 589 CURVE SMOOTH",
"452 564 OFFCURVE",
"461 534 OFFCURVE",
"459 496 CURVE SMOOTH",
"455 445 OFFCURVE",
"435 403 OFFCURVE",
"398 373 CURVE SMOOTH",
"361 346 OFFCURVE",
"317 333 OFFCURVE",
"265 333 CURVE",
"249 306 LINE",
"267 306 OFFCURVE",
"287 307 OFFCURVE",
"308 310 CURVE",
"320 299 OFFCURVE",
"330 287 OFFCURVE",
"338 275 CURVE SMOOTH",
"344 266 OFFCURVE",
"354 251 OFFCURVE",
"367 230 CURVE SMOOTH",
"458 80 LINE SMOOTH",
"495 18 OFFCURVE",
"556 -13 OFFCURVE",
"638 -13 CURVE SMOOTH"
);
}
);
width = 757;
}
);
leftKerningGroup = D;
note = R;
unicode = 0052;
},
{
glyphname = S;
lastChange = "2021-11-03 23:18:53 +0000";
layers = (
{
background = {
paths = (
{
closed = 1;
nodes = (
"185 -23 OFFCURVE",
"235 -13 OFFCURVE",
"276 7 CURVE SMOOTH",
"308 22 OFFCURVE",
"335 45 OFFCURVE",
"356 77 CURVE SMOOTH",
"378 110 OFFCURVE",
"389 146 OFFCURVE",
"389 188 CURVE SMOOTH",
"389 216 OFFCURVE",
"382 243 OFFCURVE",
"368 269 CURVE SMOOTH",
"354 296 OFFCURVE",
"323 323 OFFCURVE",
"278 351 CURVE SMOOTH",
"219 388 OFFCURVE",
"184 411 OFFCURVE",
"173 422 CURVE SMOOTH",
"143 448 OFFCURVE",
"128 479 OFFCURVE",
"128 512 CURVE SMOOTH",
"128 556 OFFCURVE",
"142 589 OFFCURVE",
"170 612 CURVE SMOOTH",
"193 631 OFFCURVE",
"219 640 OFFCURVE",
"252 640 CURVE SMOOTH",
"284 640 OFFCURVE",
"310 631 OFFCURVE",
"333 613 CURVE SMOOTH",
"345 604 OFFCURVE",
"350 589 OFFCURVE",
"350 569 CURVE SMOOTH",
"350 544 OFFCURVE",
"346 526 OFFCURVE",
"340 516 CURVE",
"369 503 LINE",
"372 549 OFFCURVE",
"382 590 OFFCURVE",
"399 628 CURVE",
"399 629 LINE",
"399 633 LINE SMOOTH",
"400 642 OFFCURVE",
"392 650 OFFCURVE",
"376 659 CURVE",
"351 670 OFFCURVE",
"319 676 OFFCURVE",
"281 676 CURVE SMOOTH",
"280 676 LINE SMOOTH",
"218 676 OFFCURVE",
"165 657 OFFCURVE",
"123 620 CURVE SMOOTH",
"73 579 OFFCURVE",
"49 527 OFFCURVE",
"49 467 CURVE SMOOTH",
"49 427 OFFCURVE",
"65 393 OFFCURVE",
"96 366 CURVE",
"98 363 OFFCURVE",
"117 352 OFFCURVE",
"201 300 CURVE SMOOTH",
"244 273 OFFCURVE",
"273 243 OFFCURVE",
"285 209 CURVE SMOOTH",
"292 191 OFFCURVE",
"296 172 OFFCURVE",
"296 151 CURVE SMOOTH",
"296 90 OFFCURVE",
"274 51 OFFCURVE",
"234 30 CURVE SMOOTH",
"215 20 OFFCURVE",
"192 14 OFFCURVE",
"167 14 CURVE SMOOTH",
"139 14 OFFCURVE",
"112 20 OFFCURVE",
"86 34 CURVE SMOOTH",
"63 46 OFFCURVE",
"48 62 OFFCURVE",
"45 79 CURVE SMOOTH",
"44 87 OFFCURVE",
"45 116 OFFCURVE",
"48 163 CURVE",
"18 152 LINE",
"16 116 OFFCURVE",
"12 71 OFFCURVE",
"5 14 CURVE",
"5 7 OFFCURVE",
"7 1 OFFCURVE",
"13 -2 CURVE SMOOTH",
"39 -16 OFFCURVE",
"78 -23 OFFCURVE",
"128 -23 CURVE SMOOTH"
);
}
);
};
layerId = "24D0D9E8-BA2F-4B13-8DB9-88CA40D3CAFC";
paths = (
{
closed = 1;
nodes = (
"185 -23 OFFCURVE",
"235 -13 OFFCURVE",
"276 7 CURVE SMOOTH",
"308 22 OFFCURVE",
"335 45 OFFCURVE",
"356 77 CURVE SMOOTH",
"378 110 OFFCURVE",
"389 146 OFFCURVE",
"389 188 CURVE SMOOTH",
"389 216 OFFCURVE",
"382 243 OFFCURVE",
"368 269 CURVE SMOOTH",
"354 296 OFFCURVE",
"323 323 OFFCURVE",
"278 351 CURVE SMOOTH",
"219 388 OFFCURVE",
"184 411 OFFCURVE",
"173 422 CURVE SMOOTH",
"143 448 OFFCURVE",
"128 479 OFFCURVE",
"128 512 CURVE SMOOTH",
"128 556 OFFCURVE",
"142 589 OFFCURVE",
"170 612 CURVE SMOOTH",
"193 631 OFFCURVE",
"219 640 OFFCURVE",
"252 640 CURVE SMOOTH",
"284 640 OFFCURVE",
"310 631 OFFCURVE",
"333 613 CURVE SMOOTH",
"345 604 OFFCURVE",
"350 589 OFFCURVE",
"350 569 CURVE SMOOTH",
"350 544 OFFCURVE",
"346 526 OFFCURVE",
"340 516 CURVE",
"369 503 LINE",
"372 549 OFFCURVE",
"382 590 OFFCURVE",
"399 628 CURVE",
"399 629 LINE",
"399 633 LINE SMOOTH",
"400 642 OFFCURVE",
"392 650 OFFCURVE",
"376 659 CURVE",
"351 670 OFFCURVE",
"319 676 OFFCURVE",
"281 676 CURVE SMOOTH",
"280 676 LINE SMOOTH",
"218 676 OFFCURVE",
"165 657 OFFCURVE",
"123 620 CURVE SMOOTH",
"73 579 OFFCURVE",
"49 527 OFFCURVE",
"49 467 CURVE SMOOTH",
"49 427 OFFCURVE",
"65 393 OFFCURVE",
"96 366 CURVE",
"98 363 OFFCURVE",
"117 352 OFFCURVE",
"201 300 CURVE SMOOTH",
"244 273 OFFCURVE",
"273 243 OFFCURVE",
"285 209 CURVE SMOOTH",
"292 191 OFFCURVE",
"296 172 OFFCURVE",
"296 151 CURVE SMOOTH",
"296 90 OFFCURVE",
"274 51 OFFCURVE",
"234 30 CURVE SMOOTH",
"215 20 OFFCURVE",
"192 14 OFFCURVE",
"167 14 CURVE SMOOTH",
"139 14 OFFCURVE",
"112 20 OFFCURVE",
"86 34 CURVE SMOOTH",
"63 46 OFFCURVE",
"48 62 OFFCURVE",
"45 79 CURVE SMOOTH",
"44 87 OFFCURVE",
"45 116 OFFCURVE",
"48 163 CURVE",
"18 152 LINE",
"16 116 OFFCURVE",
"12 71 OFFCURVE",
"5 14 CURVE",
"5 7 OFFCURVE",
"7 1 OFFCURVE",
"13 -2 CURVE SMOOTH",
"39 -16 OFFCURVE",
"78 -23 OFFCURVE",
"128 -23 CURVE SMOOTH"
);
}
);
width = 436;
}
);
leftKerningGroup = S;
note = S;
rightKerningGroup = S;
unicode = 0053;
},
{
color = 3;
glyphname = Germandbls;
lastChange = "2021-11-03 23:13:38 +0000";
layers = (
{
background = {
hints = (
{
horizontal = 1;
place = "{-10, 94}";
type = Stem;
},
{
horizontal = 1;
place = "{1456, 82}";
type = Stem;
},
{
horizontal = 1;
place = "{2532, 127}";
type = Stem;
},
{
place = "{572, 288}";
type = Stem;
},
{
place = "{1800, 251}";
type = Stem;
},
{
place = "{2096, 304}";
type = Stem;
},
{
horizontal = 1;
place = "{2666, -20}";
target = down;
type = TopGhost;
}
);
paths = (
{
closed = 1;
nodes = (
"2400 1025 OFFCURVE",
"2360 1171 OFFCURVE",
"2280 1272 CURVE SMOOTH",
"2155 1431 OFFCURVE",
"1938 1519 OFFCURVE",
"1631 1538 CURVE",
"1760 1593 OFFCURVE",
"1862 1672 OFFCURVE",
"1936 1774 CURVE SMOOTH",
"2013 1880 OFFCURVE",
"2051 2001 OFFCURVE",
"2051 2136 CURVE SMOOTH",
"2051 2307 OFFCURVE",
"1989 2436 OFFCURVE",
"1864 2521 CURVE SMOOTH",
"1729 2613 OFFCURVE",
"1528 2659 OFFCURVE",
"1261 2659 CURVE SMOOTH",
"1195 2659 OFFCURVE",
"1125 2656 OFFCURVE",
"1050 2650 CURVE SMOOTH",
"761 2629 OFFCURVE",
"473 2634 OFFCURVE",
"185 2666 CURVE",
"148 2587 LINE",
"297 2620 OFFCURVE",
"409 2605 OFFCURVE",
"486 2540 CURVE",
"543 2475 OFFCURVE",
"572 2005 OFFCURVE",
"572 1130 CURVE SMOOTH",
"572 652 OFFCURVE",
"556 359 OFFCURVE",
"524 251 CURVE SMOOTH",
"487 129 OFFCURVE",
"357 70 OFFCURVE",
"132 73 CURVE",
"92 -10 LINE",
"338 7 OFFCURVE",
"517 17 OFFCURVE",
"630 18 CURVE SMOOTH",
"849 19 OFFCURVE",
"970 19 OFFCURVE",
"991 18 CURVE SMOOTH",
"1186 4 OFFCURVE",
"1335 -2 OFFCURVE",
"1440 1 CURVE SMOOTH",
"1719 9 OFFCURVE",
"1942 78 OFFCURVE",
"2111 207 CURVE SMOOTH",
"2304 354 OFFCURVE",
"2400 563 OFFCURVE",
"2400 836 CURVE SMOOTH"
);
},
{
closed = 1;
nodes = (
"2102 602 OFFCURVE",
"2035 417 OFFCURVE",
"1894 280 CURVE SMOOTH",
"1761 149 OFFCURVE",
"1585 84 OFFCURVE",
"1368 84 CURVE SMOOTH",
"1200 84 OFFCURVE",
"1096 88 OFFCURVE",
"1055 97 CURVE SMOOTH",
"956 118 OFFCURVE",
"902 171 OFFCURVE",
"892 256 CURVE SMOOTH",
"871 440 OFFCURVE",
"860 700 OFFCURVE",
"860 1036 CURVE SMOOTH",
"860 1612 LINE SMOOTH",
"860 1969 OFFCURVE",
"869 2235 OFFCURVE",
"888 2411 CURVE SMOOTH",
"894 2468 OFFCURVE",
"936 2505 OFFCURVE",
"1014 2521 CURVE SMOOTH",
"1053 2528 OFFCURVE",
"1136 2532 OFFCURVE",
"1263 2532 CURVE SMOOTH",
"1426 2532 OFFCURVE",
"1557 2484 OFFCURVE",
"1658 2387 CURVE SMOOTH",
"1753 2296 OFFCURVE",
"1800 2186 OFFCURVE",
"1800 2055 CURVE SMOOTH",
"1800 1960 OFFCURVE",
"1773 1870 OFFCURVE",
"1719 1785 CURVE SMOOTH",
"1680 1722 OFFCURVE",
"1615 1667 OFFCURVE",
"1524 1619 CURVE SMOOTH",
"1429 1569 OFFCURVE",
"1335 1544 OFFCURVE",
"1244 1544 CURVE SMOOTH",
"1172 1544 LINE",
"1116 1456 LINE",
"1448 1456 LINE SMOOTH",
"1638 1456 OFFCURVE",
"1791 1402 OFFCURVE",
"1908 1293 CURVE SMOOTH",
"2029 1182 OFFCURVE",
"2091 1029 OFFCURVE",
"2096 835 CURVE SMOOTH"
);
}
);
};
layerId = "24D0D9E8-BA2F-4B13-8DB9-88CA40D3CAFC";
paths = (
{
closed = 1;
nodes = (
"327 -18 LINE SMOOTH",
"355 -18 OFFCURVE",
"379 -11 OFFCURVE",
"399 2 CURVE SMOOTH",
"404 5 OFFCURVE",
"418 16 OFFCURVE",
"441 36 CURVE SMOOTH",
"514 96 LINE SMOOTH",
"541 118 OFFCURVE",
"555 148 OFFCURVE",
"555 189 CURVE SMOOTH",
"555 273 OFFCURVE",
"486 334 OFFCURVE",
"342 378 CURVE",
"328 384 OFFCURVE",
"321 389 OFFCURVE",
"321 395 CURVE SMOOTH",
"321 396 LINE SMOOTH",
"321 400 OFFCURVE",
"334 412 OFFCURVE",
"380 447 CURVE SMOOTH",
"439 493 OFFCURVE",
"521 557 OFFCURVE",
"524 600 CURVE SMOOTH",
"528 653 OFFCURVE",
"457 679 OFFCURVE",
"331 679 CURVE SMOOTH",
"314 679 OFFCURVE",
"300 678 OFFCURVE",
"284 677 CURVE SMOOTH",
"218 673 OFFCURVE",
"174 656 OFFCURVE",
"153 624 CURVE SMOOTH",
"132 593 OFFCURVE",
"132 585 OFFCURVE",
"129 511 CURVE SMOOTH",
"128 473 OFFCURVE",
"125 419 OFFCURVE",
"120 336 CURVE SMOOTH",
"102 81 OFFCURVE",
"79 22 OFFCURVE",
"3 22 CURVE SMOOTH",
"-3 22 OFFCURVE",
"-6 18 OFFCURVE",
"-9 9 CURVE SMOOTH",
"-10 5 OFFCURVE",
"-12 -1 OFFCURVE",
"-16 -8 CURVE",
"0 -5 OFFCURVE",
"30 -5 OFFCURVE",
"58 -5 CURVE SMOOTH",
"70 -4 OFFCURVE",
"82 -4 OFFCURVE",
"92 -4 CURVE SMOOTH",
"110 -4 LINE SMOOTH",
"130 -3 OFFCURVE",
"151 -3 OFFCURVE",
"160 4 CURVE SMOOTH",
"173 15 OFFCURVE",
"174 36 OFFCURVE",
"174 55 CURVE",
"175 60 OFFCURVE",
"175 65 OFFCURVE",
"175 70 CURVE SMOOTH",
"190 236 LINE SMOOTH",
"200 365 OFFCURVE",
"211 481 OFFCURVE",
"223 565 CURVE SMOOTH",
"226 594 OFFCURVE",
"238 616 OFFCURVE",
"257 631 CURVE SMOOTH",
"274 645 OFFCURVE",
"294 652 OFFCURVE",
"317 652 CURVE SMOOTH",
"347 652 OFFCURVE",
"373 644 OFFCURVE",
"395 629 CURVE SMOOTH",
"417 611 OFFCURVE",
"427 589 OFFCURVE",
"425 560 CURVE SMOOTH",
"423 524 OFFCURVE",
"359 474 OFFCURVE",
"311 435 CURVE SMOOTH",
"299 425 OFFCURVE",
"288 417 OFFCURVE",
"279 409 CURVE SMOOTH",
"264 396 OFFCURVE",
"257 384 OFFCURVE",
"257 369 CURVE SMOOTH",
"257 355 OFFCURVE",
"266 342 OFFCURVE",
"281 332 CURVE",
"303 321 OFFCURVE",
"325 311 OFFCURVE",
"345 302 CURVE SMOOTH",
"389 281 OFFCURVE",
"426 264 OFFCURVE",
"444 240 CURVE SMOOTH",
"458 218 OFFCURVE",
"465 192 OFFCURVE",
"465 160 CURVE SMOOTH",
"465 109 OFFCURVE",
"445 71 OFFCURVE",
"404 44 CURVE SMOOTH",
"388 34 OFFCURVE",
"370 28 OFFCURVE",
"351 28 CURVE SMOOTH",
"309 28 OFFCURVE",
"269 50 OFFCURVE",
"231 94 CURVE SMOOTH",
"229 96 OFFCURVE",
"226 98 OFFCURVE",
"224 98 CURVE SMOOTH",
"214 98 OFFCURVE",
"211 84 OFFCURVE",
"211 63 CURVE SMOOTH",
"211 38 OFFCURVE",
"217 21 OFFCURVE",
"229 11 CURVE SMOOTH",
"249 -5 OFFCURVE",
"277 -15 OFFCURVE",
"312 -18 CURVE SMOOTH"
);
}
);
width = 592;
}
);
unicode = 1E9E;
},
{
glyphname = Schwa;
lastChange = "2021-11-03 23:13:38 +0000";
layers = (
{
layerId = "24D0D9E8-BA2F-4B13-8DB9-88CA40D3CAFC";
paths = (
{
closed = 1;
nodes = (
"401 -4 OFFCURVE",
"497 42 OFFCURVE",
"544 134 CURVE SMOOTH",
"572 192 OFFCURVE",
"586 266 OFFCURVE",
"586 354 CURVE SMOOTH",
"586 465 OFFCURVE",
"568 545 OFFCURVE",
"532 595 CURVE SMOOTH",
"492 653 OFFCURVE",
"421 682 OFFCURVE",
"320 682 CURVE SMOOTH",
"174 682 OFFCURVE",
"79 663 OFFCURVE",
"39 624 CURVE SMOOTH",
"24 610 OFFCURVE",
"16 592 OFFCURVE",
"20 581 CURVE",
"21 559 OFFCURVE",
"22 540 OFFCURVE",
"24 525 CURVE",
"20 445 LINE SMOOTH",
"19 437 OFFCURVE",
"19 430 OFFCURVE",
"19 424 CURVE",
"56 443 LINE",
"56 448 OFFCURVE",
"57 454 OFFCURVE",
"58 462 CURVE SMOOTH",
"80 579 OFFCURVE",
"155 640 OFFCURVE",
"278 640 CURVE SMOOTH",
"374 640 OFFCURVE",
"444 601 OFFCURVE",
"472 534 CURVE SMOOTH",
"488 495 OFFCURVE",
"491 435 OFFCURVE",
"491 353 CURVE SMOOTH",
"491 314 LINE",
"443 310 OFFCURVE",
"383 308 OFFCURVE",
"297 307 CURVE",
"290 308 OFFCURVE",
"272 307 OFFCURVE",
"243 306 CURVE SMOOTH",
"229 305 OFFCURVE",
"213 305 OFFCURVE",
"194 304 CURVE SMOOTH",
"161 303 OFFCURVE",
"130 304 OFFCURVE",
"102 308 CURVE",
"93 308 OFFCURVE",
"78 291 OFFCURVE",
"56 260 CURVE SMOOTH",
"36 235 OFFCURVE",
"23 217 OFFCURVE",
"16 207 CURVE",
"15 142 OFFCURVE",
"35 91 OFFCURVE",
"74 55 CURVE SMOOTH",
"116 16 OFFCURVE",
"177 -4 OFFCURVE",
"260 -4 CURVE SMOOTH"
);
},
{
closed = 1;
nodes = (
"197 36 OFFCURVE",
"138 81 OFFCURVE",
"115 158 CURVE SMOOTH",
"110 174 OFFCURVE",
"108 189 OFFCURVE",
"108 202 CURVE SMOOTH",
"108 228 OFFCURVE",
"121 248 OFFCURVE",
"137 251 CURVE SMOOTH",
"172 256 OFFCURVE",
"228 260 OFFCURVE",
"305 262 CURVE SMOOTH",
"330 263 OFFCURVE",
"352 263 OFFCURVE",
"371 263 CURVE SMOOTH",
"428 263 OFFCURVE",
"465 261 OFFCURVE",
"487 257 CURVE",
"486 237 OFFCURVE",
"485 218 OFFCURVE",
"484 213 CURVE SMOOTH",
"468 102 OFFCURVE",
"390 36 OFFCURVE",
"278 36 CURVE SMOOTH"
);
}
);
width = 602;
}
);
unicode = 018F;
},
{
glyphname = T;
lastChange = "2021-11-03 23:18:53 +0000";
layers = (
{
background = {
paths = (
{
closed = 1;
nodes = (
"188 0 OFFCURVE",
"245 3 OFFCURVE",
"273 3 CURVE SMOOTH",
"354 4 OFFCURVE",
"403 1 OFFCURVE",
"427 -8 CURVE",
"445 25 LINE",
"436 23 OFFCURVE",
"427 23 OFFCURVE",
"417 23 CURVE SMOOTH",
"403 23 OFFCURVE",
"388 25 OFFCURVE",
"372 29 CURVE SMOOTH",
"345 37 OFFCURVE",
"332 48 OFFCURVE",
"331 65 CURVE SMOOTH",
"330 77 OFFCURVE",
"330 92 OFFCURVE",
"330 109 CURVE SMOOTH",
"330 150 OFFCURVE",
"332 205 OFFCURVE",
"337 274 CURVE SMOOTH",
"346 407 LINE SMOOTH",
"355 528 OFFCURVE",
"363 597 OFFCURVE",
"370 613 CURVE SMOOTH",
"374 623 OFFCURVE",
"382 628 OFFCURVE",
"399 628 CURVE SMOOTH",
"499 628 OFFCURVE",
"554 619 OFFCURVE",
"561 602 CURVE SMOOTH",
"564 596 OFFCURVE",
"565 588 OFFCURVE",
"565 578 CURVE SMOOTH",
"565 561 OFFCURVE",
"561 539 OFFCURVE",
"552 510 CURVE",
"579 499 LINE",
"576 501 OFFCURVE",
"581 527 OFFCURVE",
"594 576 CURVE SMOOTH",
"606 616 OFFCURVE",
"616 647 OFFCURVE",
"625 669 CURVE",
"621 674 LINE",
"532 668 OFFCURVE",
"431 665 OFFCURVE",
"321 665 CURVE SMOOTH",
"234 665 OFFCURVE",
"146 668 OFFCURVE",
"58 674 CURVE",
"54 670 LINE",
"45 624 OFFCURVE",
"37 583 OFFCURVE",
"29 547 CURVE SMOOTH",
"26 534 OFFCURVE",
"24 523 OFFCURVE",
"21 512 CURVE",
"47 500 LINE",
"54 543 OFFCURVE",
"67 577 OFFCURVE",
"85 603 CURVE SMOOTH",
"96 619 OFFCURVE",
"147 628 OFFCURVE",
"238 628 CURVE SMOOTH",
"256 628 OFFCURVE",
"265 623 OFFCURVE",
"266 615 CURVE",
"267 612 OFFCURVE",
"267 605 OFFCURVE",
"267 594 CURVE SMOOTH",
"267 579 OFFCURVE",
"267 556 OFFCURVE",
"266 525 CURVE SMOOTH",
"265 472 OFFCURVE",
"263 433 OFFCURVE",
"261 407 CURVE SMOOTH",
"252 267 LINE SMOOTH",
"246 181 OFFCURVE",
"238 113 OFFCURVE",
"230 66 CURVE",
"220 35 OFFCURVE",
"190 20 OFFCURVE",
"136 20 CURVE SMOOTH",
"129 20 OFFCURVE",
"122 21 OFFCURVE",
"118 23 CURVE",
"101 -8 LINE"
);
}
);
};
layerId = "24D0D9E8-BA2F-4B13-8DB9-88CA40D3CAFC";
paths = (
{
closed = 1;
nodes = (
"188 0 OFFCURVE",
"245 3 OFFCURVE",
"273 3 CURVE SMOOTH",
"354 4 OFFCURVE",
"403 1 OFFCURVE",
"427 -8 CURVE",
"445 25 LINE",
"436 23 OFFCURVE",
"427 23 OFFCURVE",
"417 23 CURVE SMOOTH",
"403 23 OFFCURVE",
"388 25 OFFCURVE",
"372 29 CURVE SMOOTH",
"345 37 OFFCURVE",
"332 48 OFFCURVE",
"331 65 CURVE SMOOTH",
"330 77 OFFCURVE",
"330 92 OFFCURVE",
"330 109 CURVE SMOOTH",
"330 150 OFFCURVE",
"332 205 OFFCURVE",
"337 274 CURVE SMOOTH",
"346 407 LINE SMOOTH",
"355 528 OFFCURVE",
"363 597 OFFCURVE",
"370 613 CURVE SMOOTH",
"374 623 OFFCURVE",
"382 628 OFFCURVE",
"399 628 CURVE SMOOTH",
"499 628 OFFCURVE",
"554 619 OFFCURVE",
"561 602 CURVE SMOOTH",
"564 596 OFFCURVE",
"565 588 OFFCURVE",
"565 578 CURVE SMOOTH",
"565 561 OFFCURVE",
"561 539 OFFCURVE",
"552 510 CURVE",
"579 499 LINE",
"576 501 OFFCURVE",
"581 527 OFFCURVE",
"594 576 CURVE SMOOTH",
"606 616 OFFCURVE",
"616 647 OFFCURVE",
"625 669 CURVE",
"621 674 LINE",
"532 668 OFFCURVE",
"431 665 OFFCURVE",
"321 665 CURVE SMOOTH",
"234 665 OFFCURVE",
"146 668 OFFCURVE",
"58 674 CURVE",
"54 670 LINE",
"45 624 OFFCURVE",
"37 583 OFFCURVE",
"29 547 CURVE SMOOTH",
"26 534 OFFCURVE",
"24 523 OFFCURVE",
"21 512 CURVE",
"47 500 LINE",
"54 543 OFFCURVE",
"67 577 OFFCURVE",
"85 603 CURVE SMOOTH",
"96 619 OFFCURVE",
"147 628 OFFCURVE",
"238 628 CURVE SMOOTH",
"256 628 OFFCURVE",
"265 623 OFFCURVE",
"266 615 CURVE",
"267 612 OFFCURVE",
"267 605 OFFCURVE",
"267 594 CURVE SMOOTH",
"267 579 OFFCURVE",
"267 556 OFFCURVE",
"266 525 CURVE SMOOTH",
"265 472 OFFCURVE",
"263 433 OFFCURVE",
"261 407 CURVE SMOOTH",
"252 267 LINE SMOOTH",
"246 181 OFFCURVE",
"238 113 OFFCURVE",
"230 66 CURVE",
"220 35 OFFCURVE",
"190 20 OFFCURVE",
"136 20 CURVE SMOOTH",
"129 20 OFFCURVE",
"122 21 OFFCURVE",
"118 23 CURVE",
"101 -8 LINE"
);
}
);
width = 629;
}
);
leftKerningGroup = T;
note = T;
rightKerningGroup = T;
unicode = 0054;
},
{
glyphname = U;
lastChange = "2021-11-03 23:18:53 +0000";
layers = (
{
background = {
paths = (
{
closed = 1;
nodes = (
"461 -24 OFFCURVE",
"527 -4 OFFCURVE",
"581 36 CURVE SMOOTH",
"649 85 OFFCURVE",
"688 163 OFFCURVE",
"695 269 CURVE SMOOTH",
"709 476 LINE SMOOTH",
"714 556 OFFCURVE",
"723 606 OFFCURVE",
"735 627 CURVE",
"748 642 OFFCURVE",
"768 649 OFFCURVE",
"794 649 CURVE SMOOTH",
"800 649 OFFCURVE",
"806 649 OFFCURVE",
"812 648 CURVE",
"835 675 LINE",
"789 671 OFFCURVE",
"738 666 OFFCURVE",
"682 664 CURVE",
"618 667 OFFCURVE",
"575 670 OFFCURVE",
"552 673 CURVE",
"535 643 LINE",
"546 646 OFFCURVE",
"558 648 OFFCURVE",
"571 648 CURVE SMOOTH",
"608 648 OFFCURVE",
"627 641 OFFCURVE",
"633 634 CURVE SMOOTH",
"646 619 OFFCURVE",
"653 580 OFFCURVE",
"653 515 CURVE SMOOTH",
"653 487 OFFCURVE",
"652 453 OFFCURVE",
"649 414 CURVE SMOOTH",
"638 253 LINE SMOOTH",
"633 180 OFFCURVE",
"609 121 OFFCURVE",
"568 80 CURVE SMOOTH",
"523 37 OFFCURVE",
"461 16 OFFCURVE",
"383 16 CURVE SMOOTH",
"250 16 OFFCURVE",
"185 82 OFFCURVE",
"185 217 CURVE SMOOTH",
"185 227 OFFCURVE",
"185 237 OFFCURVE",
"186 247 CURVE SMOOTH",
"193 348 OFFCURVE",
"198 414 OFFCURVE",
"197 395 CURVE SMOOTH",
"206 529 OFFCURVE",
"216 603 OFFCURVE",
"229 627 CURVE",
"244 642 OFFCURVE",
"263 649 OFFCURVE",
"288 649 CURVE SMOOTH",
"294 649 OFFCURVE",
"300 649 OFFCURVE",
"306 648 CURVE",
"329 675 LINE",
"283 671 OFFCURVE",
"232 666 OFFCURVE",
"176 664 CURVE",
"106 667 OFFCURVE",
"61 670 OFFCURVE",
"41 673 CURVE",
"25 643 LINE",
"40 647 OFFCURVE",
"54 649 OFFCURVE",
"66 649 CURVE SMOOTH",
"86 649 OFFCURVE",
"101 644 OFFCURVE",
"113 634 CURVE",
"120 626 OFFCURVE",
"123 599 OFFCURVE",
"123 551 CURVE SMOOTH",
"123 511 OFFCURVE",
"121 457 OFFCURVE",
"116 389 CURVE SMOOTH",
"105 222 LINE SMOOTH",
"99 134 OFFCURVE",
"120 70 OFFCURVE",
"170 30 CURVE SMOOTH",
"214 -6 OFFCURVE",
"285 -24 OFFCURVE",
"381 -24 CURVE SMOOTH"
);
}
);
};
layerId = "24D0D9E8-BA2F-4B13-8DB9-88CA40D3CAFC";
paths = (
{
closed = 1;
nodes = (
"461 -24 OFFCURVE",
"527 -4 OFFCURVE",
"581 36 CURVE SMOOTH",
"649 85 OFFCURVE",
"688 163 OFFCURVE",
"695 269 CURVE SMOOTH",
"709 476 LINE SMOOTH",
"714 556 OFFCURVE",
"723 606 OFFCURVE",
"735 627 CURVE",
"748 642 OFFCURVE",
"768 649 OFFCURVE",
"794 649 CURVE SMOOTH",
"800 649 OFFCURVE",
"806 649 OFFCURVE",
"812 648 CURVE",
"835 675 LINE",
"789 671 OFFCURVE",
"738 666 OFFCURVE",
"682 664 CURVE",
"618 667 OFFCURVE",
"575 670 OFFCURVE",
"552 673 CURVE",
"535 643 LINE",
"546 646 OFFCURVE",
"558 648 OFFCURVE",
"571 648 CURVE SMOOTH",
"608 648 OFFCURVE",
"627 641 OFFCURVE",
"633 634 CURVE SMOOTH",
"646 619 OFFCURVE",
"653 580 OFFCURVE",
"653 515 CURVE SMOOTH",
"653 487 OFFCURVE",
"652 453 OFFCURVE",
"649 414 CURVE SMOOTH",
"638 253 LINE SMOOTH",
"633 180 OFFCURVE",
"609 121 OFFCURVE",
"568 80 CURVE SMOOTH",
"523 37 OFFCURVE",
"461 16 OFFCURVE",
"383 16 CURVE SMOOTH",
"250 16 OFFCURVE",
"185 82 OFFCURVE",
"185 217 CURVE SMOOTH",
"185 227 OFFCURVE",
"185 237 OFFCURVE",
"186 247 CURVE SMOOTH",
"193 348 OFFCURVE",
"198 414 OFFCURVE",
"197 395 CURVE SMOOTH",
"206 529 OFFCURVE",
"216 603 OFFCURVE",
"229 627 CURVE",
"244 642 OFFCURVE",
"263 649 OFFCURVE",
"288 649 CURVE SMOOTH",
"294 649 OFFCURVE",
"300 649 OFFCURVE",
"306 648 CURVE",
"329 675 LINE",
"283 671 OFFCURVE",
"232 666 OFFCURVE",
"176 664 CURVE",
"106 667 OFFCURVE",
"61 670 OFFCURVE",
"41 673 CURVE",
"25 643 LINE",
"40 647 OFFCURVE",
"54 649 OFFCURVE",
"66 649 CURVE SMOOTH",
"86 649 OFFCURVE",
"101 644 OFFCURVE",
"113 634 CURVE",
"120 626 OFFCURVE",
"123 599 OFFCURVE",
"123 551 CURVE SMOOTH",
"123 511 OFFCURVE",
"121 457 OFFCURVE",
"116 389 CURVE SMOOTH",
"105 222 LINE SMOOTH",
"99 134 OFFCURVE",
"120 70 OFFCURVE",
"170 30 CURVE SMOOTH",
"214 -6 OFFCURVE",
"285 -24 OFFCURVE",
"381 -24 CURVE SMOOTH"
);
}
);
width = 824;
}
);
note = U;
rightKerningGroup = U;
unicode = 0055;
},
{
glyphname = V;
lastChange = "2021-11-03 23:18:53 +0000";
layers = (
{
background = {
paths = (
{
closed = 1;
nodes = (
"362 -31 LINE",
"380 36 OFFCURVE",
"430 153 OFFCURVE",
"512 322 CURVE SMOOTH",
"601 504 OFFCURVE",
"665 607 OFFCURVE",
"699 628 CURVE SMOOTH",
"721 640 OFFCURVE",
"743 646 OFFCURVE",
"765 646 CURVE",
"784 674 LINE",
"741 669 OFFCURVE",
"710 667 OFFCURVE",
"689 667 CURVE SMOOTH",
"634 666 OFFCURVE",
"592 662 OFFCURVE",
"592 659 CURVE SMOOTH",
"592 658 OFFCURVE",
"605 657 OFFCURVE",
"638 657 CURVE SMOOTH",
"642 657 OFFCURVE",
"626 666 OFFCURVE",
"589 668 CURVE SMOOTH",
"545 669 OFFCURVE",
"521 671 OFFCURVE",
"515 674 CURVE",
"492 642 LINE",
"503 643 OFFCURVE",
"513 645 OFFCURVE",
"526 645 CURVE SMOOTH",
"564 645 OFFCURVE",
"582 635 OFFCURVE",
"582 614 CURVE SMOOTH",
"582 589 OFFCURVE",
"547 498 OFFCURVE",
"488 363 CURVE SMOOTH",
"432 235 OFFCURVE",
"392 150 OFFCURVE",
"368 106 CURVE",
"363 99 OFFCURVE",
"362 99 OFFCURVE",
"362 99 CURVE",
"363 99 OFFCURVE",
"360 103 OFFCURVE",
"358 107 CURVE",
"309 266 LINE SMOOTH",
"255 442 OFFCURVE",
"228 556 OFFCURVE",
"228 607 CURVE SMOOTH",
"228 620 OFFCURVE",
"232 631 OFFCURVE",
"253 638 CURVE SMOOTH",
"266 642 OFFCURVE",
"280 645 OFFCURVE",
"294 645 CURVE SMOOTH",
"296 645 OFFCURVE",
"297 645 OFFCURVE",
"299 644 CURVE",
"306 644 LINE",
"328 675 LINE",
"269 668 OFFCURVE",
"218 665 OFFCURVE",
"177 665 CURVE",
"176 657 LINE",
"177 657 OFFCURVE",
"168 665 OFFCURVE",
"150 666 CURVE SMOOTH",
"142 667 OFFCURVE",
"133 667 OFFCURVE",
"122 668 CURVE SMOOTH",
"77 670 OFFCURVE",
"51 671 OFFCURVE",
"41 674 CURVE",
"25 644 LINE",
"33 645 OFFCURVE",
"42 647 OFFCURVE",
"54 647 CURVE SMOOTH",
"81 647 OFFCURVE",
"102 642 OFFCURVE",
"115 631 CURVE SMOOTH",
"121 625 OFFCURVE",
"142 564 OFFCURVE",
"173 462 CURVE SMOOTH",
"229 265 LINE SMOOTH",
"232 252 OFFCURVE",
"236 239 OFFCURVE",
"240 227 CURVE SMOOTH",
"252 185 OFFCURVE",
"262 148 OFFCURVE",
"270 119 CURVE SMOOTH",
"281 73 LINE SMOOTH",
"283 65 OFFCURVE",
"285 57 OFFCURVE",
"287 51 CURVE SMOOTH",
"291 38 OFFCURVE",
"301 22 OFFCURVE",
"315 5 CURVE SMOOTH",
"333 -16 OFFCURVE",
"346 -34 OFFCURVE",
"346 -38 CURVE"
);
}
);
};
layerId = "24D0D9E8-BA2F-4B13-8DB9-88CA40D3CAFC";
paths = (
{
closed = 1;
nodes = (
"362 -31 LINE",
"380 36 OFFCURVE",
"430 153 OFFCURVE",
"512 322 CURVE SMOOTH",
"601 504 OFFCURVE",
"665 607 OFFCURVE",
"699 628 CURVE SMOOTH",
"721 640 OFFCURVE",
"743 646 OFFCURVE",
"765 646 CURVE",
"784 674 LINE",
"741 669 OFFCURVE",
"710 667 OFFCURVE",
"689 667 CURVE SMOOTH",
"634 666 OFFCURVE",
"592 662 OFFCURVE",
"592 659 CURVE SMOOTH",
"592 658 OFFCURVE",
"605 657 OFFCURVE",
"638 657 CURVE SMOOTH",
"642 657 OFFCURVE",
"626 666 OFFCURVE",
"589 668 CURVE SMOOTH",
"545 669 OFFCURVE",
"521 671 OFFCURVE",
"515 674 CURVE",
"492 642 LINE",
"503 643 OFFCURVE",
"513 645 OFFCURVE",
"526 645 CURVE SMOOTH",
"564 645 OFFCURVE",
"582 635 OFFCURVE",
"582 614 CURVE SMOOTH",
"582 589 OFFCURVE",
"547 498 OFFCURVE",
"488 363 CURVE SMOOTH",
"432 235 OFFCURVE",
"392 150 OFFCURVE",
"368 106 CURVE",
"363 99 OFFCURVE",
"362 99 OFFCURVE",
"362 99 CURVE",
"363 99 OFFCURVE",
"360 103 OFFCURVE",
"358 107 CURVE",
"309 266 LINE SMOOTH",
"255 442 OFFCURVE",
"228 556 OFFCURVE",
"228 607 CURVE SMOOTH",
"228 620 OFFCURVE",
"232 631 OFFCURVE",
"253 638 CURVE SMOOTH",
"266 642 OFFCURVE",
"280 645 OFFCURVE",
"294 645 CURVE SMOOTH",
"296 645 OFFCURVE",
"297 645 OFFCURVE",
"299 644 CURVE",
"306 644 LINE",
"328 675 LINE",
"269 668 OFFCURVE",
"218 665 OFFCURVE",
"177 665 CURVE",
"176 657 LINE",
"177 657 OFFCURVE",
"168 665 OFFCURVE",
"150 666 CURVE SMOOTH",
"142 667 OFFCURVE",
"133 667 OFFCURVE",
"122 668 CURVE SMOOTH",
"77 670 OFFCURVE",
"51 671 OFFCURVE",
"41 674 CURVE",
"25 644 LINE",
"33 645 OFFCURVE",
"42 647 OFFCURVE",
"54 647 CURVE SMOOTH",
"81 647 OFFCURVE",
"102 642 OFFCURVE",
"115 631 CURVE SMOOTH",
"121 625 OFFCURVE",
"142 564 OFFCURVE",
"173 462 CURVE SMOOTH",
"229 265 LINE SMOOTH",
"232 252 OFFCURVE",
"236 239 OFFCURVE",
"240 227 CURVE SMOOTH",
"252 185 OFFCURVE",
"262 148 OFFCURVE",
"270 119 CURVE SMOOTH",
"281 73 LINE SMOOTH",
"283 65 OFFCURVE",
"285 57 OFFCURVE",
"287 51 CURVE SMOOTH",
"291 38 OFFCURVE",
"301 22 OFFCURVE",
"315 5 CURVE SMOOTH",
"333 -16 OFFCURVE",
"346 -34 OFFCURVE",
"346 -38 CURVE"
);
}
);
width = 765;
}
);
leftKerningGroup = V;
note = V;
unicode = 0056;
},
{
glyphname = W;
lastChange = "2021-11-03 23:18:53 +0000";
layers = (
{
background = {
paths = (
{
closed = 1;
nodes = (
"362 -31 LINE",
"376 22 OFFCURVE",
"422 133 OFFCURVE",
"500 301 CURVE",
"510 265 LINE SMOOTH",
"528 206 OFFCURVE",
"541 157 OFFCURVE",
"552 119 CURVE SMOOTH",
"555 105 OFFCURVE",
"558 93 OFFCURVE",
"560 82 CURVE SMOOTH",
"564 69 OFFCURVE",
"566 59 OFFCURVE",
"568 51 CURVE SMOOTH",
"571 40 OFFCURVE",
"580 25 OFFCURVE",
"596 5 CURVE SMOOTH",
"614 -16 OFFCURVE",
"627 -34 OFFCURVE",
"627 -38 CURVE",
"643 -31 LINE",
"661 36 OFFCURVE",
"711 153 OFFCURVE",
"794 322 CURVE SMOOTH",
"881 503 OFFCURVE",
"945 607 OFFCURVE",
"980 628 CURVE SMOOTH",
"1002 640 OFFCURVE",
"1025 646 OFFCURVE",
"1047 646 CURVE",
"1066 674 LINE",
"1022 669 OFFCURVE",
"991 667 OFFCURVE",
"970 667 CURVE SMOOTH",
"905 665 OFFCURVE",
"859 662 OFFCURVE",
"859 659 CURVE SMOOTH",
"859 658 OFFCURVE",
"877 657 OFFCURVE",
"920 657 CURVE SMOOTH",
"924 657 OFFCURVE",
"908 666 OFFCURVE",
"870 668 CURVE SMOOTH",
"826 669 OFFCURVE",
"802 671 OFFCURVE",
"796 674 CURVE",
"774 642 LINE",
"785 644 OFFCURVE",
"797 645 OFFCURVE",
"807 645 CURVE SMOOTH",
"846 645 OFFCURVE",
"864 635 OFFCURVE",
"864 614 CURVE SMOOTH",
"864 591 OFFCURVE",
"831 506 OFFCURVE",
"770 363 CURVE SMOOTH",
"713 235 OFFCURVE",
"673 150 OFFCURVE",
"649 106 CURVE SMOOTH",
"647 102 OFFCURVE",
"644 99 OFFCURVE",
"644 99 CURVE",
"643 99 OFFCURVE",
"641 102 OFFCURVE",
"639 107 CURVE SMOOTH",
"617 178 OFFCURVE",
"601 231 OFFCURVE",
"591 266 CURVE SMOOTH",
"582 296 OFFCURVE",
"569 344 OFFCURVE",
"553 412 CURVE",
"619 545 OFFCURVE",
"661 618 OFFCURVE",
"677 628 CURVE SMOOTH",
"692 636 OFFCURVE",
"705 641 OFFCURVE",
"710 640 CURVE",
"728 668 LINE",
"707 665 OFFCURVE",
"684 665 OFFCURVE",
"662 666 CURVE SMOOTH",
"650 667 OFFCURVE",
"640 668 OFFCURVE",
"631 668 CURVE SMOOTH",
"616 668 OFFCURVE",
"606 666 OFFCURVE",
"605 658 CURVE SMOOTH",
"604 637 OFFCURVE",
"578 568 OFFCURVE",
"533 463 CURVE",
"540 463 LINE",
"517 561 OFFCURVE",
"505 626 OFFCURVE",
"503 654 CURVE SMOOTH",
"503 664 OFFCURVE",
"486 667 OFFCURVE",
"458 668 CURVE SMOOTH",
"403 668 LINE SMOOTH",
"388 668 OFFCURVE",
"377 668 OFFCURVE",
"371 667 CURVE SMOOTH",
"365 667 LINE",
"361 665 LINE",
"346 637 LINE",
"354 639 OFFCURVE",
"362 641 OFFCURVE",
"369 641 CURVE SMOOTH",
"379 641 OFFCURVE",
"388 638 OFFCURVE",
"396 631 CURVE SMOOTH",
"405 623 OFFCURVE",
"436 528 OFFCURVE",
"486 354 CURVE",
"428 227 OFFCURVE",
"388 144 OFFCURVE",
"368 106 CURVE",
"363 99 OFFCURVE",
"362 99 OFFCURVE",
"362 99 CURVE",
"363 99 OFFCURVE",
"360 103 OFFCURVE",
"358 107 CURVE",
"309 266 LINE SMOOTH",
"255 442 OFFCURVE",
"228 556 OFFCURVE",
"228 607 CURVE SMOOTH",
"228 620 OFFCURVE",
"232 631 OFFCURVE",
"253 638 CURVE SMOOTH",
"266 642 OFFCURVE",
"280 645 OFFCURVE",
"294 645 CURVE SMOOTH",
"296 645 OFFCURVE",
"297 645 OFFCURVE",
"299 644 CURVE",
"306 644 LINE",
"328 675 LINE",
"269 668 OFFCURVE",
"218 665 OFFCURVE",
"177 665 CURVE",
"176 657 LINE",
"177 657 OFFCURVE",
"168 665 OFFCURVE",
"150 666 CURVE SMOOTH",
"142 667 OFFCURVE",
"133 667 OFFCURVE",
"122 668 CURVE SMOOTH",
"77 670 OFFCURVE",
"51 671 OFFCURVE",
"41 674 CURVE",
"25 644 LINE",
"33 645 OFFCURVE",
"42 647 OFFCURVE",
"54 647 CURVE SMOOTH",
"81 647 OFFCURVE",
"102 642 OFFCURVE",
"115 631 CURVE SMOOTH",
"121 625 OFFCURVE",
"142 564 OFFCURVE",
"173 462 CURVE SMOOTH",
"229 265 LINE SMOOTH",
"232 252 OFFCURVE",
"236 239 OFFCURVE",
"240 227 CURVE SMOOTH",
"252 185 OFFCURVE",
"262 148 OFFCURVE",
"270 119 CURVE SMOOTH",
"281 73 LINE SMOOTH",
"283 65 OFFCURVE",
"285 57 OFFCURVE",
"287 51 CURVE SMOOTH",
"291 38 OFFCURVE",
"301 22 OFFCURVE",
"315 5 CURVE SMOOTH",
"333 -16 OFFCURVE",
"346 -34 OFFCURVE",
"346 -38 CURVE"
);
}
);
};
layerId = "24D0D9E8-BA2F-4B13-8DB9-88CA40D3CAFC";
paths = (
{
closed = 1;
nodes = (
"362 -31 LINE",
"376 22 OFFCURVE",
"422 133 OFFCURVE",
"500 301 CURVE",
"510 265 LINE SMOOTH",
"528 206 OFFCURVE",
"541 157 OFFCURVE",
"552 119 CURVE SMOOTH",
"555 105 OFFCURVE",
"558 93 OFFCURVE",
"560 82 CURVE SMOOTH",
"564 69 OFFCURVE",
"566 59 OFFCURVE",
"568 51 CURVE SMOOTH",
"571 40 OFFCURVE",
"580 25 OFFCURVE",
"596 5 CURVE SMOOTH",
"614 -16 OFFCURVE",
"627 -34 OFFCURVE",
"627 -38 CURVE",
"643 -31 LINE",
"661 36 OFFCURVE",
"711 153 OFFCURVE",
"794 322 CURVE SMOOTH",
"881 503 OFFCURVE",
"945 607 OFFCURVE",
"980 628 CURVE SMOOTH",
"1002 640 OFFCURVE",
"1025 646 OFFCURVE",
"1047 646 CURVE",
"1066 674 LINE",
"1022 669 OFFCURVE",
"991 667 OFFCURVE",
"970 667 CURVE SMOOTH",
"905 665 OFFCURVE",
"859 662 OFFCURVE",
"859 659 CURVE SMOOTH",
"859 658 OFFCURVE",
"877 657 OFFCURVE",
"920 657 CURVE SMOOTH",
"924 657 OFFCURVE",
"908 666 OFFCURVE",
"870 668 CURVE SMOOTH",
"826 669 OFFCURVE",
"802 671 OFFCURVE",
"796 674 CURVE",
"774 642 LINE",
"785 644 OFFCURVE",
"797 645 OFFCURVE",
"807 645 CURVE SMOOTH",
"846 645 OFFCURVE",
"864 635 OFFCURVE",
"864 614 CURVE SMOOTH",
"864 591 OFFCURVE",
"831 506 OFFCURVE",
"770 363 CURVE SMOOTH",
"713 235 OFFCURVE",
"673 150 OFFCURVE",
"649 106 CURVE SMOOTH",
"647 102 OFFCURVE",
"644 99 OFFCURVE",
"644 99 CURVE",
"643 99 OFFCURVE",
"641 102 OFFCURVE",
"639 107 CURVE SMOOTH",
"617 178 OFFCURVE",
"601 231 OFFCURVE",
"591 266 CURVE SMOOTH",
"582 296 OFFCURVE",
"569 344 OFFCURVE",
"553 412 CURVE",
"619 545 OFFCURVE",
"661 618 OFFCURVE",
"677 628 CURVE SMOOTH",
"692 636 OFFCURVE",
"705 641 OFFCURVE",
"710 640 CURVE",
"728 668 LINE",
"707 665 OFFCURVE",
"684 665 OFFCURVE",
"662 666 CURVE SMOOTH",
"650 667 OFFCURVE",
"640 668 OFFCURVE",
"631 668 CURVE SMOOTH",
"616 668 OFFCURVE",
"606 666 OFFCURVE",
"605 658 CURVE SMOOTH",
"604 637 OFFCURVE",
"578 568 OFFCURVE",
"533 463 CURVE",
"540 463 LINE",
"517 561 OFFCURVE",
"505 626 OFFCURVE",
"503 654 CURVE SMOOTH",
"503 664 OFFCURVE",
"486 667 OFFCURVE",
"458 668 CURVE SMOOTH",
"403 668 LINE SMOOTH",
"388 668 OFFCURVE",
"377 668 OFFCURVE",
"371 667 CURVE SMOOTH",
"365 667 LINE",
"361 665 LINE",
"346 637 LINE",
"354 639 OFFCURVE",
"362 641 OFFCURVE",
"369 641 CURVE SMOOTH",
"379 641 OFFCURVE",
"388 638 OFFCURVE",
"396 631 CURVE SMOOTH",
"405 623 OFFCURVE",
"436 528 OFFCURVE",
"486 354 CURVE",
"428 227 OFFCURVE",
"388 144 OFFCURVE",
"368 106 CURVE",
"363 99 OFFCURVE",
"362 99 OFFCURVE",
"362 99 CURVE",
"363 99 OFFCURVE",
"360 103 OFFCURVE",
"358 107 CURVE",
"309 266 LINE SMOOTH",
"255 442 OFFCURVE",
"228 556 OFFCURVE",
"228 607 CURVE SMOOTH",
"228 620 OFFCURVE",
"232 631 OFFCURVE",
"253 638 CURVE SMOOTH",
"266 642 OFFCURVE",
"280 645 OFFCURVE",
"294 645 CURVE SMOOTH",
"296 645 OFFCURVE",
"297 645 OFFCURVE",
"299 644 CURVE",
"306 644 LINE",
"328 675 LINE",
"269 668 OFFCURVE",
"218 665 OFFCURVE",
"177 665 CURVE",
"176 657 LINE",
"177 657 OFFCURVE",
"168 665 OFFCURVE",
"150 666 CURVE SMOOTH",
"142 667 OFFCURVE",
"133 667 OFFCURVE",
"122 668 CURVE SMOOTH",
"77 670 OFFCURVE",
"51 671 OFFCURVE",
"41 674 CURVE",
"25 644 LINE",
"33 645 OFFCURVE",
"42 647 OFFCURVE",
"54 647 CURVE SMOOTH",
"81 647 OFFCURVE",
"102 642 OFFCURVE",
"115 631 CURVE SMOOTH",
"121 625 OFFCURVE",
"142 564 OFFCURVE",
"173 462 CURVE SMOOTH",
"229 265 LINE SMOOTH",
"232 252 OFFCURVE",
"236 239 OFFCURVE",
"240 227 CURVE SMOOTH",
"252 185 OFFCURVE",
"262 148 OFFCURVE",
"270 119 CURVE SMOOTH",
"281 73 LINE SMOOTH",
"283 65 OFFCURVE",
"285 57 OFFCURVE",
"287 51 CURVE SMOOTH",
"291 38 OFFCURVE",
"301 22 OFFCURVE",
"315 5 CURVE SMOOTH",
"333 -16 OFFCURVE",
"346 -34 OFFCURVE",
"346 -38 CURVE"
);
}
);
width = 1062;
}
);
leftKerningGroup = V;
note = W;
unicode = 0057;
},
{
glyphname = X;
lastChange = "2021-11-03 23:18:53 +0000";
layers = (
{
background = {
paths = (
{
closed = 1;
nodes = (
"28 -2 OFFCURVE",
"71 1 OFFCURVE",
"107 1 CURVE SMOOTH",
"179 1 OFFCURVE",
"233 -1 OFFCURVE",
"270 -6 CURVE",
"285 19 LINE",
"281 25 LINE",
"279 24 OFFCURVE",
"274 24 OFFCURVE",
"259 24 CURVE SMOOTH",
"223 24 OFFCURVE",
"205 33 OFFCURVE",
"206 49 CURVE",
"207 50 OFFCURVE",
"207 50 OFFCURVE",
"207 51 CURVE SMOOTH",
"207 52 OFFCURVE",
"208 53 OFFCURVE",
"208 54 CURVE",
"218 84 OFFCURVE",
"267 160 OFFCURVE",
"362 293 CURVE",
"426 183 OFFCURVE",
"468 108 OFFCURVE",
"486 67 CURVE SMOOTH",
"489 61 OFFCURVE",
"490 56 OFFCURVE",
"490 52 CURVE SMOOTH",
"490 49 LINE SMOOTH",
"489 31 OFFCURVE",
"468 23 OFFCURVE",
"426 23 CURVE",
"411 -7 LINE",
"444 -2 OFFCURVE",
"501 2 OFFCURVE",
"583 2 CURVE SMOOTH",
"622 2 OFFCURVE",
"667 -1 OFFCURVE",
"715 -8 CURVE",
"732 23 LINE",
"661 25 OFFCURVE",
"616 38 OFFCURVE",
"600 58 CURVE SMOOTH",
"557 113 OFFCURVE",
"494 212 OFFCURVE",
"409 358 CURVE",
"500 481 OFFCURVE",
"565 565 OFFCURVE",
"605 611 CURVE SMOOTH",
"616 624 OFFCURVE",
"637 633 OFFCURVE",
"665 639 CURVE",
"725 646 LINE",
"744 673 LINE",
"590 667 LINE SMOOTH",
"579 667 OFFCURVE",
"555 668 OFFCURVE",
"516 670 CURVE SMOOTH",
"451 673 LINE",
"447 671 LINE",
"431 646 LINE",
"501 647 OFFCURVE",
"536 636 OFFCURVE",
"536 617 CURVE",
"519 585 OFFCURVE",
"470 510 OFFCURVE",
"388 394 CURVE",
"322 510 OFFCURVE",
"284 585 OFFCURVE",
"278 615 CURVE",
"278 618 LINE",
"277 619 OFFCURVE",
"277 619 OFFCURVE",
"277 620 CURVE SMOOTH",
"279 636 OFFCURVE",
"298 645 OFFCURVE",
"335 645 CURVE SMOOTH",
"337 645 OFFCURVE",
"339 645 OFFCURVE",
"341 644 CURVE",
"349 644 LINE",
"362 675 LINE",
"304 668 OFFCURVE",
"254 665 OFFCURVE",
"210 665 CURVE SMOOTH",
"149 668 LINE SMOOTH",
"142 668 OFFCURVE",
"136 669 OFFCURVE",
"130 669 CURVE SMOOTH",
"95 671 OFFCURVE",
"73 672 OFFCURVE",
"66 674 CURVE",
"60 652 LINE",
"46 644 OFFCURVE",
"67 644 OFFCURVE",
"87 644 CURVE SMOOTH",
"119 644 OFFCURVE",
"138 639 OFFCURVE",
"149 631 CURVE SMOOTH",
"163 621 OFFCURVE",
"228 520 OFFCURVE",
"341 328 CURVE",
"255 207 OFFCURVE",
"191 122 OFFCURVE",
"151 73 CURVE SMOOTH",
"123 38 OFFCURVE",
"71 21 OFFCURVE",
"-7 21 CURVE",
"-21 -8 LINE"
);
}
);
};
layerId = "24D0D9E8-BA2F-4B13-8DB9-88CA40D3CAFC";
paths = (
{
closed = 1;
nodes = (
"28 -2 OFFCURVE",
"71 1 OFFCURVE",
"107 1 CURVE SMOOTH",
"179 1 OFFCURVE",
"233 -1 OFFCURVE",
"270 -6 CURVE",
"285 19 LINE",
"281 25 LINE",
"279 24 OFFCURVE",
"274 24 OFFCURVE",
"259 24 CURVE SMOOTH",
"223 24 OFFCURVE",
"205 33 OFFCURVE",
"206 49 CURVE",
"207 50 OFFCURVE",
"207 50 OFFCURVE",
"207 51 CURVE SMOOTH",
"207 52 OFFCURVE",
"208 53 OFFCURVE",
"208 54 CURVE",
"218 84 OFFCURVE",
"267 160 OFFCURVE",
"362 293 CURVE",
"426 183 OFFCURVE",
"468 108 OFFCURVE",
"486 67 CURVE SMOOTH",
"489 61 OFFCURVE",
"490 56 OFFCURVE",
"490 52 CURVE SMOOTH",
"490 49 LINE SMOOTH",
"489 31 OFFCURVE",
"468 23 OFFCURVE",
"426 23 CURVE",
"411 -7 LINE",
"444 -2 OFFCURVE",
"501 2 OFFCURVE",
"583 2 CURVE SMOOTH",
"622 2 OFFCURVE",
"667 -1 OFFCURVE",
"715 -8 CURVE",
"732 23 LINE",
"661 25 OFFCURVE",
"616 38 OFFCURVE",
"600 58 CURVE SMOOTH",
"557 113 OFFCURVE",
"494 212 OFFCURVE",
"409 358 CURVE",
"500 481 OFFCURVE",
"565 565 OFFCURVE",
"605 611 CURVE SMOOTH",
"616 624 OFFCURVE",
"637 633 OFFCURVE",
"665 639 CURVE",
"725 646 LINE",
"744 673 LINE",
"590 667 LINE SMOOTH",
"579 667 OFFCURVE",
"555 668 OFFCURVE",
"516 670 CURVE SMOOTH",
"451 673 LINE",
"447 671 LINE",
"431 646 LINE",
"501 647 OFFCURVE",
"536 636 OFFCURVE",
"536 617 CURVE",
"519 585 OFFCURVE",
"470 510 OFFCURVE",
"388 394 CURVE",
"322 510 OFFCURVE",
"284 585 OFFCURVE",
"278 615 CURVE",
"278 618 LINE",
"277 619 OFFCURVE",
"277 619 OFFCURVE",
"277 620 CURVE SMOOTH",
"279 636 OFFCURVE",
"298 645 OFFCURVE",
"335 645 CURVE SMOOTH",
"337 645 OFFCURVE",
"339 645 OFFCURVE",
"341 644 CURVE",
"349 644 LINE",
"362 675 LINE",
"304 668 OFFCURVE",
"254 665 OFFCURVE",
"210 665 CURVE SMOOTH",
"149 668 LINE SMOOTH",
"142 668 OFFCURVE",
"136 669 OFFCURVE",
"130 669 CURVE SMOOTH",
"95 671 OFFCURVE",
"73 672 OFFCURVE",
"66 674 CURVE",
"60 652 LINE",
"46 644 OFFCURVE",
"67 644 OFFCURVE",
"87 644 CURVE SMOOTH",
"119 644 OFFCURVE",
"138 639 OFFCURVE",
"149 631 CURVE SMOOTH",
"163 621 OFFCURVE",
"228 520 OFFCURVE",
"341 328 CURVE",
"255 207 OFFCURVE",
"191 122 OFFCURVE",
"151 73 CURVE SMOOTH",
"123 38 OFFCURVE",
"71 21 OFFCURVE",
"-7 21 CURVE",
"-21 -8 LINE"
);
}
);
width = 765;
}
);
note = X;
unicode = 0058;
},
{
glyphname = Y;
lastChange = "2021-11-03 23:18:53 +0000";
layers = (
{
background = {
paths = (
{
closed = 1;
nodes = (
"218 0 OFFCURVE",
"275 3 OFFCURVE",
"303 3 CURVE SMOOTH",
"384 4 OFFCURVE",
"435 1 OFFCURVE",
"457 -8 CURVE",
"475 25 LINE",
"466 23 OFFCURVE",
"457 23 OFFCURVE",
"447 23 CURVE SMOOTH",
"432 23 OFFCURVE",
"417 25 OFFCURVE",
"400 29 CURVE SMOOTH",
"372 36 OFFCURVE",
"359 48 OFFCURVE",
"359 64 CURVE SMOOTH",
"358 81 OFFCURVE",
"357 98 OFFCURVE",
"357 114 CURVE SMOOTH",
"357 134 OFFCURVE",
"358 153 OFFCURVE",
"359 173 CURVE SMOOTH",
"365 254 OFFCURVE",
"382 318 OFFCURVE",
"411 365 CURVE SMOOTH",
"481 478 OFFCURVE",
"539 560 OFFCURVE",
"586 608 CURVE SMOOTH",
"607 630 OFFCURVE",
"637 641 OFFCURVE",
"676 641 CURVE SMOOTH",
"682 641 OFFCURVE",
"689 641 OFFCURVE",
"696 640 CURVE",
"714 670 LINE",
"571 664 LINE SMOOTH",
"556 664 OFFCURVE",
"546 663 OFFCURVE",
"543 658 CURVE",
"528 642 OFFCURVE",
"499 600 OFFCURVE",
"455 530 CURVE SMOOTH",
"413 462 OFFCURVE",
"377 400 OFFCURVE",
"349 346 CURVE",
"331 403 OFFCURVE",
"305 468 OFFCURVE",
"273 543 CURVE SMOOTH",
"238 626 OFFCURVE",
"218 666 OFFCURVE",
"208 666 CURVE SMOOTH",
"176 666 OFFCURVE",
"146 666 OFFCURVE",
"120 668 CURVE SMOOTH",
"68 670 OFFCURVE",
"40 672 OFFCURVE",
"35 673 CURVE",
"30 670 LINE",
"26 652 LINE",
"13 644 OFFCURVE",
"33 644 OFFCURVE",
"52 644 CURVE SMOOTH",
"89 644 OFFCURVE",
"110 639 OFFCURVE",
"120 631 CURVE SMOOTH",
"129 624 OFFCURVE",
"146 601 OFFCURVE",
"174 553 CURVE SMOOTH",
"211 491 OFFCURVE",
"239 431 OFFCURVE",
"259 371 CURVE SMOOTH",
"274 328 OFFCURVE",
"282 278 OFFCURVE",
"282 223 CURVE SMOOTH",
"282 207 OFFCURVE",
"281 191 OFFCURVE",
"280 175 CURVE SMOOTH",
"278 136 OFFCURVE",
"271 100 OFFCURVE",
"262 65 CURVE SMOOTH",
"253 35 OFFCURVE",
"223 20 OFFCURVE",
"168 20 CURVE SMOOTH",
"161 20 OFFCURVE",
"155 21 OFFCURVE",
"147 23 CURVE",
"131 -8 LINE"
);
}
);
};
layerId = "24D0D9E8-BA2F-4B13-8DB9-88CA40D3CAFC";
paths = (
{
closed = 1;
nodes = (
"218 0 OFFCURVE",
"275 3 OFFCURVE",
"303 3 CURVE SMOOTH",
"384 4 OFFCURVE",
"435 1 OFFCURVE",
"457 -8 CURVE",
"475 25 LINE",
"466 23 OFFCURVE",
"457 23 OFFCURVE",
"447 23 CURVE SMOOTH",
"432 23 OFFCURVE",
"417 25 OFFCURVE",
"400 29 CURVE SMOOTH",
"372 36 OFFCURVE",
"359 48 OFFCURVE",
"359 64 CURVE SMOOTH",
"358 81 OFFCURVE",
"357 98 OFFCURVE",
"357 114 CURVE SMOOTH",
"357 134 OFFCURVE",
"358 153 OFFCURVE",
"359 173 CURVE SMOOTH",
"365 254 OFFCURVE",
"382 318 OFFCURVE",
"411 365 CURVE SMOOTH",
"481 478 OFFCURVE",
"539 560 OFFCURVE",
"586 608 CURVE SMOOTH",
"607 630 OFFCURVE",
"637 641 OFFCURVE",
"676 641 CURVE SMOOTH",
"682 641 OFFCURVE",
"689 641 OFFCURVE",
"696 640 CURVE",
"714 670 LINE",
"571 664 LINE SMOOTH",
"556 664 OFFCURVE",
"546 663 OFFCURVE",
"543 658 CURVE",
"528 642 OFFCURVE",
"499 600 OFFCURVE",
"455 530 CURVE SMOOTH",
"413 462 OFFCURVE",
"377 400 OFFCURVE",
"349 346 CURVE",
"331 403 OFFCURVE",
"305 468 OFFCURVE",
"273 543 CURVE SMOOTH",
"238 626 OFFCURVE",
"218 666 OFFCURVE",
"208 666 CURVE SMOOTH",
"176 666 OFFCURVE",
"146 666 OFFCURVE",
"120 668 CURVE SMOOTH",
"68 670 OFFCURVE",
"40 672 OFFCURVE",
"35 673 CURVE",
"30 670 LINE",
"26 652 LINE",
"13 644 OFFCURVE",
"33 644 OFFCURVE",
"52 644 CURVE SMOOTH",
"89 644 OFFCURVE",
"110 639 OFFCURVE",
"120 631 CURVE SMOOTH",
"129 624 OFFCURVE",
"146 601 OFFCURVE",
"174 553 CURVE SMOOTH",
"211 491 OFFCURVE",
"239 431 OFFCURVE",
"259 371 CURVE SMOOTH",
"274 328 OFFCURVE",
"282 278 OFFCURVE",
"282 223 CURVE SMOOTH",
"282 207 OFFCURVE",
"281 191 OFFCURVE",
"280 175 CURVE SMOOTH",
"278 136 OFFCURVE",
"271 100 OFFCURVE",
"262 65 CURVE SMOOTH",
"253 35 OFFCURVE",
"223 20 OFFCURVE",
"168 20 CURVE SMOOTH",
"161 20 OFFCURVE",
"155 21 OFFCURVE",
"147 23 CURVE",
"131 -8 LINE"
);
}
);
width = 704;
}
);
note = Y;
unicode = 0059;
},
{
glyphname = Z;
lastChange = "2021-11-03 23:18:53 +0000";
layers = (
{
background = {
paths = (
{
closed = 1;
nodes = (
"19 -13 LINE",
"50 -4 OFFCURVE",
"85 0 OFFCURVE",
"125 -1 CURVE SMOOTH",
"291 -4 OFFCURVE",
"394 -7 OFFCURVE",
"436 -10 CURVE SMOOTH",
"443 -11 OFFCURVE",
"449 -11 OFFCURVE",
"454 -11 CURVE SMOOTH",
"471 -11 OFFCURVE",
"483 -7 OFFCURVE",
"490 -1 CURVE SMOOTH",
"497 6 OFFCURVE",
"502 18 OFFCURVE",
"507 36 CURVE SMOOTH",
"523 86 OFFCURVE",
"536 125 OFFCURVE",
"547 149 CURVE",
"525 157 LINE",
"522 144 OFFCURVE",
"514 125 OFFCURVE",
"498 100 CURVE SMOOTH",
"483 76 OFFCURVE",
"470 61 OFFCURVE",
"460 54 CURVE SMOOTH",
"441 41 OFFCURVE",
"389 34 OFFCURVE",
"304 34 CURVE SMOOTH",
"230 34 LINE SMOOTH",
"169 34 OFFCURVE",
"115 34 OFFCURVE",
"115 30 CURVE SMOOTH",
"115 29 OFFCURVE",
"122 27 OFFCURVE",
"136 25 CURVE",
"138 33 LINE",
"134 34 OFFCURVE",
"133 34 OFFCURVE",
"136 40 CURVE SMOOTH",
"211 167 LINE SMOOTH",
"224 190 OFFCURVE",
"236 210 OFFCURVE",
"246 227 CURVE SMOOTH",
"386 446 LINE SMOOTH",
"449 539 OFFCURVE",
"495 606 OFFCURVE",
"525 645 CURVE",
"519 666 LINE",
"426 662 OFFCURVE",
"374 660 OFFCURVE",
"363 660 CURVE SMOOTH",
"295 660 LINE SMOOTH",
"235 660 OFFCURVE",
"161 662 OFFCURVE",
"77 666 CURVE",
"62 648 LINE",
"62 577 OFFCURVE",
"58 527 OFFCURVE",
"53 495 CURVE",
"83 512 LINE",
"85 515 LINE",
"85 521 OFFCURVE",
"87 538 OFFCURVE",
"89 570 CURVE SMOOTH",
"90 591 OFFCURVE",
"101 606 OFFCURVE",
"122 613 CURVE SMOOTH",
"140 619 OFFCURVE",
"173 623 OFFCURVE",
"220 625 CURVE SMOOTH",
"262 626 OFFCURVE",
"304 627 OFFCURVE",
"346 627 CURVE SMOOTH",
"392 627 LINE SMOOTH",
"398 627 OFFCURVE",
"399 626 OFFCURVE",
"397 622 CURVE SMOOTH",
"364 558 OFFCURVE",
"321 484 OFFCURVE",
"269 402 CURVE SMOOTH",
"176 257 LINE",
"145 214 OFFCURVE",
"114 172 OFFCURVE",
"83 128 CURVE SMOOTH",
"31 55 OFFCURVE",
"5 12 OFFCURVE",
"6 -3 CURVE",
"14 -13 LINE"
);
}
);
};
layerId = "24D0D9E8-BA2F-4B13-8DB9-88CA40D3CAFC";
paths = (
{
closed = 1;
nodes = (
"19 -13 LINE",
"50 -4 OFFCURVE",
"85 0 OFFCURVE",
"125 -1 CURVE SMOOTH",
"291 -4 OFFCURVE",
"394 -7 OFFCURVE",
"436 -10 CURVE SMOOTH",
"443 -11 OFFCURVE",
"449 -11 OFFCURVE",
"454 -11 CURVE SMOOTH",
"471 -11 OFFCURVE",
"483 -7 OFFCURVE",
"490 -1 CURVE SMOOTH",
"497 6 OFFCURVE",
"502 18 OFFCURVE",
"507 36 CURVE SMOOTH",
"523 86 OFFCURVE",
"536 125 OFFCURVE",
"547 149 CURVE",
"525 157 LINE",
"522 144 OFFCURVE",
"514 125 OFFCURVE",
"498 100 CURVE SMOOTH",
"483 76 OFFCURVE",
"470 61 OFFCURVE",
"460 54 CURVE SMOOTH",
"441 41 OFFCURVE",
"389 34 OFFCURVE",
"304 34 CURVE SMOOTH",
"230 34 LINE SMOOTH",
"169 34 OFFCURVE",
"115 34 OFFCURVE",
"115 30 CURVE SMOOTH",
"115 29 OFFCURVE",
"122 27 OFFCURVE",
"136 25 CURVE",
"138 33 LINE",
"134 34 OFFCURVE",
"133 34 OFFCURVE",
"136 40 CURVE SMOOTH",
"211 167 LINE SMOOTH",
"224 190 OFFCURVE",
"236 210 OFFCURVE",
"246 227 CURVE SMOOTH",
"386 446 LINE SMOOTH",
"449 539 OFFCURVE",
"495 606 OFFCURVE",
"525 645 CURVE",
"519 666 LINE",
"426 662 OFFCURVE",
"374 660 OFFCURVE",
"363 660 CURVE SMOOTH",
"295 660 LINE SMOOTH",
"235 660 OFFCURVE",
"161 662 OFFCURVE",
"77 666 CURVE",
"62 648 LINE",
"62 577 OFFCURVE",
"58 527 OFFCURVE",
"53 495 CURVE",
"83 512 LINE",
"85 515 LINE",
"85 521 OFFCURVE",
"87 538 OFFCURVE",
"89 570 CURVE SMOOTH",
"90 591 OFFCURVE",
"101 606 OFFCURVE",
"122 613 CURVE SMOOTH",
"140 619 OFFCURVE",
"173 623 OFFCURVE",
"220 625 CURVE SMOOTH",
"262 626 OFFCURVE",
"304 627 OFFCURVE",
"346 627 CURVE SMOOTH",
"392 627 LINE SMOOTH",
"398 627 OFFCURVE",
"399 626 OFFCURVE",
"397 622 CURVE SMOOTH",
"364 558 OFFCURVE",
"321 484 OFFCURVE",
"269 402 CURVE SMOOTH",
"176 257 LINE",
"145 214 OFFCURVE",
"114 172 OFFCURVE",
"83 128 CURVE SMOOTH",
"31 55 OFFCURVE",
"5 12 OFFCURVE",
"6 -3 CURVE",
"14 -13 LINE"
);
}
);
width = 593;
}
);
note = Z;
unicode = 005A;
},
{
glyphname = a;
lastChange = "2021-11-03 23:26:17 +0000";
layers = (
{
background = {
paths = (
{
closed = 1;
nodes = (
"347 -11 OFFCURVE",
"368 -10 OFFCURVE",
"395 -8 CURVE SMOOTH",
"422 -7 OFFCURVE",
"442 -6 OFFCURVE",
"456 -7 CURVE",
"472 20 LINE",
"467 26 LINE",
"463 24 OFFCURVE",
"457 23 OFFCURVE",
"448 23 CURVE SMOOTH",
"442 23 OFFCURVE",
"434 23 OFFCURVE",
"425 24 CURVE SMOOTH",
"395 27 OFFCURVE",
"380 38 OFFCURVE",
"378 57 CURVE SMOOTH",
"376 70 OFFCURVE",
"375 87 OFFCURVE",
"375 110 CURVE SMOOTH",
"375 138 OFFCURVE",
"376 174 OFFCURVE",
"379 219 CURVE SMOOTH",
"384 263 LINE",
"384 270 OFFCURVE",
"385 278 OFFCURVE",
"386 286 CURVE SMOOTH",
"387 294 OFFCURVE",
"388 301 OFFCURVE",
"388 308 CURVE SMOOTH",
"393 354 LINE SMOOTH",
"399 438 OFFCURVE",
"357 480 OFFCURVE",
"268 480 CURVE SMOOTH",
"228 480 OFFCURVE",
"190 476 OFFCURVE",
"155 467 CURVE SMOOTH",
"107 454 OFFCURVE",
"75 437 OFFCURVE",
"55 413 CURVE SMOOTH",
"47 404 OFFCURVE",
"44 397 OFFCURVE",
"43 390 CURVE SMOOTH",
"43 388 OFFCURVE",
"45 378 OFFCURVE",
"49 356 CURVE SMOOTH",
"56 323 OFFCURVE",
"59 299 OFFCURVE",
"57 282 CURVE SMOOTH",
"56 269 LINE",
"83 288 LINE",
"80 288 OFFCURVE",
"81 294 OFFCURVE",
"81 302 CURVE SMOOTH",
"84 346 OFFCURVE",
"100 380 OFFCURVE",
"130 406 CURVE SMOOTH",
"159 430 OFFCURVE",
"196 442 OFFCURVE",
"240 442 CURVE SMOOTH",
"276 442 OFFCURVE",
"297 426 OFFCURVE",
"306 393 CURVE SMOOTH",
"309 379 OFFCURVE",
"311 359 OFFCURVE",
"311 334 CURVE SMOOTH",
"311 322 OFFCURVE",
"311 309 OFFCURVE",
"310 295 CURVE SMOOTH",
"309 286 LINE",
"263 285 OFFCURVE",
"180 280 OFFCURVE",
"151 269 CURVE SMOOTH",
"129 259 OFFCURVE",
"109 243 OFFCURVE",
"72 215 CURVE SMOOTH",
"58 206 LINE SMOOTH",
"33 190 OFFCURVE",
"5 171 OFFCURVE",
"5 121 CURVE SMOOTH",
"5 47 OFFCURVE",
"47 -7 OFFCURVE",
"110 -7 CURVE SMOOTH",
"158 -7 OFFCURVE",
"212 15 OFFCURVE",
"271 58 CURVE SMOOTH",
"278 63 OFFCURVE",
"285 69 OFFCURVE",
"292 73 CURVE",
"292 67 LINE SMOOTH",
"288 15 OFFCURVE",
"303 -11 OFFCURVE",
"336 -11 CURVE SMOOTH"
);
},
{
closed = 1;
nodes = (
"108 58 OFFCURVE",
"80 95 OFFCURVE",
"80 135 CURVE SMOOTH",
"80 169 OFFCURVE",
"101 205 OFFCURVE",
"145 221 CURVE SMOOTH",
"175 232 OFFCURVE",
"225 239 OFFCURVE",
"305 242 CURVE",
"301 202 OFFCURVE",
"298 168 OFFCURVE",
"295 147 CURVE SMOOTH",
"290 122 OFFCURVE",
"274 101 OFFCURVE",
"250 85 CURVE SMOOTH",
"226 71 OFFCURVE",
"189 58 OFFCURVE",
"160 58 CURVE SMOOTH"
);
}
);
};
layerId = "24D0D9E8-BA2F-4B13-8DB9-88CA40D3CAFC";
paths = (
{
closed = 1;
nodes = (
"347 -11 OFFCURVE",
"368 -10 OFFCURVE",
"395 -8 CURVE SMOOTH",
"422 -7 OFFCURVE",
"442 -6 OFFCURVE",
"456 -7 CURVE",
"472 20 LINE",
"467 26 LINE",
"459 22 OFFCURVE",
"438 23 OFFCURVE",
"425 24 CURVE SMOOTH",
"395 27 OFFCURVE",
"380 38 OFFCURVE",
"378 57 CURVE SMOOTH",
"373 87 OFFCURVE",
"374 179 OFFCURVE",
"379 219 CURVE SMOOTH",
"384 263 OFFCURVE",
"393 333 OFFCURVE",
"393 378 CURVE SMOOTH",
"393 438 OFFCURVE",
"357 480 OFFCURVE",
"268 480 CURVE SMOOTH",
"207 480 OFFCURVE",
"131 469 OFFCURVE",
"82 437 CURVE SMOOTH",
"69 428 OFFCURVE",
"43 406 OFFCURVE",
"43 390 CURVE SMOOTH",
"43 386 OFFCURVE",
"45 378 OFFCURVE",
"49 356 CURVE SMOOTH",
"56 323 OFFCURVE",
"58 299 OFFCURVE",
"57 282 CURVE SMOOTH",
"56 269 LINE",
"83 288 LINE",
"80 288 OFFCURVE",
"81 294 OFFCURVE",
"81 302 CURVE SMOOTH",
"84 346 OFFCURVE",
"100 380 OFFCURVE",
"130 406 CURVE SMOOTH",
"159 430 OFFCURVE",
"196 442 OFFCURVE",
"240 442 CURVE SMOOTH",
"276 442 OFFCURVE",
"297 426 OFFCURVE",
"306 393 CURVE SMOOTH",
"309 379 OFFCURVE",
"311 359 OFFCURVE",
"311 334 CURVE SMOOTH",
"311 311 OFFCURVE",
"311 304 OFFCURVE",
"309 286 CURVE",
"263 285 OFFCURVE",
"180 280 OFFCURVE",
"151 269 CURVE SMOOTH",
"129 259 OFFCURVE",
"113 246 OFFCURVE",
"93 231 CURVE SMOOTH",
"76 218 OFFCURVE",
"68 213 OFFCURVE",
"58 206 CURVE SMOOTH",
"34 189 OFFCURVE",
"5 171 OFFCURVE",
"5 121 CURVE SMOOTH",
"5 47 OFFCURVE",
"47 -7 OFFCURVE",
"110 -7 CURVE SMOOTH",
"158 -7 OFFCURVE",
"211 15 OFFCURVE",
"254 46 CURVE SMOOTH",
"277 63 OFFCURVE",
"285 69 OFFCURVE",
"292 73 CURVE",
"292 46 LINE SMOOTH",
"292 15 OFFCURVE",
"303 -11 OFFCURVE",
"336 -11 CURVE SMOOTH"
);
},
{
closed = 1;
nodes = (
"108 58 OFFCURVE",
"80 95 OFFCURVE",
"80 135 CURVE SMOOTH",
"80 169 OFFCURVE",
"101 205 OFFCURVE",
"145 221 CURVE SMOOTH",
"175 232 OFFCURVE",
"225 239 OFFCURVE",
"305 242 CURVE",
"301 202 OFFCURVE",
"298 168 OFFCURVE",
"295 147 CURVE SMOOTH",
"290 122 OFFCURVE",
"274 101 OFFCURVE",
"250 85 CURVE SMOOTH",
"226 71 OFFCURVE",
"189 58 OFFCURVE",
"160 58 CURVE SMOOTH"
);
}
);
width = 504;
}
);
leftKerningGroup = a;
note = a;
rightKerningGroup = a;
unicode = 0061;
},
{
glyphname = ae;
lastChange = "2021-11-03 23:13:38 +0000";
layers = (
{
layerId = "24D0D9E8-BA2F-4B13-8DB9-88CA40D3CAFC";
paths = (
{
closed = 1;
nodes = (
"182 -7 OFFCURVE",
"233 18 OFFCURVE",
"297 67 CURVE",
"302 72 OFFCURVE",
"311 78 OFFCURVE",
"323 86 CURVE SMOOTH",
"331 91 OFFCURVE",
"337 95 OFFCURVE",
"342 97 CURVE",
"364 30 OFFCURVE",
"420 -4 OFFCURVE",
"508 -4 CURVE SMOOTH",
"613 -4 OFFCURVE",
"679 9 OFFCURVE",
"708 37 CURVE SMOOTH",
"715 45 OFFCURVE",
"720 52 OFFCURVE",
"721 59 CURVE SMOOTH",
"722 63 OFFCURVE",
"722 71 OFFCURVE",
"721 84 CURVE SMOOTH",
"719 96 OFFCURVE",
"718 107 OFFCURVE",
"718 109 CURVE SMOOTH",
"718 121 OFFCURVE",
"719 145 OFFCURVE",
"721 182 CURVE",
"690 167 LINE",
"693 164 OFFCURVE",
"693 164 OFFCURVE",
"692 155 CURVE",
"691 155 OFFCURVE",
"691 154 OFFCURVE",
"691 153 CURVE SMOOTH",
"676 74 OFFCURVE",
"626 34 OFFCURVE",
"539 34 CURVE SMOOTH",
"476 34 OFFCURVE",
"436 57 OFFCURVE",
"415 105 CURVE SMOOTH",
"404 130 OFFCURVE",
"398 173 OFFCURVE",
"396 237 CURVE SMOOTH",
"396 238 LINE SMOOTH",
"396 241 OFFCURVE",
"397 248 OFFCURVE",
"397 257 CURVE",
"433 260 OFFCURVE",
"475 262 OFFCURVE",
"521 262 CURVE SMOOTH",
"524 262 OFFCURVE",
"532 262 OFFCURVE",
"543 263 CURVE SMOOTH",
"559 263 OFFCURVE",
"582 264 OFFCURVE",
"612 264 CURVE SMOOTH",
"628 264 OFFCURVE",
"644 263 OFFCURVE",
"659 262 CURVE",
"666 260 OFFCURVE",
"678 274 OFFCURVE",
"693 296 CURVE SMOOTH",
"699 303 OFFCURVE",
"703 309 OFFCURVE",
"707 315 CURVE SMOOTH",
"712 322 OFFCURVE",
"713 328 OFFCURVE",
"713 332 CURVE SMOOTH",
"713 335 LINE",
"721 335 LINE",
"721 381 OFFCURVE",
"706 417 OFFCURVE",
"678 443 CURVE SMOOTH",
"647 471 OFFCURVE",
"604 485 OFFCURVE",
"544 485 CURVE SMOOTH",
"473 485 OFFCURVE",
"418 468 OFFCURVE",
"380 433 CURVE",
"358 465 OFFCURVE",
"320 480 OFFCURVE",
"266 480 CURVE SMOOTH",
"226 480 OFFCURVE",
"189 476 OFFCURVE",
"154 467 CURVE SMOOTH",
"107 454 OFFCURVE",
"76 437 OFFCURVE",
"58 413 CURVE SMOOTH",
"51 404 OFFCURVE",
"48 397 OFFCURVE",
"48 390 CURVE SMOOTH",
"48 388 OFFCURVE",
"51 378 OFFCURVE",
"56 356 CURVE SMOOTH",
"65 323 OFFCURVE",
"70 299 OFFCURVE",
"69 282 CURVE SMOOTH",
"69 269 LINE",
"95 288 LINE",
"92 288 OFFCURVE",
"92 294 OFFCURVE",
"92 302 CURVE SMOOTH",
"92 346 OFFCURVE",
"105 380 OFFCURVE",
"134 406 CURVE SMOOTH",
"161 430 OFFCURVE",
"197 442 OFFCURVE",
"241 442 CURVE SMOOTH",
"277 442 OFFCURVE",
"299 426 OFFCURVE",
"310 393 CURVE SMOOTH",
"317 372 OFFCURVE",
"321 339 OFFCURVE",
"321 295 CURVE SMOOTH",
"321 291 LINE",
"309 289 OFFCURVE",
"298 288 OFFCURVE",
"289 287 CURVE SMOOTH",
"269 284 LINE SMOOTH",
"225 279 OFFCURVE",
"192 272 OFFCURVE",
"171 264 CURVE SMOOTH",
"148 254 OFFCURVE",
"119 235 OFFCURVE",
"86 208 CURVE SMOOTH",
"66 192 OFFCURVE",
"51 181 OFFCURVE",
"39 173 CURVE",
"30 165 OFFCURVE",
"25 150 OFFCURVE",
"25 129 CURVE SMOOTH",
"25 95 OFFCURVE",
"35 64 OFFCURVE",
"57 37 CURVE SMOOTH",
"80 7 OFFCURVE",
"108 -7 OFFCURVE",
"142 -7 CURVE SMOOTH"
);
},
{
closed = 1;
nodes = (
"154 63 OFFCURVE",
"123 81 OFFCURVE",
"105 117 CURVE SMOOTH",
"96 133 OFFCURVE",
"93 146 OFFCURVE",
"93 156 CURVE SMOOTH",
"93 179 OFFCURVE",
"114 199 OFFCURVE",
"158 216 CURVE SMOOTH",
"190 228 OFFCURVE",
"245 236 OFFCURVE",
"320 239 CURVE",
"319 199 OFFCURVE",
"318 168 OFFCURVE",
"317 147 CURVE",
"313 122 OFFCURVE",
"299 101 OFFCURVE",
"276 85 CURVE SMOOTH",
"253 71 OFFCURVE",
"227 63 OFFCURVE",
"199 63 CURVE SMOOTH"
);
},
{
closed = 1;
nodes = (
"439 301 OFFCURVE",
"415 303 OFFCURVE",
"399 305 CURVE",
"400 328 LINE",
"400 331 LINE SMOOTH",
"410 409 OFFCURVE",
"454 448 OFFCURVE",
"532 448 CURVE SMOOTH",
"591 448 OFFCURVE",
"628 422 OFFCURVE",
"644 369 CURVE SMOOTH",
"648 356 OFFCURVE",
"650 346 OFFCURVE",
"650 337 CURVE SMOOTH",
"650 319 OFFCURVE",
"645 312 OFFCURVE",
"634 310 CURVE SMOOTH",
"610 306 OFFCURVE",
"570 303 OFFCURVE",
"516 302 CURVE SMOOTH",
"500 301 OFFCURVE",
"486 301 OFFCURVE",
"473 301 CURVE SMOOTH"
);
}
);
width = 741;
}
);
note = ae;
unicode = 00E6;
},
{
glyphname = b;
lastChange = "2021-11-03 23:27:26 +0000";
layers = (
{
background = {
paths = (
{
closed = 1;
nodes = (
"122 16 OFFCURVE",
"144 37 OFFCURVE",
"169 47 CURVE",
"197 8 OFFCURVE",
"241 -12 OFFCURVE",
"302 -12 CURVE SMOOTH",
"442 -12 OFFCURVE",
"513 78 OFFCURVE",
"513 256 CURVE SMOOTH",
"513 326 OFFCURVE",
"503 378 OFFCURVE",
"482 412 CURVE SMOOTH",
"458 454 OFFCURVE",
"415 475 OFFCURVE",
"356 475 CURVE SMOOTH",
"344 475 OFFCURVE",
"333 475 OFFCURVE",
"319 473 CURVE SMOOTH",
"244 465 OFFCURVE",
"192 434 OFFCURVE",
"165 379 CURVE",
"173 377 LINE",
"178 522 OFFCURVE",
"184 618 OFFCURVE",
"190 651 CURVE",
"190 657 LINE SMOOTH",
"190 666 OFFCURVE",
"185 670 OFFCURVE",
"175 670 CURVE SMOOTH",
"171 670 OFFCURVE",
"161 669 OFFCURVE",
"149 666 CURVE SMOOTH",
"136 664 OFFCURVE",
"125 663 OFFCURVE",
"116 663 CURVE SMOOTH",
"63 664 OFFCURVE",
"29 666 OFFCURVE",
"15 668 CURVE",
"1 639 LINE",
"16 643 OFFCURVE",
"30 645 OFFCURVE",
"42 645 CURVE SMOOTH",
"61 645 OFFCURVE",
"76 640 OFFCURVE",
"88 630 CURVE",
"101 616 OFFCURVE",
"108 495 OFFCURVE",
"108 276 CURVE SMOOTH",
"108 248 OFFCURVE",
"106 201 OFFCURVE",
"100 134 CURVE SMOOTH",
"94 57 OFFCURVE",
"87 13 OFFCURVE",
"83 -1 CURVE",
"102 -15 LINE"
);
},
{
closed = 1;
nodes = (
"246 25 OFFCURVE",
"212 49 OFFCURVE",
"193 98 CURVE SMOOTH",
"178 132 OFFCURVE",
"171 177 OFFCURVE",
"171 236 CURVE SMOOTH",
"171 292 OFFCURVE",
"179 332 OFFCURVE",
"195 360 CURVE SMOOTH",
"222 407 OFFCURVE",
"261 430 OFFCURVE",
"312 430 CURVE SMOOTH",
"360 430 OFFCURVE",
"394 406 OFFCURVE",
"413 358 CURVE SMOOTH",
"427 322 OFFCURVE",
"435 275 OFFCURVE",
"435 219 CURVE SMOOTH",
"435 166 OFFCURVE",
"426 124 OFFCURVE",
"411 95 CURVE SMOOTH",
"384 48 OFFCURVE",
"345 25 OFFCURVE",
"294 25 CURVE SMOOTH"
);
}
);
};
layerId = "24D0D9E8-BA2F-4B13-8DB9-88CA40D3CAFC";
paths = (
{
closed = 1;
nodes = (
"122 16 OFFCURVE",
"144 37 OFFCURVE",
"169 47 CURVE",
"197 8 OFFCURVE",
"241 -12 OFFCURVE",
"302 -12 CURVE SMOOTH",
"442 -12 OFFCURVE",
"513 78 OFFCURVE",
"513 256 CURVE SMOOTH",
"513 386 OFFCURVE",
"479 475 OFFCURVE",
"356 475 CURVE SMOOTH",
"275 475 OFFCURVE",
"200 450 OFFCURVE",
"165 379 CURVE",
"173 377 LINE",
"178 517 OFFCURVE",
"186 622 OFFCURVE",
"190 657 CURVE SMOOTH",
"191 666 OFFCURVE",
"185 670 OFFCURVE",
"175 670 CURVE SMOOTH",
"171 670 OFFCURVE",
"161 669 OFFCURVE",
"149 666 CURVE SMOOTH",
"136 664 OFFCURVE",
"125 663 OFFCURVE",
"116 663 CURVE SMOOTH",
"63 664 OFFCURVE",
"29 666 OFFCURVE",
"15 668 CURVE",
"1 639 LINE",
"16 643 OFFCURVE",
"30 645 OFFCURVE",
"42 645 CURVE SMOOTH",
"61 645 OFFCURVE",
"76 640 OFFCURVE",
"88 630 CURVE SMOOTH",
"101 616 OFFCURVE",
"108 495 OFFCURVE",
"108 333 CURVE SMOOTH",
"108 248 OFFCURVE",
"106 201 OFFCURVE",
"100 134 CURVE SMOOTH",
"94 57 OFFCURVE",
"87 13 OFFCURVE",
"83 -1 CURVE",
"102 -15 LINE"
);
},
{
closed = 1;
nodes = (
"200 25 OFFCURVE",
"171 122 OFFCURVE",
"171 236 CURVE SMOOTH",
"171 292 OFFCURVE",
"179 332 OFFCURVE",
"195 360 CURVE SMOOTH",
"222 407 OFFCURVE",
"261 430 OFFCURVE",
"312 430 CURVE SMOOTH",
"407 430 OFFCURVE",
"435 332 OFFCURVE",
"435 219 CURVE SMOOTH",
"435 107 OFFCURVE",
"393 25 OFFCURVE",
"294 25 CURVE SMOOTH"
);
}
);
width = 549;
}
);
leftKerningGroup = bracketleft;
note = b;
rightKerningGroup = b;
unicode = 0062;
},
{
glyphname = c;
lastChange = "2021-11-03 23:28:22 +0000";
layers = (
{
background = {
paths = (
{
closed = 1;
nodes = (
"298 -14 OFFCURVE",
"356 -3 OFFCURVE",
"378 21 CURVE",
"397 97 LINE",
"343 50 OFFCURVE",
"288 27 OFFCURVE",
"233 27 CURVE SMOOTH",
"166 27 OFFCURVE",
"126 51 OFFCURVE",
"108 100 CURVE SMOOTH",
"98 126 OFFCURVE",
"94 159 OFFCURVE",
"94 200 CURVE SMOOTH",
"94 214 OFFCURVE",
"94 228 OFFCURVE",
"95 243 CURVE SMOOTH",
"97 265 OFFCURVE",
"99 286 OFFCURVE",
"103 306 CURVE SMOOTH",
"110 347 OFFCURVE",
"127 382 OFFCURVE",
"154 408 CURVE SMOOTH",
"185 438 OFFCURVE",
"226 454 OFFCURVE",
"272 454 CURVE SMOOTH",
"304 454 OFFCURVE",
"329 447 OFFCURVE",
"346 434 CURVE SMOOTH",
"365 419 OFFCURVE",
"375 398 OFFCURVE",
"375 373 CURVE SMOOTH",
"375 345 OFFCURVE",
"374 329 OFFCURVE",
"372 324 CURVE",
"377 319 LINE",
"404 332 LINE",
"403 344 OFFCURVE",
"403 355 OFFCURVE",
"403 366 CURVE SMOOTH",
"403 396 OFFCURVE",
"405 419 OFFCURVE",
"409 435 CURVE SMOOTH",
"410 438 OFFCURVE",
"411 440 OFFCURVE",
"411 443 CURVE SMOOTH",
"411 452 OFFCURVE",
"403 460 OFFCURVE",
"391 467 CURVE SMOOTH",
"361 481 OFFCURVE",
"322 489 OFFCURVE",
"276 489 CURVE SMOOTH",
"263 489 OFFCURVE",
"250 488 OFFCURVE",
"237 487 CURVE SMOOTH",
"150 480 OFFCURVE",
"89 447 OFFCURVE",
"56 387 CURVE SMOOTH",
"33 348 OFFCURVE",
"20 293 OFFCURVE",
"14 220 CURVE SMOOTH",
"13 204 OFFCURVE",
"12 188 OFFCURVE",
"12 174 CURVE SMOOTH",
"12 97 OFFCURVE",
"28 46 OFFCURVE",
"60 20 CURVE SMOOTH",
"88 -3 OFFCURVE",
"136 -14 OFFCURVE",
"206 -14 CURVE SMOOTH"
);
}
);
};
layerId = "24D0D9E8-BA2F-4B13-8DB9-88CA40D3CAFC";
paths = (
{
closed = 1;
nodes = (
"298 -14 OFFCURVE",
"356 -3 OFFCURVE",
"378 21 CURVE",
"397 97 LINE",
"343 50 OFFCURVE",
"288 27 OFFCURVE",
"233 27 CURVE SMOOTH",
"126 27 OFFCURVE",
"94 86 OFFCURVE",
"94 200 CURVE SMOOTH",
"94 284 OFFCURVE",
"104 360 OFFCURVE",
"154 408 CURVE SMOOTH",
"185 438 OFFCURVE",
"226 454 OFFCURVE",
"272 454 CURVE SMOOTH",
"331 454 OFFCURVE",
"375 427 OFFCURVE",
"375 373 CURVE SMOOTH",
"375 345 OFFCURVE",
"374 329 OFFCURVE",
"372 324 CURVE",
"377 319 LINE",
"404 332 LINE",
"403 344 OFFCURVE",
"403 355 OFFCURVE",
"403 381 CURVE SMOOTH",
"403 421 OFFCURVE",
"411 436 OFFCURVE",
"411 443 CURVE SMOOTH",
"411 452 OFFCURVE",
"403 460 OFFCURVE",
"391 467 CURVE SMOOTH",
"361 481 OFFCURVE",
"322 489 OFFCURVE",
"276 489 CURVE SMOOTH",
"263 489 OFFCURVE",
"250 488 OFFCURVE",
"237 487 CURVE SMOOTH",
"150 480 OFFCURVE",
"89 447 OFFCURVE",
"56 387 CURVE SMOOTH",
"26 336 OFFCURVE",
"12 245 OFFCURVE",
"12 174 CURVE SMOOTH",
"12 28 OFFCURVE",
"61 -14 OFFCURVE",
"206 -14 CURVE SMOOTH"
);
}
);
width = 439;
}
);
leftKerningGroup = c;
note = c;
rightKerningGroup = c;
unicode = 0063;
},
{
glyphname = d;
lastChange = "2021-11-03 23:30:41 +0000";
layers = (
{
background = {
paths = (
{
closed = 1;
nodes = (
"366 -12 OFFCURVE",
"372 -11 OFFCURVE",
"378 -9 CURVE SMOOTH",
"382 -7 OFFCURVE",
"388 -6 OFFCURVE",
"390 -6 CURVE SMOOTH",
"416 -3 OFFCURVE",
"442 -2 OFFCURVE",
"466 -2 CURVE SMOOTH",
"487 -2 OFFCURVE",
"508 -3 OFFCURVE",
"527 -5 CURVE",
"544 20 LINE",
"540 26 LINE",
"534 25 OFFCURVE",
"524 25 OFFCURVE",
"514 25 CURVE SMOOTH",
"461 25 OFFCURVE",
"434 37 OFFCURVE",
"430 62 CURVE SMOOTH",
"428 75 OFFCURVE",
"427 95 OFFCURVE",
"427 122 CURVE SMOOTH",
"427 160 OFFCURVE",
"429 210 OFFCURVE",
"433 274 CURVE SMOOTH",
"438 342 LINE SMOOTH",
"447 489 OFFCURVE",
"459 592 OFFCURVE",
"473 650 CURVE",
"474 652 OFFCURVE",
"475 655 OFFCURVE",
"475 659 CURVE SMOOTH",
"475 666 OFFCURVE",
"469 670 OFFCURVE",
"461 670 CURVE SMOOTH",
"456 670 OFFCURVE",
"446 668 OFFCURVE",
"434 666 CURVE SMOOTH",
"421 664 OFFCURVE",
"410 663 OFFCURVE",
"401 663 CURVE SMOOTH",
"348 664 OFFCURVE",
"315 666 OFFCURVE",
"300 668 CURVE",
"285 639 LINE",
"300 643 OFFCURVE",
"313 645 OFFCURVE",
"325 645 CURVE SMOOTH",
"344 645 OFFCURVE",
"359 640 OFFCURVE",
"370 630 CURVE SMOOTH",
"376 623 OFFCURVE",
"379 594 OFFCURVE",
"379 544 CURVE SMOOTH",
"379 515 OFFCURVE",
"378 477 OFFCURVE",
"376 432 CURVE",
"364 445 OFFCURVE",
"348 456 OFFCURVE",
"327 466 CURVE SMOOTH",
"303 477 OFFCURVE",
"276 482 OFFCURVE",
"248 482 CURVE SMOOTH",
"167 482 OFFCURVE",
"107 456 OFFCURVE",
"71 402 CURVE SMOOTH",
"41 360 OFFCURVE",
"24 297 OFFCURVE",
"18 214 CURVE SMOOTH",
"17 203 OFFCURVE",
"17 192 OFFCURVE",
"17 182 CURVE SMOOTH",
"17 130 OFFCURVE",
"27 89 OFFCURVE",
"47 58 CURVE SMOOTH",
"72 16 OFFCURVE",
"112 -5 OFFCURVE",
"169 -5 CURVE SMOOTH",
"177 -5 OFFCURVE",
"186 -4 OFFCURVE",
"196 -3 CURVE SMOOTH",
"268 5 OFFCURVE",
"320 34 OFFCURVE",
"351 81 CURVE",
"344 83 LINE",
"344 63 OFFCURVE",
"343 46 OFFCURVE",
"343 34 CURVE SMOOTH",
"343 21 OFFCURVE",
"344 13 OFFCURVE",
"344 8 CURVE SMOOTH",
"345 -5 OFFCURVE",
"351 -12 OFFCURVE",
"362 -12 CURVE SMOOTH"
);
},
{
closed = 1;
nodes = (
"157 37 OFFCURVE",
"125 61 OFFCURVE",
"108 109 CURVE SMOOTH",
"100 134 OFFCURVE",
"95 167 OFFCURVE",
"95 206 CURVE SMOOTH",
"95 219 OFFCURVE",
"96 233 OFFCURVE",
"97 248 CURVE SMOOTH",
"101 302 OFFCURVE",
"112 343 OFFCURVE",
"130 372 CURVE SMOOTH",
"160 419 OFFCURVE",
"201 442 OFFCURVE",
"251 442 CURVE SMOOTH",
"299 442 OFFCURVE",
"331 419 OFFCURVE",
"348 370 CURVE SMOOTH",
"356 343 OFFCURVE",
"361 311 OFFCURVE",
"361 273 CURVE SMOOTH",
"361 260 OFFCURVE",
"360 246 OFFCURVE",
"359 231 CURVE SMOOTH",
"355 175 OFFCURVE",
"344 135 OFFCURVE",
"326 107 CURVE SMOOTH",
"296 60 OFFCURVE",
"256 37 OFFCURVE",
"205 37 CURVE SMOOTH"
);
}
);
};
layerId = "24D0D9E8-BA2F-4B13-8DB9-88CA40D3CAFC";
paths = (
{
closed = 1;
nodes = (
"369 -12 OFFCURVE",
"379 -9 OFFCURVE",
"390 -7 CURVE SMOOTH",
"406 -4 OFFCURVE",
"427 -2 OFFCURVE",
"454 -2 CURVE SMOOTH",
"487 -2 OFFCURVE",
"508 -3 OFFCURVE",
"527 -5 CURVE",
"544 20 LINE",
"540 26 LINE",
"534 25 OFFCURVE",
"524 25 OFFCURVE",
"514 25 CURVE SMOOTH",
"461 25 OFFCURVE",
"434 37 OFFCURVE",
"430 62 CURVE SMOOTH",
"428 75 OFFCURVE",
"427 95 OFFCURVE",
"427 122 CURVE SMOOTH",
"427 160 OFFCURVE",
"428 210 OFFCURVE",
"433 274 CURVE SMOOTH",
"446 456 OFFCURVE",
"455 552 OFFCURVE",
"465 613 CURVE SMOOTH",
"467 621 OFFCURVE",
"474 652 OFFCURVE",
"475 659 CURVE SMOOTH",
"476 666 OFFCURVE",
"469 670 OFFCURVE",
"461 670 CURVE SMOOTH",
"453 670 OFFCURVE",
"416 663 OFFCURVE",
"401 663 CURVE SMOOTH",
"348 664 OFFCURVE",
"315 666 OFFCURVE",
"300 668 CURVE",
"285 639 LINE",
"300 643 OFFCURVE",
"313 645 OFFCURVE",
"325 645 CURVE SMOOTH",
"344 645 OFFCURVE",
"359 640 OFFCURVE",
"370 630 CURVE SMOOTH",
"376 623 OFFCURVE",
"379 594 OFFCURVE",
"379 544 CURVE SMOOTH",
"379 515 OFFCURVE",
"378 477 OFFCURVE",
"376 432 CURVE",
"345 465 OFFCURVE",
"296 482 OFFCURVE",
"248 482 CURVE SMOOTH",
"167 482 OFFCURVE",
"107 456 OFFCURVE",
"71 402 CURVE SMOOTH",
"34 350 OFFCURVE",
"17 257 OFFCURVE",
"17 182 CURVE SMOOTH",
"17 76 OFFCURVE",
"62 -5 OFFCURVE",
"169 -5 CURVE SMOOTH",
"260 -5 OFFCURVE",
"323 34 OFFCURVE",
"359 93 CURVE",
"344 91 LINE",
"344 71 OFFCURVE",
"343 46 OFFCURVE",
"343 34 CURVE SMOOTH",
"343 21 OFFCURVE",
"344 13 OFFCURVE",
"344 8 CURVE SMOOTH",
"345 -5 OFFCURVE",
"351 -12 OFFCURVE",
"362 -12 CURVE SMOOTH"
);
},
{
closed = 1;
nodes = (
"145 37 OFFCURVE",
"95 73 OFFCURVE",
"95 206 CURVE SMOOTH",
"95 259 OFFCURVE",
"104 329 OFFCURVE",
"130 372 CURVE SMOOTH",
"160 419 OFFCURVE",
"201 442 OFFCURVE",
"251 442 CURVE SMOOTH",
"329 442 OFFCURVE",
"369 383 OFFCURVE",
"359 228 CURVE SMOOTH",
"350 98 OFFCURVE",
"286 37 OFFCURVE",
"205 37 CURVE SMOOTH"
);
}
);
width = 572;
}
);
leftKerningGroup = d;
note = d;
unicode = 0064;
},
{
glyphname = eth;
lastChange = "2021-11-03 23:13:38 +0000";
layers = (
{
layerId = "24D0D9E8-BA2F-4B13-8DB9-88CA40D3CAFC";
paths = (
{
closed = 1;
nodes = (
"287 -14 OFFCURVE",
"363 69 OFFCURVE",
"390 232 CURVE SMOOTH",
"394 251 OFFCURVE",
"395 271 OFFCURVE",
"395 292 CURVE SMOOTH",
"395 306 OFFCURVE",
"395 319 OFFCURVE",
"393 333 CURVE SMOOTH",
"385 430 OFFCURVE",
"348 511 OFFCURVE",
"283 576 CURVE",
"309 589 OFFCURVE",
"331 600 OFFCURVE",
"344 604 CURVE SMOOTH",
"351 607 OFFCURVE",
"353 628 OFFCURVE",
"353 641 CURVE SMOOTH",
"353 646 OFFCURVE",
"353 650 OFFCURVE",
"352 651 CURVE",
"346 652 LINE",
"329 643 OFFCURVE",
"293 622 OFFCURVE",
"253 602 CURVE",
"218 630 OFFCURVE",
"176 656 OFFCURVE",
"128 677 CURVE",
"126 679 OFFCURVE",
"123 680 OFFCURVE",
"120 680 CURVE SMOOTH",
"112 680 OFFCURVE",
"91 660 OFFCURVE",
"44 608 CURVE SMOOTH",
"21 584 LINE",
"21 578 LINE",
"23 577 OFFCURVE",
"27 570 OFFCURVE",
"31 565 CURVE SMOOTH",
"33 563 OFFCURVE",
"34 560 OFFCURVE",
"35 559 CURVE",
"41 560 LINE",
"51 575 OFFCURVE",
"76 604 OFFCURVE",
"102 604 CURVE SMOOTH",
"109 604 OFFCURVE",
"116 602 OFFCURVE",
"123 598 CURVE SMOOTH",
"143 585 OFFCURVE",
"160 573 OFFCURVE",
"176 562 CURVE",
"151 549 OFFCURVE",
"133 541 OFFCURVE",
"124 538 CURVE",
"119 535 OFFCURVE",
"117 524 OFFCURVE",
"117 513 CURVE SMOOTH",
"117 499 OFFCURVE",
"121 484 OFFCURVE",
"127 488 CURVE SMOOTH",
"145 499 OFFCURVE",
"175 518 OFFCURVE",
"207 535 CURVE",
"221 524 OFFCURVE",
"233 512 OFFCURVE",
"244 499 CURVE SMOOTH",
"259 480 LINE",
"183 478 OFFCURVE",
"126 468 OFFCURVE",
"70 397 CURVE SMOOTH",
"32 351 OFFCURVE",
"12 294 OFFCURVE",
"9 226 CURVE SMOOTH",
"8 214 OFFCURVE",
"8 202 OFFCURVE",
"8 190 CURVE SMOOTH",
"8 127 OFFCURVE",
"17 80 OFFCURVE",
"37 48 CURVE SMOOTH",
"56 13 OFFCURVE",
"89 -7 OFFCURVE",
"136 -12 CURVE SMOOTH",
"145 -13 OFFCURVE",
"155 -14 OFFCURVE",
"164 -14 CURVE SMOOTH"
);
},
{
closed = 1;
nodes = (
"180 23 OFFCURVE",
"164 30 OFFCURVE",
"148 44 CURVE SMOOTH",
"110 77 OFFCURVE",
"91 131 OFFCURVE",
"91 205 CURVE SMOOTH",
"91 352 OFFCURVE",
"157 441 OFFCURVE",
"276 452 CURVE",
"299 407 OFFCURVE",
"311 354 OFFCURVE",
"311 291 CURVE SMOOTH",
"309 177 OFFCURVE",
"289 99 OFFCURVE",
"251 55 CURVE SMOOTH",
"232 34 OFFCURVE",
"214 23 OFFCURVE",
"195 23 CURVE SMOOTH"
);
}
);
width = 395;
}
);
note = eth;
unicode = 00F0;
},
{
glyphname = e;
lastChange = "2021-11-03 23:31:52 +0000";
layers = (
{
background = {
paths = (
{
closed = 1;
nodes = (
"294 -12 OFFCURVE",
"364 2 OFFCURVE",
"395 31 CURVE SMOOTH",
"405 39 OFFCURVE",
"409 46 OFFCURVE",
"411 54 CURVE",
"412 74 OFFCURVE",
"412 90 OFFCURVE",
"412 103 CURVE",
"416 143 OFFCURVE",
"419 166 OFFCURVE",
"421 178 CURVE",
"391 164 LINE",
"390 161 OFFCURVE",
"390 155 OFFCURVE",
"389 149 CURVE SMOOTH",
"367 68 OFFCURVE",
"313 28 OFFCURVE",
"224 28 CURVE SMOOTH",
"160 28 OFFCURVE",
"120 51 OFFCURVE",
"103 100 CURVE SMOOTH",
"96 119 OFFCURVE",
"93 147 OFFCURVE",
"93 183 CURVE SMOOTH",
"93 204 OFFCURVE",
"94 228 OFFCURVE",
"96 255 CURVE",
"136 258 OFFCURVE",
"178 260 OFFCURVE",
"224 260 CURVE SMOOTH",
"228 260 OFFCURVE",
"235 260 OFFCURVE",
"246 261 CURVE SMOOTH",
"262 261 OFFCURVE",
"285 262 OFFCURVE",
"316 262 CURVE SMOOTH",
"333 262 OFFCURVE",
"350 261 OFFCURVE",
"365 260 CURVE",
"372 258 OFFCURVE",
"384 272 OFFCURVE",
"402 295 CURVE SMOOTH",
"418 313 OFFCURVE",
"428 326 OFFCURVE",
"434 334 CURVE",
"438 381 OFFCURVE",
"426 418 OFFCURVE",
"399 445 CURVE SMOOTH",
"370 474 OFFCURVE",
"326 488 OFFCURVE",
"266 488 CURVE SMOOTH",
"164 488 OFFCURVE",
"92 454 OFFCURVE",
"54 387 CURVE SMOOTH",
"28 343 OFFCURVE",
"14 286 OFFCURVE",
"10 220 CURVE SMOOTH",
"9 208 OFFCURVE",
"9 197 OFFCURVE",
"9 186 CURVE SMOOTH",
"9 127 OFFCURVE",
"18 82 OFFCURVE",
"37 52 CURVE SMOOTH",
"66 9 OFFCURVE",
"116 -12 OFFCURVE",
"188 -12 CURVE SMOOTH"
);
},
{
closed = 1;
nodes = (
"137 300 OFFCURVE",
"115 301 OFFCURVE",
"102 304 CURVE",
"103 310 OFFCURVE",
"104 316 OFFCURVE",
"104 320 CURVE SMOOTH",
"105 325 OFFCURVE",
"105 327 OFFCURVE",
"106 329 CURVE",
"123 410 OFFCURVE",
"171 450 OFFCURVE",
"250 450 CURVE SMOOTH",
"311 450 OFFCURVE",
"346 423 OFFCURVE",
"359 369 CURVE SMOOTH",
"362 357 OFFCURVE",
"362 347 OFFCURVE",
"362 337 CURVE SMOOTH",
"360 318 OFFCURVE",
"354 310 OFFCURVE",
"343 308 CURVE SMOOTH",
"317 305 OFFCURVE",
"277 302 OFFCURVE",
"221 301 CURVE SMOOTH",
"201 300 OFFCURVE",
"183 300 OFFCURVE",
"168 300 CURVE SMOOTH"
);
}
);
};
layerId = "24D0D9E8-BA2F-4B13-8DB9-88CA40D3CAFC";
paths = (
{
closed = 1;
nodes = (
"294 -12 OFFCURVE",
"364 2 OFFCURVE",
"395 31 CURVE SMOOTH",
"405 39 OFFCURVE",
"409 46 OFFCURVE",
"411 54 CURVE",
"412 74 OFFCURVE",
"412 90 OFFCURVE",
"412 103 CURVE",
"416 143 OFFCURVE",
"419 166 OFFCURVE",
"421 178 CURVE",
"391 164 LINE",
"390 161 OFFCURVE",
"390 155 OFFCURVE",
"389 149 CURVE SMOOTH",
"367 68 OFFCURVE",
"313 28 OFFCURVE",
"224 28 CURVE SMOOTH",
"123 28 OFFCURVE",
"93 80 OFFCURVE",
"93 183 CURVE SMOOTH",
"93 204 OFFCURVE",
"94 228 OFFCURVE",
"96 255 CURVE",
"116 257 OFFCURVE",
"193 261 OFFCURVE",
"235 261 CURVE SMOOTH",
"262 261 OFFCURVE",
"285 262 OFFCURVE",
"316 262 CURVE SMOOTH",
"333 262 OFFCURVE",
"350 261 OFFCURVE",
"365 260 CURVE",
"372 258 OFFCURVE",
"384 272 OFFCURVE",
"402 295 CURVE SMOOTH",
"418 313 OFFCURVE",
"428 326 OFFCURVE",
"434 334 CURVE",
"438 381 OFFCURVE",
"426 418 OFFCURVE",
"399 445 CURVE SMOOTH",
"370 474 OFFCURVE",
"326 488 OFFCURVE",
"266 488 CURVE SMOOTH",
"164 488 OFFCURVE",
"92 454 OFFCURVE",
"54 387 CURVE SMOOTH",
"22 334 OFFCURVE",
"9 257 OFFCURVE",
"9 186 CURVE SMOOTH",
"9 55 OFFCURVE",
"53 -12 OFFCURVE",
"193 -12 CURVE SMOOTH"
);
},
{
closed = 1;
nodes = (
"137 300 OFFCURVE",
"115 301 OFFCURVE",
"102 304 CURVE",
"105 322 OFFCURVE",
"107 335 OFFCURVE",
"113 354 CURVE SMOOTH",
"134 418 OFFCURVE",
"179 450 OFFCURVE",
"250 450 CURVE SMOOTH",
"322 450 OFFCURVE",
"362 409 OFFCURVE",
"362 337 CURVE SMOOTH",
"360 318 OFFCURVE",
"354 310 OFFCURVE",
"343 308 CURVE SMOOTH",
"317 305 OFFCURVE",
"277 302 OFFCURVE",
"221 301 CURVE SMOOTH",
"201 300 OFFCURVE",
"183 300 OFFCURVE",
"168 300 CURVE SMOOTH"
);
}
);
width = 458;
}
);
leftKerningGroup = e;
note = e;
rightKerningGroup = e;
unicode = 0065;
},
{
glyphname = f;
lastChange = "2021-11-03 23:33:45 +0000";
layers = (
{
background = {
paths = (
{
closed = 1;
nodes = (
"74 0 OFFCURVE",
"129 4 OFFCURVE",
"140 4 CURVE SMOOTH",
"225 2 OFFCURVE",
"265 -2 OFFCURVE",
"278 -8 CURVE",
"297 24 LINE",
"289 23 OFFCURVE",
"281 22 OFFCURVE",
"273 22 CURVE SMOOTH",
"258 22 OFFCURVE",
"242 25 OFFCURVE",
"226 30 CURVE SMOOTH",
"200 37 OFFCURVE",
"187 49 OFFCURVE",
"186 64 CURVE SMOOTH",
"186 147 OFFCURVE",
"188 217 OFFCURVE",
"191 275 CURVE SMOOTH",
"194 310 OFFCURVE",
"197 363 OFFCURVE",
"203 431 CURVE",
"249 429 OFFCURVE",
"280 427 OFFCURVE",
"296 424 CURVE SMOOTH",
"304 422 OFFCURVE",
"313 426 OFFCURVE",
"327 436 CURVE SMOOTH",
"339 446 OFFCURVE",
"345 452 OFFCURVE",
"345 458 CURVE",
"341 458 LINE",
"341 459 OFFCURVE",
"341 459 OFFCURVE",
"339 459 CURVE",
"339 463 LINE",
"206 463 LINE",
"210 505 OFFCURVE",
"218 538 OFFCURVE",
"227 563 CURVE SMOOTH",
"247 610 OFFCURVE",
"279 633 OFFCURVE",
"324 633 CURVE SMOOTH",
"352 633 OFFCURVE",
"373 627 OFFCURVE",
"384 614 CURVE SMOOTH",
"400 596 OFFCURVE",
"405 570 OFFCURVE",
"405 535 CURVE SMOOTH",
"405 520 OFFCURVE",
"405 506 OFFCURVE",
"404 495 CURVE",
"432 510 LINE",
"432 567 OFFCURVE",
"433 603 OFFCURVE",
"436 616 CURVE SMOOTH",
"440 635 OFFCURVE",
"424 649 OFFCURVE",
"391 660 CURVE SMOOTH",
"364 667 OFFCURVE",
"334 671 OFFCURVE",
"304 671 CURVE SMOOTH",
"248 671 OFFCURVE",
"206 653 OFFCURVE",
"179 614 CURVE SMOOTH",
"156 581 OFFCURVE",
"142 530 OFFCURVE",
"136 464 CURVE",
"72 464 LINE",
"69 462 LINE",
"45 434 LINE",
"71 434 OFFCURVE",
"102 434 OFFCURVE",
"137 433 CURVE",
"142 437 LINE",
"142 440 OFFCURVE",
"132 412 OFFCURVE",
"128 353 CURVE SMOOTH",
"126 310 OFFCURVE",
"124 284 OFFCURVE",
"123 276 CURVE SMOOTH",
"115 158 OFFCURVE",
"107 90 OFFCURVE",
"99 65 CURVE SMOOTH",
"90 36 OFFCURVE",
"54 21 OFFCURVE",
"-9 21 CURVE",
"-25 -8 LINE"
);
}
);
};
layerId = "24D0D9E8-BA2F-4B13-8DB9-88CA40D3CAFC";
paths = (
{
closed = 1;
nodes = (
"74 0 OFFCURVE",
"107 4 OFFCURVE",
"140 4 CURVE SMOOTH",
"225 4 OFFCURVE",
"265 -2 OFFCURVE",
"278 -8 CURVE",
"297 24 LINE",
"289 23 OFFCURVE",
"281 22 OFFCURVE",
"273 22 CURVE SMOOTH",
"258 22 OFFCURVE",
"242 25 OFFCURVE",
"226 30 CURVE SMOOTH",
"200 37 OFFCURVE",
"187 49 OFFCURVE",
"186 64 CURVE SMOOTH",
"186 147 OFFCURVE",
"188 217 OFFCURVE",
"191 275 CURVE SMOOTH",
"194 310 OFFCURVE",
"197 363 OFFCURVE",
"203 431 CURVE",
"249 429 OFFCURVE",
"280 427 OFFCURVE",
"296 424 CURVE SMOOTH",
"304 422 OFFCURVE",
"313 426 OFFCURVE",
"327 436 CURVE SMOOTH",
"339 446 OFFCURVE",
"345 452 OFFCURVE",
"345 458 CURVE SMOOTH",
"345 462 OFFCURVE",
"342 463 OFFCURVE",
"334 463 CURVE SMOOTH",
"206 463 LINE",
"215 560 OFFCURVE",
"243 633 OFFCURVE",
"324 633 CURVE SMOOTH",
"352 633 OFFCURVE",
"373 627 OFFCURVE",
"384 614 CURVE SMOOTH",
"400 596 OFFCURVE",
"405 570 OFFCURVE",
"405 535 CURVE SMOOTH",
"405 520 OFFCURVE",
"405 506 OFFCURVE",
"404 495 CURVE",
"432 510 LINE",
"432 567 OFFCURVE",
"433 603 OFFCURVE",
"436 616 CURVE SMOOTH",
"440 635 OFFCURVE",
"424 649 OFFCURVE",
"391 660 CURVE SMOOTH",
"364 667 OFFCURVE",
"334 671 OFFCURVE",
"304 671 CURVE SMOOTH",
"186 671 OFFCURVE",
"149 594 OFFCURVE",
"137 464 CURVE",
"72 464 LINE",
"45 434 LINE",
"71 434 OFFCURVE",
"102 434 OFFCURVE",
"137 433 CURVE",
"134 402 OFFCURVE",
"128 347 OFFCURVE",
"123 276 CURVE SMOOTH",
"115 158 OFFCURVE",
"107 90 OFFCURVE",
"99 65 CURVE SMOOTH",
"90 36 OFFCURVE",
"54 21 OFFCURVE",
"-9 21 CURVE",
"-25 -8 LINE"
);
}
);
width = 391;
}
);
note = f;
unicode = 0066;
},
{
glyphname = g;
lastChange = "2021-11-03 23:35:32 +0000";
layers = (
{
background = {
paths = (
{
closed = 1;
nodes = (
"175 -171 OFFCURVE",
"212 -165 OFFCURVE",
"251 -154 CURVE SMOOTH",
"298 -142 OFFCURVE",
"338 -125 OFFCURVE",
"372 -101 CURVE SMOOTH",
"429 -63 OFFCURVE",
"459 -18 OFFCURVE",
"459 33 CURVE SMOOTH",
"459 84 OFFCURVE",
"422 110 OFFCURVE",
"350 110 CURVE SMOOTH",
"331 110 OFFCURVE",
"314 109 OFFCURVE",
"295 109 CURVE SMOOTH",
"235 109 OFFCURVE",
"175 112 OFFCURVE",
"115 117 CURVE SMOOTH",
"91 119 OFFCURVE",
"82 126 OFFCURVE",
"82 140 CURVE SMOOTH",
"82 151 OFFCURVE",
"87 161 OFFCURVE",
"100 176 CURVE SMOOTH",
"111 188 OFFCURVE",
"123 197 OFFCURVE",
"136 203 CURVE",
"162 189 OFFCURVE",
"191 183 OFFCURVE",
"222 183 CURVE SMOOTH",
"337 183 OFFCURVE",
"403 236 OFFCURVE",
"410 336 CURVE SMOOTH",
"412 375 OFFCURVE",
"404 406 OFFCURVE",
"386 431 CURVE",
"434 428 OFFCURVE",
"462 425 OFFCURVE",
"469 424 CURVE SMOOTH",
"477 423 OFFCURVE",
"487 427 OFFCURVE",
"500 437 CURVE SMOOTH",
"511 445 OFFCURVE",
"518 452 OFFCURVE",
"518 458 CURVE",
"514 458 LINE",
"514 460 OFFCURVE",
"514 459 OFFCURVE",
"510 464 CURVE",
"349 464 LINE",
"324 478 OFFCURVE",
"293 485 OFFCURVE",
"259 485 CURVE SMOOTH",
"138 485 OFFCURVE",
"71 427 OFFCURVE",
"71 320 CURVE SMOOTH",
"71 274 OFFCURVE",
"85 241 OFFCURVE",
"112 217 CURVE",
"95 200 OFFCURVE",
"67 183 OFFCURVE",
"28 169 CURVE SMOOTH",
"17 164 OFFCURVE",
"11 152 OFFCURVE",
"11 133 CURVE SMOOTH",
"11 118 OFFCURVE",
"14 102 OFFCURVE",
"20 86 CURVE SMOOTH",
"31 61 OFFCURVE",
"42 49 OFFCURVE",
"56 51 CURVE",
"70 51 OFFCURVE",
"81 50 OFFCURVE",
"92 51 CURVE",
"90 59 LINE",
"12 22 OFFCURVE",
"-29 -26 OFFCURVE",
"-29 -86 CURVE SMOOTH",
"-29 -107 OFFCURVE",
"-22 -125 OFFCURVE",
"-8 -139 CURVE SMOOTH",
"12 -161 OFFCURVE",
"62 -171 OFFCURVE",
"140 -171 CURVE SMOOTH"
);
},
{
closed = 1;
nodes = (
"101 -138 OFFCURVE",
"65 -125 OFFCURVE",
"44 -97 CURVE SMOOTH",
"36 -86 OFFCURVE",
"32 -71 OFFCURVE",
"33 -54 CURVE SMOOTH",
"37 -4 OFFCURVE",
"66 30 OFFCURVE",
"121 49 CURVE",
"149 48 OFFCURVE",
"180 47 OFFCURVE",
"216 47 CURVE SMOOTH",
"277 46 OFFCURVE",
"324 43 OFFCURVE",
"356 38 CURVE SMOOTH",
"380 34 OFFCURVE",
"391 20 OFFCURVE",
"391 -5 CURVE SMOOTH",
"391 -26 OFFCURVE",
"377 -48 OFFCURVE",
"353 -71 CURVE SMOOTH",
"329 -93 OFFCURVE",
"296 -110 OFFCURVE",
"255 -122 CURVE SMOOTH",
"220 -133 OFFCURVE",
"186 -138 OFFCURVE",
"152 -138 CURVE SMOOTH"
);
},
{
closed = 1;
nodes = (
"213 210 OFFCURVE",
"191 222 OFFCURVE",
"174 247 CURVE SMOOTH",
"156 272 OFFCURVE",
"146 302 OFFCURVE",
"146 337 CURVE SMOOTH",
"146 405 OFFCURVE",
"172 445 OFFCURVE",
"222 456 CURVE SMOOTH",
"229 458 OFFCURVE",
"236 458 OFFCURVE",
"242 458 CURVE SMOOTH",
"268 458 OFFCURVE",
"290 446 OFFCURVE",
"308 421 CURVE SMOOTH",
"326 395 OFFCURVE",
"336 364 OFFCURVE",
"336 330 CURVE SMOOTH",
"336 261 OFFCURVE",
"310 223 OFFCURVE",
"259 212 CURVE SMOOTH",
"252 210 OFFCURVE",
"245 210 OFFCURVE",
"239 210 CURVE SMOOTH"
);
}
);
};
layerId = "24D0D9E8-BA2F-4B13-8DB9-88CA40D3CAFC";
paths = (
{
closed = 1;
nodes = (
"270 -171 OFFCURVE",
"459 -91 OFFCURVE",
"459 33 CURVE SMOOTH",
"459 84 OFFCURVE",
"422 110 OFFCURVE",
"350 110 CURVE SMOOTH",
"331 110 OFFCURVE",
"314 109 OFFCURVE",
"295 109 CURVE SMOOTH",
"235 109 OFFCURVE",
"175 112 OFFCURVE",
"115 117 CURVE SMOOTH",
"91 119 OFFCURVE",
"82 126 OFFCURVE",
"82 140 CURVE SMOOTH",
"82 151 OFFCURVE",
"87 161 OFFCURVE",
"100 176 CURVE SMOOTH",
"111 188 OFFCURVE",
"123 197 OFFCURVE",
"136 203 CURVE",
"162 189 OFFCURVE",
"191 183 OFFCURVE",
"222 183 CURVE SMOOTH",
"337 183 OFFCURVE",
"403 236 OFFCURVE",
"410 336 CURVE SMOOTH",
"412 375 OFFCURVE",
"404 406 OFFCURVE",
"386 431 CURVE",
"434 428 OFFCURVE",
"464 424 OFFCURVE",
"471 424 CURVE SMOOTH",
"479 424 OFFCURVE",
"487 427 OFFCURVE",
"500 437 CURVE SMOOTH",
"511 445 OFFCURVE",
"518 452 OFFCURVE",
"518 458 CURVE SMOOTH",
"518 462 OFFCURVE",
"515 464 OFFCURVE",
"510 464 CURVE SMOOTH",
"349 464 LINE",
"324 478 OFFCURVE",
"293 485 OFFCURVE",
"259 485 CURVE SMOOTH",
"138 485 OFFCURVE",
"71 427 OFFCURVE",
"71 320 CURVE SMOOTH",
"71 274 OFFCURVE",
"85 241 OFFCURVE",
"112 217 CURVE",
"95 200 OFFCURVE",
"67 183 OFFCURVE",
"28 169 CURVE SMOOTH",
"17 164 OFFCURVE",
"11 152 OFFCURVE",
"11 133 CURVE SMOOTH",
"11 118 OFFCURVE",
"14 102 OFFCURVE",
"20 86 CURVE SMOOTH",
"31 61 OFFCURVE",
"42 51 OFFCURVE",
"62 51 CURVE SMOOTH",
"70 51 OFFCURVE",
"81 50 OFFCURVE",
"92 51 CURVE",
"90 59 LINE",
"12 22 OFFCURVE",
"-29 -26 OFFCURVE",
"-29 -86 CURVE SMOOTH",
"-29 -144 OFFCURVE",
"14 -171 OFFCURVE",
"140 -171 CURVE SMOOTH"
);
},
{
closed = 1;
nodes = (
"85 -138 OFFCURVE",
"30 -112 OFFCURVE",
"33 -54 CURVE SMOOTH",
"37 -4 OFFCURVE",
"66 30 OFFCURVE",
"121 49 CURVE",
"149 48 OFFCURVE",
"180 47 OFFCURVE",
"216 47 CURVE SMOOTH",
"277 46 OFFCURVE",
"324 43 OFFCURVE",
"356 38 CURVE SMOOTH",
"380 34 OFFCURVE",
"391 20 OFFCURVE",
"391 -5 CURVE SMOOTH",
"391 -44 OFFCURVE",
"344 -86 OFFCURVE",
"292 -109 CURVE SMOOTH",
"248 -128 OFFCURVE",
"196 -138 OFFCURVE",
"152 -138 CURVE SMOOTH"
);
},
{
closed = 1;
nodes = (
"195 210 OFFCURVE",
"146 252 OFFCURVE",
"146 337 CURVE SMOOTH",
"146 408 OFFCURVE",
"177 458 OFFCURVE",
"242 458 CURVE SMOOTH",
"300 458 OFFCURVE",
"336 391 OFFCURVE",
"336 330 CURVE SMOOTH",
"336 258 OFFCURVE",
"303 210 OFFCURVE",
"239 210 CURVE SMOOTH"
);
}
);
width = 525;
}
);
note = g;
unicode = 0067;
},
{
glyphname = h;
lastChange = "2021-11-03 23:38:18 +0000";
layers = (
{
background = {
paths = (
{
closed = 1;
nodes = (
"359 -2 OFFCURVE",
"409 1 OFFCURVE",
"459 1 CURVE SMOOTH",
"504 1 OFFCURVE",
"548 -2 OFFCURVE",
"591 -6 CURVE",
"603 17 LINE",
"599 23 LINE",
"594 22 OFFCURVE",
"588 22 OFFCURVE",
"579 22 CURVE SMOOTH",
"521 22 OFFCURVE",
"491 36 OFFCURVE",
"485 64 CURVE",
"485 84 OFFCURVE",
"484 101 OFFCURVE",
"484 117 CURVE SMOOTH",
"484 133 OFFCURVE",
"485 147 OFFCURVE",
"485 158 CURVE SMOOTH",
"486 202 OFFCURVE",
"488 241 OFFCURVE",
"490 276 CURVE SMOOTH",
"490 285 OFFCURVE",
"491 302 OFFCURVE",
"493 325 CURVE SMOOTH",
"494 359 OFFCURVE",
"498 389 OFFCURVE",
"498 412 CURVE SMOOTH",
"498 455 OFFCURVE",
"469 482 OFFCURVE",
"415 490 CURVE SMOOTH",
"405 492 OFFCURVE",
"393 493 OFFCURVE",
"382 493 CURVE SMOOTH",
"338 493 OFFCURVE",
"300 481 OFFCURVE",
"265 456 CURVE SMOOTH",
"247 444 OFFCURVE",
"227 432 OFFCURVE",
"202 419 CURVE",
"211 530 OFFCURVE",
"221 606 OFFCURVE",
"233 652 CURVE",
"233 657 LINE SMOOTH",
"234 666 OFFCURVE",
"229 671 OFFCURVE",
"219 671 CURVE SMOOTH",
"215 671 OFFCURVE",
"205 670 OFFCURVE",
"193 667 CURVE SMOOTH",
"179 664 OFFCURVE",
"168 663 OFFCURVE",
"159 663 CURVE SMOOTH",
"151 663 OFFCURVE",
"143 664 OFFCURVE",
"136 664 CURVE SMOOTH",
"96 665 OFFCURVE",
"70 666 OFFCURVE",
"58 668 CURVE",
"43 639 LINE",
"59 643 OFFCURVE",
"73 645 OFFCURVE",
"85 645 CURVE SMOOTH",
"103 645 OFFCURVE",
"118 641 OFFCURVE",
"128 631 CURVE SMOOTH",
"135 623 OFFCURVE",
"139 594 OFFCURVE",
"139 546 CURVE SMOOTH",
"139 513 OFFCURVE",
"137 472 OFFCURVE",
"134 422 CURVE SMOOTH",
"123 276 LINE SMOOTH",
"113 144 OFFCURVE",
"107 83 OFFCURVE",
"101 65 CURVE SMOOTH",
"96 50 OFFCURVE",
"83 38 OFFCURVE",
"63 30 CURVE SMOOTH",
"47 23 OFFCURVE",
"29 20 OFFCURVE",
"7 20 CURVE SMOOTH",
"0 20 OFFCURVE",
"-6 20 OFFCURVE",
"-10 22 CURVE",
"-25 -7 LINE",
"74 0 OFFCURVE",
"129 4 OFFCURVE",
"140 4 CURVE SMOOTH",
"196 3 OFFCURVE",
"230 -1 OFFCURVE",
"247 -7 CURVE",
"262 23 LINE",
"212 22 OFFCURVE",
"188 35 OFFCURVE",
"185 63 CURVE SMOOTH",
"184 72 OFFCURVE",
"184 85 OFFCURVE",
"184 102 CURVE SMOOTH",
"184 140 OFFCURVE",
"186 198 OFFCURVE",
"191 275 CURVE SMOOTH",
"198 374 LINE",
"211 390 OFFCURVE",
"232 406 OFFCURVE",
"260 420 CURVE SMOOTH",
"288 434 OFFCURVE",
"309 441 OFFCURVE",
"326 443 CURVE SMOOTH",
"332 444 OFFCURVE",
"339 444 OFFCURVE",
"345 444 CURVE SMOOTH",
"394 444 OFFCURVE",
"419 407 OFFCURVE",
"419 332 CURVE SMOOTH",
"419 321 OFFCURVE",
"419 310 OFFCURVE",
"418 298 CURVE SMOOTH",
"408 154 LINE",
"407 143 LINE SMOOTH",
"404 102 OFFCURVE",
"399 74 OFFCURVE",
"391 58 CURVE SMOOTH",
"387 48 OFFCURVE",
"378 39 OFFCURVE",
"364 31 CURVE SMOOTH",
"351 25 OFFCURVE",
"337 22 OFFCURVE",
"325 23 CURVE",
"308 -8 LINE"
);
}
);
};
layerId = "24D0D9E8-BA2F-4B13-8DB9-88CA40D3CAFC";
paths = (
{
closed = 1;
nodes = (
"359 -2 OFFCURVE",
"409 1 OFFCURVE",
"459 1 CURVE SMOOTH",
"504 1 OFFCURVE",
"548 -2 OFFCURVE",
"591 -6 CURVE",
"603 17 LINE",
"599 23 LINE",
"594 22 OFFCURVE",
"588 22 OFFCURVE",
"579 22 CURVE SMOOTH",
"521 22 OFFCURVE",
"488 35 OFFCURVE",
"485 64 CURVE SMOOTH",
"483 87 OFFCURVE",
"485 151 OFFCURVE",
"487 219 CURVE SMOOTH",
"490 290 OFFCURVE",
"498 381 OFFCURVE",
"498 412 CURVE SMOOTH",
"498 469 OFFCURVE",
"443 493 OFFCURVE",
"382 493 CURVE SMOOTH",
"338 493 OFFCURVE",
"300 481 OFFCURVE",
"265 456 CURVE SMOOTH",
"247 444 OFFCURVE",
"227 432 OFFCURVE",
"202 419 CURVE",
"210 512 OFFCURVE",
"218 580 OFFCURVE",
"227 627 CURVE SMOOTH",
"231 643 OFFCURVE",
"231 641 OFFCURVE",
"233 657 CURVE SMOOTH",
"234 666 OFFCURVE",
"229 671 OFFCURVE",
"219 671 CURVE SMOOTH",
"205 671 OFFCURVE",
"178 663 OFFCURVE",
"159 663 CURVE SMOOTH",
"146 663 OFFCURVE",
"69 666 OFFCURVE",
"58 668 CURVE",
"43 639 LINE",
"59 643 OFFCURVE",
"73 645 OFFCURVE",
"85 645 CURVE SMOOTH",
"103 645 OFFCURVE",
"118 641 OFFCURVE",
"128 631 CURVE SMOOTH",
"135 623 OFFCURVE",
"139 594 OFFCURVE",
"139 546 CURVE SMOOTH",
"139 513 OFFCURVE",
"137 472 OFFCURVE",
"126 318 CURVE SMOOTH",
"113 147 OFFCURVE",
"108 85 OFFCURVE",
"101 65 CURVE SMOOTH",
"96 50 OFFCURVE",
"83 38 OFFCURVE",
"63 30 CURVE SMOOTH",
"47 23 OFFCURVE",
"29 20 OFFCURVE",
"7 20 CURVE SMOOTH",
"0 20 OFFCURVE",
"-6 20 OFFCURVE",
"-10 22 CURVE",
"-25 -7 LINE",
"74 0 OFFCURVE",
"129 4 OFFCURVE",
"140 4 CURVE SMOOTH",
"196 3 OFFCURVE",
"230 -1 OFFCURVE",
"247 -7 CURVE",
"262 23 LINE",
"212 22 OFFCURVE",
"188 35 OFFCURVE",
"185 63 CURVE SMOOTH",
"182 90 OFFCURVE",
"187 213 OFFCURVE",
"191 275 CURVE SMOOTH",
"198 374 LINE",
"211 390 OFFCURVE",
"232 406 OFFCURVE",
"260 420 CURVE SMOOTH",
"287 433 OFFCURVE",
"313 444 OFFCURVE",
"345 444 CURVE SMOOTH",
"392 444 OFFCURVE",
"419 411 OFFCURVE",
"419 343 CURVE SMOOTH",
"419 321 OFFCURVE",
"417 277 OFFCURVE",
"410 191 CURVE SMOOTH",
"404 110 OFFCURVE",
"403 82 OFFCURVE",
"391 58 CURVE SMOOTH",
"382 35 OFFCURVE",
"350 21 OFFCURVE",
"325 23 CURVE",
"308 -8 LINE"
);
}
);
width = 652;
}
);
leftKerningGroup = h;
note = h;
rightKerningGroup = a;
unicode = 0068;
},
{
glyphname = i;
lastChange = "2021-11-03 23:40:13 +0000";
layers = (
{
background = {
paths = (
{
closed = 1;
nodes = (
"57 0 OFFCURVE",
"110 3 OFFCURVE",
"132 3 CURVE SMOOTH",
"144 3 OFFCURVE",
"155 4 OFFCURVE",
"166 4 CURVE SMOOTH",
"219 4 OFFCURVE",
"256 -1 OFFCURVE",
"278 -8 CURVE",
"294 23 LINE",
"224 22 OFFCURVE",
"188 36 OFFCURVE",
"185 63 CURVE SMOOTH",
"184 75 OFFCURVE",
"183 92 OFFCURVE",
"183 113 CURVE SMOOTH",
"183 143 OFFCURVE",
"184 181 OFFCURVE",
"188 227 CURVE SMOOTH",
"192 268 LINE SMOOTH",
"198 359 OFFCURVE",
"207 425 OFFCURVE",
"220 467 CURVE",
"220 472 LINE SMOOTH",
"221 480 OFFCURVE",
"216 484 OFFCURVE",
"206 484 CURVE SMOOTH",
"202 484 OFFCURVE",
"192 483 OFFCURVE",
"180 480 CURVE",
"170 479 OFFCURVE",
"161 478 OFFCURVE",
"154 478 CURVE SMOOTH",
"147 478 LINE SMOOTH",
"93 479 OFFCURVE",
"60 480 OFFCURVE",
"45 482 CURVE",
"30 453 LINE",
"46 457 OFFCURVE",
"61 459 OFFCURVE",
"73 459 CURVE SMOOTH",
"91 459 OFFCURVE",
"105 455 OFFCURVE",
"116 447 CURVE",
"123 439 OFFCURVE",
"127 413 OFFCURVE",
"127 369 CURVE SMOOTH",
"127 344 OFFCURVE",
"126 313 OFFCURVE",
"123 276 CURVE SMOOTH",
"120 227 LINE SMOOTH",
"114 143 OFFCURVE",
"107 86 OFFCURVE",
"101 65 CURVE SMOOTH",
"92 36 OFFCURVE",
"55 21 OFFCURVE",
"-10 21 CURVE",
"-25 -8 LINE"
);
},
{
closed = 1;
nodes = (
"167 559 OFFCURVE",
"184 569 OFFCURVE",
"210 589 CURVE SMOOTH",
"228 602 OFFCURVE",
"239 611 OFFCURVE",
"243 615 CURVE SMOOTH",
"246 617 OFFCURVE",
"248 621 OFFCURVE",
"248 625 CURVE SMOOTH",
"248 627 LINE SMOOTH",
"248 633 OFFCURVE",
"244 636 OFFCURVE",
"238 636 CURVE SMOOTH",
"224 636 OFFCURVE",
"214 638 OFFCURVE",
"206 643 CURVE",
"201 645 OFFCURVE",
"198 647 OFFCURVE",
"193 650 CURVE",
"191 652 OFFCURVE",
"189 654 OFFCURVE",
"186 655 CURVE",
"181 660 OFFCURVE",
"178 662 OFFCURVE",
"173 662 CURVE SMOOTH",
"168 662 OFFCURVE",
"156 655 OFFCURVE",
"140 643 CURVE SMOOTH",
"118 626 OFFCURVE",
"106 614 OFFCURVE",
"105 607 CURVE SMOOTH",
"105 599 OFFCURVE",
"112 589 OFFCURVE",
"123 578 CURVE SMOOTH",
"136 566 OFFCURVE",
"148 559 OFFCURVE",
"158 559 CURVE SMOOTH"
);
}
);
};
layerId = "24D0D9E8-BA2F-4B13-8DB9-88CA40D3CAFC";
paths = (
{
closed = 1;
nodes = (
"57 0 OFFCURVE",
"110 4 OFFCURVE",
"161 4 CURVE SMOOTH",
"210 4 OFFCURVE",
"246 0 OFFCURVE",
"278 -8 CURVE",
"294 23 LINE",
"224 22 OFFCURVE",
"188 36 OFFCURVE",
"185 63 CURVE SMOOTH",
"184 75 OFFCURVE",
"183 92 OFFCURVE",
"183 113 CURVE SMOOTH",
"183 143 OFFCURVE",
"184 181 OFFCURVE",
"188 227 CURVE SMOOTH",
"192 268 LINE SMOOTH",
"199 344 OFFCURVE",
"204 404 OFFCURVE",
"214 444 CURVE SMOOTH",
"217 456 OFFCURVE",
"220 465 OFFCURVE",
"220 472 CURVE SMOOTH",
"220 480 OFFCURVE",
"216 484 OFFCURVE",
"206 484 CURVE SMOOTH",
"201 484 OFFCURVE",
"168 478 OFFCURVE",
"150 478 CURVE SMOOTH",
"106 478 OFFCURVE",
"67 479 OFFCURVE",
"45 482 CURVE",
"30 453 LINE",
"46 457 OFFCURVE",
"61 459 OFFCURVE",
"73 459 CURVE SMOOTH",
"91 459 OFFCURVE",
"105 455 OFFCURVE",
"116 447 CURVE",
"123 439 OFFCURVE",
"127 413 OFFCURVE",
"127 369 CURVE SMOOTH",
"127 348 OFFCURVE",
"126 320 OFFCURVE",
"120 227 CURVE SMOOTH",
"115 143 OFFCURVE",
"107 86 OFFCURVE",
"101 65 CURVE SMOOTH",
"92 36 OFFCURVE",
"55 21 OFFCURVE",
"-10 21 CURVE",
"-25 -8 LINE"
);
},
{
closed = 1;
nodes = (
"167 559 OFFCURVE",
"184 569 OFFCURVE",
"210 589 CURVE SMOOTH",
"228 602 OFFCURVE",
"239 611 OFFCURVE",
"243 615 CURVE SMOOTH",
"247 618 OFFCURVE",
"248 621 OFFCURVE",
"248 627 CURVE SMOOTH",
"248 633 OFFCURVE",
"244 636 OFFCURVE",
"238 636 CURVE SMOOTH",
"224 636 OFFCURVE",
"213 639 OFFCURVE",
"204 644 CURVE SMOOTH",
"192 650 OFFCURVE",
"180 662 OFFCURVE",
"173 662 CURVE SMOOTH",
"168 662 OFFCURVE",
"156 655 OFFCURVE",
"140 643 CURVE SMOOTH",
"118 626 OFFCURVE",
"106 614 OFFCURVE",
"105 607 CURVE SMOOTH",
"105 599 OFFCURVE",
"112 589 OFFCURVE",
"123 578 CURVE SMOOTH",
"136 566 OFFCURVE",
"148 559 OFFCURVE",
"158 559 CURVE SMOOTH"
);
}
);
width = 325;
}
);
leftKerningGroup = i;
note = i;
unicode = 0069;
},
{
color = 11;
glyphname = idotless;
lastChange = "2021-11-03 23:13:38 +0000";
layers = (
{
layerId = "24D0D9E8-BA2F-4B13-8DB9-88CA40D3CAFC";
paths = (
{
closed = 1;
nodes = (
"57 0 OFFCURVE",
"109 3 OFFCURVE",
"132 3 CURVE SMOOTH",
"144 3 OFFCURVE",
"155 4 OFFCURVE",
"166 4 CURVE SMOOTH",
"219 4 OFFCURVE",
"256 -1 OFFCURVE",
"278 -8 CURVE",
"294 23 LINE",
"224 22 OFFCURVE",
"189 36 OFFCURVE",
"185 63 CURVE SMOOTH",
"184 75 OFFCURVE",
"183 92 OFFCURVE",
"183 113 CURVE SMOOTH",
"183 143 OFFCURVE",
"184 181 OFFCURVE",
"188 227 CURVE SMOOTH",
"192 268 LINE SMOOTH",
"198 359 OFFCURVE",
"207 425 OFFCURVE",
"220 467 CURVE",
"220 472 LINE SMOOTH",
"221 480 OFFCURVE",
"216 484 OFFCURVE",
"206 484 CURVE SMOOTH",
"202 484 OFFCURVE",
"192 483 OFFCURVE",
"180 480 CURVE",
"170 479 OFFCURVE",
"161 478 OFFCURVE",
"154 478 CURVE SMOOTH",
"146 478 LINE SMOOTH",
"94 479 OFFCURVE",
"60 480 OFFCURVE",
"46 482 CURVE",
"30 453 LINE",
"46 457 OFFCURVE",
"60 459 OFFCURVE",
"73 459 CURVE SMOOTH",
"91 459 OFFCURVE",
"105 455 OFFCURVE",
"115 447 CURVE SMOOTH",
"123 439 OFFCURVE",
"127 412 OFFCURVE",
"127 367 CURVE SMOOTH",
"127 343 OFFCURVE",
"125 312 OFFCURVE",
"123 276 CURVE SMOOTH",
"120 227 LINE SMOOTH",
"114 143 OFFCURVE",
"107 86 OFFCURVE",
"101 65 CURVE SMOOTH",
"93 36 OFFCURVE",
"56 21 OFFCURVE",
"-10 21 CURVE",
"-24 -8 LINE"
);
}
);
width = 325;
}
);
unicode = 0131;
},
{
glyphname = j;
lastChange = "2021-11-03 23:41:21 +0000";
layers = (
{
background = {
paths = (
{
closed = 1;
nodes = (
"-21 -174 OFFCURVE",
"-10 -172 OFFCURVE",
"-2 -170 CURVE SMOOTH",
"2 -169 OFFCURVE",
"6 -169 OFFCURVE",
"9 -168 CURVE SMOOTH",
"111 -149 OFFCURVE",
"165 -96 OFFCURVE",
"169 -11 CURVE SMOOTH",
"176 134 LINE",
"184 268 LINE SMOOTH",
"189 354 OFFCURVE",
"198 419 OFFCURVE",
"211 466 CURVE",
"213 468 OFFCURVE",
"213 469 OFFCURVE",
"213 473 CURVE SMOOTH",
"213 480 OFFCURVE",
"207 484 OFFCURVE",
"199 484 CURVE SMOOTH",
"194 484 OFFCURVE",
"185 483 OFFCURVE",
"172 480 CURVE SMOOTH",
"162 479 OFFCURVE",
"154 478 OFFCURVE",
"147 478 CURVE SMOOTH",
"140 478 LINE SMOOTH",
"86 479 OFFCURVE",
"53 480 OFFCURVE",
"38 482 CURVE",
"23 453 LINE",
"39 457 OFFCURVE",
"53 459 OFFCURVE",
"65 459 CURVE SMOOTH",
"83 459 OFFCURVE",
"98 455 OFFCURVE",
"109 447 CURVE",
"116 440 OFFCURVE",
"119 415 OFFCURVE",
"119 374 CURVE SMOOTH",
"119 348 OFFCURVE",
"118 315 OFFCURVE",
"115 276 CURVE SMOOTH",
"104 119 LINE SMOOTH",
"97 23 OFFCURVE",
"83 -47 OFFCURVE",
"63 -86 CURVE SMOOTH",
"52 -107 OFFCURVE",
"36 -122 OFFCURVE",
"16 -133 CURVE SMOOTH",
"-2 -142 OFFCURVE",
"-18 -146 OFFCURVE",
"-32 -146 CURVE SMOOTH",
"-37 -146 OFFCURVE",
"-42 -146 OFFCURVE",
"-46 -145 CURVE",
"-34 -176 LINE"
);
},
{
closed = 1;
nodes = (
"159 559 OFFCURVE",
"176 569 OFFCURVE",
"203 589 CURVE SMOOTH",
"221 602 OFFCURVE",
"232 611 OFFCURVE",
"236 615 CURVE SMOOTH",
"239 618 OFFCURVE",
"241 622 OFFCURVE",
"241 628 CURVE SMOOTH",
"240 633 OFFCURVE",
"236 636 OFFCURVE",
"231 636 CURVE SMOOTH",
"217 636 OFFCURVE",
"207 638 OFFCURVE",
"199 643 CURVE SMOOTH",
"192 646 OFFCURVE",
"186 650 OFFCURVE",
"179 655 CURVE SMOOTH",
"175 659 OFFCURVE",
"169 662 OFFCURVE",
"166 662 CURVE SMOOTH",
"160 662 OFFCURVE",
"149 655 OFFCURVE",
"132 643 CURVE SMOOTH",
"108 624 OFFCURVE",
"98 614 OFFCURVE",
"97 607 CURVE SMOOTH",
"97 599 OFFCURVE",
"104 589 OFFCURVE",
"116 578 CURVE SMOOTH",
"129 565 OFFCURVE",
"140 559 OFFCURVE",
"150 559 CURVE SMOOTH"
);
}
);
};
layerId = "24D0D9E8-BA2F-4B13-8DB9-88CA40D3CAFC";
paths = (
{
closed = 1;
nodes = (
"-24 -174 OFFCURVE",
"-2 -170 OFFCURVE",
"9 -168 CURVE SMOOTH",
"111 -149 OFFCURVE",
"165 -96 OFFCURVE",
"169 -11 CURVE SMOOTH",
"176 134 LINE",
"184 268 LINE SMOOTH",
"189 346 OFFCURVE",
"196 407 OFFCURVE",
"207 452 CURVE SMOOTH",
"209 457 OFFCURVE",
"213 468 OFFCURVE",
"213 473 CURVE SMOOTH",
"213 480 OFFCURVE",
"207 484 OFFCURVE",
"199 484 CURVE SMOOTH",
"194 484 OFFCURVE",
"185 483 OFFCURVE",
"172 480 CURVE SMOOTH",
"158 479 OFFCURVE",
"153 478 OFFCURVE",
"140 478 CURVE SMOOTH",
"86 478 OFFCURVE",
"53 480 OFFCURVE",
"38 482 CURVE",
"23 453 LINE",
"39 457 OFFCURVE",
"53 459 OFFCURVE",
"65 459 CURVE SMOOTH",
"83 459 OFFCURVE",
"98 455 OFFCURVE",
"109 447 CURVE",
"116 440 OFFCURVE",
"119 415 OFFCURVE",
"119 374 CURVE SMOOTH",
"119 338 OFFCURVE",
"116 289 OFFCURVE",
"104 119 CURVE SMOOTH",
"97 23 OFFCURVE",
"83 -47 OFFCURVE",
"63 -86 CURVE SMOOTH",
"45 -120 OFFCURVE",
"5 -146 OFFCURVE",
"-32 -146 CURVE SMOOTH",
"-37 -146 OFFCURVE",
"-42 -146 OFFCURVE",
"-46 -145 CURVE",
"-34 -176 LINE"
);
},
{
closed = 1;
nodes = (
"160 559 OFFCURVE",
"177 569 OFFCURVE",
"203 589 CURVE SMOOTH",
"221 602 OFFCURVE",
"232 611 OFFCURVE",
"236 615 CURVE SMOOTH",
"240 618 OFFCURVE",
"241 621 OFFCURVE",
"241 627 CURVE SMOOTH",
"241 633 OFFCURVE",
"237 636 OFFCURVE",
"231 636 CURVE SMOOTH",
"217 636 OFFCURVE",
"206 639 OFFCURVE",
"197 644 CURVE SMOOTH",
"185 650 OFFCURVE",
"173 662 OFFCURVE",
"166 662 CURVE SMOOTH",
"161 662 OFFCURVE",
"149 655 OFFCURVE",
"133 643 CURVE SMOOTH",
"111 626 OFFCURVE",
"99 614 OFFCURVE",
"98 607 CURVE SMOOTH",
"98 599 OFFCURVE",
"105 589 OFFCURVE",
"116 578 CURVE SMOOTH",
"129 566 OFFCURVE",
"141 559 OFFCURVE",
"151 559 CURVE SMOOTH"
);
}
);
width = 285;
}
);
leftKerningGroup = j;
note = j;
rightKerningGroup = bracketleft;
unicode = 006A;
},
{
color = 11;
glyphname = jdotless;
lastChange = "2021-11-03 23:13:38 +0000";
layers = (
{
layerId = "24D0D9E8-BA2F-4B13-8DB9-88CA40D3CAFC";
paths = (
{
closed = 1;
nodes = (
"-21 -174 OFFCURVE",
"-10 -172 OFFCURVE",
"-2 -170 CURVE SMOOTH",
"2 -169 OFFCURVE",
"6 -169 OFFCURVE",
"9 -168 CURVE SMOOTH",
"111 -149 OFFCURVE",
"165 -96 OFFCURVE",
"169 -11 CURVE SMOOTH",
"176 134 LINE",
"184 268 LINE SMOOTH",
"189 354 OFFCURVE",
"198 419 OFFCURVE",
"211 466 CURVE",
"213 468 OFFCURVE",
"213 469 OFFCURVE",
"213 473 CURVE SMOOTH",
"213 480 OFFCURVE",
"207 484 OFFCURVE",
"199 484 CURVE SMOOTH",
"194 484 OFFCURVE",
"185 483 OFFCURVE",
"172 480 CURVE SMOOTH",
"162 479 OFFCURVE",
"154 478 OFFCURVE",
"147 478 CURVE SMOOTH",
"140 478 LINE SMOOTH",
"86 479 OFFCURVE",
"53 480 OFFCURVE",
"38 482 CURVE",
"23 453 LINE",
"39 457 OFFCURVE",
"53 459 OFFCURVE",
"65 459 CURVE SMOOTH",
"83 459 OFFCURVE",
"98 455 OFFCURVE",
"109 447 CURVE",
"116 440 OFFCURVE",
"119 415 OFFCURVE",
"119 374 CURVE SMOOTH",
"119 348 OFFCURVE",
"118 315 OFFCURVE",
"115 276 CURVE SMOOTH",
"104 119 LINE SMOOTH",
"97 23 OFFCURVE",
"83 -47 OFFCURVE",
"63 -86 CURVE SMOOTH",
"52 -107 OFFCURVE",
"36 -122 OFFCURVE",
"16 -133 CURVE SMOOTH",
"-2 -142 OFFCURVE",
"-18 -146 OFFCURVE",
"-32 -146 CURVE SMOOTH",
"-37 -146 OFFCURVE",
"-42 -146 OFFCURVE",
"-46 -145 CURVE",
"-34 -176 LINE"
);
}
);
width = 285;
}
);
unicode = 0237;
},
{
glyphname = k;
lastChange = "2021-11-03 23:19:00 +0000";
layers = (
{
background = {
paths = (
{
closed = 1;
nodes = (
"296 24 LINE",
"288 23 OFFCURVE",
"281 22 OFFCURVE",
"273 22 CURVE SMOOTH",
"258 22 OFFCURVE",
"242 25 OFFCURVE",
"226 30 CURVE SMOOTH",
"200 37 OFFCURVE",
"187 49 OFFCURVE",
"186 65 CURVE SMOOTH",
"185 76 OFFCURVE",
"184 91 OFFCURVE",
"184 111 CURVE SMOOTH",
"184 150 OFFCURVE",
"186 204 OFFCURVE",
"191 275 CURVE SMOOTH",
"196 343 LINE SMOOTH",
"207 497 OFFCURVE",
"219 600 OFFCURVE",
"233 652 CURVE",
"233 657 LINE SMOOTH",
"234 666 OFFCURVE",
"229 671 OFFCURVE",
"219 671 CURVE SMOOTH",
"215 671 OFFCURVE",
"205 670 OFFCURVE",
"193 667 CURVE SMOOTH",
"179 664 OFFCURVE",
"168 663 OFFCURVE",
"159 663 CURVE SMOOTH",
"151 663 OFFCURVE",
"143 664 OFFCURVE",
"136 664 CURVE SMOOTH",
"96 665 OFFCURVE",
"70 666 OFFCURVE",
"58 668 CURVE",
"43 639 LINE",
"59 643 OFFCURVE",
"73 645 OFFCURVE",
"85 645 CURVE SMOOTH",
"103 645 OFFCURVE",
"118 641 OFFCURVE",
"128 631 CURVE SMOOTH",
"135 623 OFFCURVE",
"139 594 OFFCURVE",
"139 546 CURVE SMOOTH",
"139 513 OFFCURVE",
"137 472 OFFCURVE",
"134 422 CURVE SMOOTH",
"123 276 LINE SMOOTH",
"113 146 OFFCURVE",
"107 85 OFFCURVE",
"101 65 CURVE SMOOTH",
"96 50 OFFCURVE",
"83 38 OFFCURVE",
"62 30 CURVE SMOOTH",
"46 23 OFFCURVE",
"28 20 OFFCURVE",
"7 20 CURVE SMOOTH",
"-2 20 OFFCURVE",
"-7 20 OFFCURVE",
"-11 22 CURVE",
"-25 -7 LINE",
"74 0 OFFCURVE",
"129 4 OFFCURVE",
"140 4 CURVE SMOOTH",
"225 2 OFFCURVE",
"267 -2 OFFCURVE",
"280 -8 CURVE"
);
},
{
closed = 1;
nodes = (
"535 -12 OFFCURVE",
"551 -10 OFFCURVE",
"566 -7 CURVE",
"584 24 LINE",
"567 21 OFFCURVE",
"555 20 OFFCURVE",
"546 20 CURVE SMOOTH",
"514 20 OFFCURVE",
"484 33 OFFCURVE",
"457 59 CURVE SMOOTH",
"422 93 OFFCURVE",
"378 144 OFFCURVE",
"326 211 CURVE SMOOTH",
"266 287 LINE",
"316 347 OFFCURVE",
"378 397 OFFCURVE",
"456 438 CURVE SMOOTH",
"475 449 OFFCURVE",
"503 454 OFFCURVE",
"541 454 CURVE",
"556 482 LINE",
"505 477 OFFCURVE",
"460 474 OFFCURVE",
"422 473 CURVE",
"341 479 LINE SMOOTH",
"327 480 OFFCURVE",
"314 480 OFFCURVE",
"304 481 CURVE",
"285 455 LINE",
"294 456 OFFCURVE",
"303 458 OFFCURVE",
"311 458 CURVE SMOOTH",
"333 458 OFFCURVE",
"344 447 OFFCURVE",
"344 426 CURVE SMOOTH",
"344 408 OFFCURVE",
"296 361 OFFCURVE",
"206 292 CURVE SMOOTH",
"197 284 OFFCURVE",
"192 278 OFFCURVE",
"191 272 CURVE SMOOTH",
"191 267 OFFCURVE",
"194 260 OFFCURVE",
"200 253 CURVE",
"243 189 OFFCURVE",
"286 131 OFFCURVE",
"327 82 CURVE SMOOTH",
"356 47 OFFCURVE",
"384 21 OFFCURVE",
"409 8 CURVE SMOOTH",
"434 -4 OFFCURVE",
"470 -11 OFFCURVE",
"517 -12 CURVE SMOOTH"
);
}
);
};
layerId = "24D0D9E8-BA2F-4B13-8DB9-88CA40D3CAFC";
paths = (
{
closed = 1;
nodes = (
"296 24 LINE",
"288 23 OFFCURVE",
"281 22 OFFCURVE",
"273 22 CURVE SMOOTH",
"258 22 OFFCURVE",
"242 25 OFFCURVE",
"226 30 CURVE SMOOTH",
"200 37 OFFCURVE",
"187 49 OFFCURVE",
"186 65 CURVE SMOOTH",
"185 76 OFFCURVE",
"184 91 OFFCURVE",
"184 111 CURVE SMOOTH",
"184 150 OFFCURVE",
"186 204 OFFCURVE",
"191 275 CURVE SMOOTH",
"196 343 LINE SMOOTH",
"207 497 OFFCURVE",
"219 600 OFFCURVE",
"233 652 CURVE",
"233 657 LINE SMOOTH",
"234 666 OFFCURVE",
"229 671 OFFCURVE",
"219 671 CURVE SMOOTH",
"215 671 OFFCURVE",
"205 670 OFFCURVE",
"193 667 CURVE SMOOTH",
"179 664 OFFCURVE",
"168 663 OFFCURVE",
"159 663 CURVE SMOOTH",
"151 663 OFFCURVE",
"143 664 OFFCURVE",
"136 664 CURVE SMOOTH",
"96 665 OFFCURVE",
"70 666 OFFCURVE",
"58 668 CURVE",
"43 639 LINE",
"59 643 OFFCURVE",
"73 645 OFFCURVE",
"85 645 CURVE SMOOTH",
"103 645 OFFCURVE",
"118 641 OFFCURVE",
"128 631 CURVE SMOOTH",
"135 623 OFFCURVE",
"139 594 OFFCURVE",
"139 546 CURVE SMOOTH",
"139 513 OFFCURVE",
"137 472 OFFCURVE",
"134 422 CURVE SMOOTH",
"123 276 LINE SMOOTH",
"113 146 OFFCURVE",
"107 85 OFFCURVE",
"101 65 CURVE SMOOTH",
"96 50 OFFCURVE",
"83 38 OFFCURVE",
"62 30 CURVE SMOOTH",
"46 23 OFFCURVE",
"28 20 OFFCURVE",
"7 20 CURVE SMOOTH",
"-2 20 OFFCURVE",
"-7 20 OFFCURVE",
"-11 22 CURVE",
"-25 -7 LINE",
"74 0 OFFCURVE",
"129 4 OFFCURVE",
"140 4 CURVE SMOOTH",
"225 2 OFFCURVE",
"267 -2 OFFCURVE",
"280 -8 CURVE"
);
},
{
closed = 1;
nodes = (
"535 -12 OFFCURVE",
"551 -10 OFFCURVE",
"566 -7 CURVE",
"584 24 LINE",
"567 21 OFFCURVE",
"555 20 OFFCURVE",
"546 20 CURVE SMOOTH",
"514 20 OFFCURVE",
"484 33 OFFCURVE",
"457 59 CURVE SMOOTH",
"422 93 OFFCURVE",
"378 144 OFFCURVE",
"326 211 CURVE SMOOTH",
"266 287 LINE",
"316 347 OFFCURVE",
"378 397 OFFCURVE",
"456 438 CURVE SMOOTH",
"475 449 OFFCURVE",
"503 454 OFFCURVE",
"541 454 CURVE",
"556 482 LINE",
"505 477 OFFCURVE",
"460 474 OFFCURVE",
"422 473 CURVE",
"341 479 LINE SMOOTH",
"327 480 OFFCURVE",
"314 480 OFFCURVE",
"304 481 CURVE",
"285 455 LINE",
"294 456 OFFCURVE",
"303 458 OFFCURVE",
"311 458 CURVE SMOOTH",
"333 458 OFFCURVE",
"344 447 OFFCURVE",
"344 426 CURVE SMOOTH",
"344 408 OFFCURVE",
"296 361 OFFCURVE",
"206 292 CURVE SMOOTH",
"197 284 OFFCURVE",
"192 278 OFFCURVE",
"191 272 CURVE SMOOTH",
"191 267 OFFCURVE",
"194 260 OFFCURVE",
"200 253 CURVE",
"243 189 OFFCURVE",
"286 131 OFFCURVE",
"327 82 CURVE SMOOTH",
"356 47 OFFCURVE",
"384 21 OFFCURVE",
"409 8 CURVE SMOOTH",
"434 -4 OFFCURVE",
"470 -11 OFFCURVE",
"517 -12 CURVE SMOOTH"
);
}
);
width = 607;
}
);
leftKerningGroup = h;
note = k;
unicode = 006B;
},
{
glyphname = kgreenlandic;
lastChange = "2021-11-03 23:13:38 +0000";
layers = (
{
layerId = "24D0D9E8-BA2F-4B13-8DB9-88CA40D3CAFC";
paths = (
{
closed = 1;
nodes = (
"568 -12 OFFCURVE",
"584 -10 OFFCURVE",
"599 -7 CURVE",
"614 24 LINE",
"597 21 OFFCURVE",
"585 20 OFFCURVE",
"577 20 CURVE SMOOTH",
"544 20 OFFCURVE",
"513 33 OFFCURVE",
"485 59 CURVE SMOOTH",
"448 93 OFFCURVE",
"400 144 OFFCURVE",
"343 211 CURVE SMOOTH",
"278 287 LINE",
"323 347 OFFCURVE",
"382 397 OFFCURVE",
"457 438 CURVE SMOOTH",
"476 449 OFFCURVE",
"503 454 OFFCURVE",
"542 454 CURVE",
"555 482 LINE",
"504 477 OFFCURVE",
"459 474 OFFCURVE",
"421 473 CURVE",
"390 475 OFFCURVE",
"362 477 OFFCURVE",
"340 479 CURVE SMOOTH",
"325 480 OFFCURVE",
"312 480 OFFCURVE",
"302 481 CURVE",
"285 455 LINE",
"294 456 OFFCURVE",
"303 458 OFFCURVE",
"311 458 CURVE SMOOTH",
"333 458 OFFCURVE",
"346 447 OFFCURVE",
"346 425 CURVE SMOOTH",
"346 406 OFFCURVE",
"301 360 OFFCURVE",
"217 292 CURVE",
"209 284 OFFCURVE",
"204 278 OFFCURVE",
"204 272 CURVE SMOOTH",
"204 267 OFFCURVE",
"208 260 OFFCURVE",
"214 253 CURVE SMOOTH",
"261 189 OFFCURVE",
"309 131 OFFCURVE",
"353 82 CURVE SMOOTH",
"385 47 OFFCURVE",
"414 21 OFFCURVE",
"440 8 CURVE SMOOTH",
"466 -4 OFFCURVE",
"503 -11 OFFCURVE",
"550 -12 CURVE SMOOTH"
);
},
{
closed = 1;
nodes = (
"327 24 LINE",
"319 23 OFFCURVE",
"312 22 OFFCURVE",
"304 22 CURVE SMOOTH",
"288 22 OFFCURVE",
"272 25 OFFCURVE",
"256 30 CURVE SMOOTH",
"230 37 OFFCURVE",
"216 49 OFFCURVE",
"213 65 CURVE SMOOTH",
"207 97 OFFCURVE",
"204 167 OFFCURVE",
"204 275 CURVE SMOOTH",
"204 350 LINE SMOOTH",
"204 415 OFFCURVE",
"209 434 OFFCURVE",
"219 472 CURVE SMOOTH",
"219 473 LINE",
"219 476 LINE SMOOTH",
"219 484 OFFCURVE",
"214 488 OFFCURVE",
"204 488 CURVE SMOOTH",
"201 488 OFFCURVE",
"194 487 OFFCURVE",
"178 485 CURVE SMOOTH",
"165 483 OFFCURVE",
"154 482 OFFCURVE",
"145 482 CURVE SMOOTH",
"92 483 OFFCURVE",
"59 484 OFFCURVE",
"44 486 CURVE",
"29 462 LINE",
"45 465 OFFCURVE",
"59 467 OFFCURVE",
"72 467 CURVE SMOOTH",
"91 467 OFFCURVE",
"106 464 OFFCURVE",
"117 457 CURVE",
"127 448 OFFCURVE",
"136 405 OFFCURVE",
"136 361 CURVE SMOOTH",
"136 276 LINE SMOOTH",
"135 146 OFFCURVE",
"133 85 OFFCURVE",
"128 65 CURVE SMOOTH",
"124 50 OFFCURVE",
"112 38 OFFCURVE",
"91 30 CURVE SMOOTH",
"76 23 OFFCURVE",
"59 20 OFFCURVE",
"38 20 CURVE SMOOTH",
"29 20 OFFCURVE",
"24 20 OFFCURVE",
"20 22 CURVE",
"8 -7 LINE",
"106 0 OFFCURVE",
"161 4 OFFCURVE",
"172 4 CURVE SMOOTH",
"257 2 OFFCURVE",
"299 -2 OFFCURVE",
"312 -8 CURVE"
);
}
);
width = 607;
}
);
unicode = 0138;
},
